<?xml version="1.0" encoding="UTF-8"?> <svg xmlns="http://www.w3.org/2000/svg" xmlns:xlink="http://www.w3.org/1999/xlink" viewBox="0 0 350 120"><defs><style>.cls-1{isolation:isolate;}.cls-2{clip-path:url(#clip-path);}.cls-12,.cls-3,.cls-40,.cls-41{fill:none;}.cls-4{fill:url(#linear-gradient);}.cls-5{clip-path:url(#clip-path-2);}.cls-6{fill:url(#linear-gradient-2);}.cls-7{clip-path:url(#clip-path-3);}.cls-8{clip-path:url(#clip-path-5);}.cls-9{fill:url(#linear-gradient-3);}.cls-10,.cls-42,.cls-58{fill:#231f20;}.cls-11{fill:#e21e30;}.cls-12{stroke:#fff;stroke-width:1.1px;}.cls-12,.cls-40,.cls-42{stroke-miterlimit:10;}.cls-13{font-size:8.93px;}.cls-13,.cls-14,.cls-15,.cls-16,.cls-17,.cls-18,.cls-19,.cls-20,.cls-21,.cls-22,.cls-23,.cls-24,.cls-25,.cls-26,.cls-27,.cls-28,.cls-29,.cls-30,.cls-31,.cls-32,.cls-33,.cls-34,.cls-35,.cls-36,.cls-37,.cls-38,.cls-39{fill:#fff;}.cls-13,.cls-14,.cls-15,.cls-16,.cls-17,.cls-18,.cls-19,.cls-20,.cls-21,.cls-22,.cls-23,.cls-24,.cls-25,.cls-26,.cls-27,.cls-28,.cls-29,.cls-30,.cls-31,.cls-32,.cls-33,.cls-34,.cls-35,.cls-36,.cls-37{font-family:AGaramondPro-Bold, Adobe Garamond Pro;font-weight:700;}.cls-14{font-size:8.93px;}.cls-15{font-size:8.93px;}.cls-16{font-size:8.93px;}.cls-17{font-size:8.93px;}.cls-18{font-size:8.93px;}.cls-19{font-size:8.93px;}.cls-20{font-size:8.93px;}.cls-21{font-size:8.93px;}.cls-22{font-size:8.93px;}.cls-23{font-size:8.93px;}.cls-24{font-size:8.93px;}.cls-25{font-size:8.93px;}.cls-26{font-size:8.93px;}.cls-27{font-size:8.93px;}.cls-28{font-size:8.93px;}.cls-29{font-size:8.93px;}.cls-30{font-size:8.93px;}.cls-31{font-size:8.93px;}.cls-32{font-size:8.93px;}.cls-33{font-size:8.93px;}.cls-34{font-size:8.93px;}.cls-35{font-size:8.93px;}.cls-36{font-size:8.93px;}.cls-37{font-size:8.93px;}.cls-39,.cls-43,.cls-57,.cls-58{fill-rule:evenodd;}.cls-40{stroke:#e21e30;stroke-width:0.62px;}.cls-41{stroke:#414042;stroke-width:0.56px;}.cls-42{stroke:#231f20;stroke-width:0.5px;}.cls-43{fill:#eb1c2d;}.cls-44{clip-path:url(#clip-path-8);}.cls-45{mix-blend-mode:multiply;}.cls-46{clip-path:url(#clip-path-9);}.cls-47{clip-path:url(#clip-path-10);}.cls-48{mask:url(#mask);}.cls-49{clip-path:url(#clip-path-12);}.cls-50{fill:url(#linear-gradient-4);}.cls-51{clip-path:url(#clip-path-14);}.cls-52{clip-path:url(#clip-path-15);}.cls-53{clip-path:url(#clip-path-16);}.cls-54{mask:url(#mask-2);}.cls-55{clip-path:url(#clip-path-18);}.cls-56{fill:url(#linear-gradient-5);}.cls-57{fill:#e02829;}</style><clipPath id="clip-path"><rect class="cls-3" x="189.56" y="90.45" width="16.01" height="16.04" transform="translate(-0.05 196.85) rotate(-52.96)"></rect></clipPath><linearGradient id="linear-gradient" x1="5.12" y1="125.96" x2="5.74" y2="125.96" gradientTransform="translate(272.52 2045.64) rotate(180) scale(13.67 15.46)" gradientUnits="userSpaceOnUse"><stop offset="0" stop-color="#fff"></stop><stop offset="0.13" stop-color="#cfcecf"></stop><stop offset="0.3" stop-color="#9b9a9a"></stop><stop offset="0.46" stop-color="#706e6e"></stop><stop offset="0.61" stop-color="#4f4b4c"></stop><stop offset="0.76" stop-color="#373334"></stop><stop offset="0.89" stop-color="#282425"></stop><stop offset="1" stop-color="#231f20"></stop></linearGradient><clipPath id="clip-path-2"><rect class="cls-3" x="189.54" y="95.17" width="16.04" height="16.01" transform="translate(-22.29 139.84) rotate(-37.04)"></rect></clipPath><linearGradient id="linear-gradient-2" x1="5.52" y1="114.31" x2="6.15" y2="114.31" gradientTransform="matrix(0, -13.67, 15.46, 0, -1569.49, 183.68)" xlink:href="#linear-gradient"></linearGradient><clipPath id="clip-path-3"><rect class="cls-3" x="3.39" y="9.38" width="343.22" height="101.25"></rect></clipPath><clipPath id="clip-path-5"><path class="cls-3" d="M3.66,60A50.35,50.35,0,1,0,54,9.65,50.41,50.41,0,0,0,3.66,60"></path></clipPath><linearGradient id="linear-gradient-3" x1="-0.02" y1="119.97" x2="0.6" y2="119.97" gradientTransform="translate(7.59 -19306.66) scale(161.42)" gradientUnits="userSpaceOnUse"><stop offset="0" stop-color="#231f20"></stop><stop offset="0.13" stop-color="#252123"></stop><stop offset="0.21" stop-color="#2d2a2b"></stop><stop offset="0.28" stop-color="#3b3839"></stop><stop offset="0.34" stop-color="#4e4c4e"></stop><stop offset="0.39" stop-color="#676668"></stop><stop offset="0.44" stop-color="#868688"></stop><stop offset="0.49" stop-color="#a9abae"></stop><stop offset="0.5" stop-color="#b1b3b6"></stop><stop offset="0.51" stop-color="#a3a5a7"></stop><stop offset="0.52" stop-color="#959799"></stop><stop offset="0.53" stop-color="#8c8e91"></stop><stop offset="0.55" stop-color="#8a8c8e"></stop><stop offset="0.56" stop-color="#848688"></stop><stop offset="0.61" stop-color="#666668"></stop><stop offset="0.66" stop-color="#4e4c4e"></stop><stop offset="0.72" stop-color="#3b3839"></stop><stop offset="0.79" stop-color="#2d2a2b"></stop><stop offset="0.87" stop-color="#252223"></stop><stop offset="1" stop-color="#231f20"></stop></linearGradient><clipPath id="clip-path-8"><path class="cls-3" d="M196.42,96.56c-1.67.85-2.76,1.92-2.76,3.27,5.35.56,5.61-1,7.81-2.33a11,11,0,0,0-4.81-.94h-.24"></path></clipPath><clipPath id="clip-path-9"><rect class="cls-3" x="186.34" y="87.24" width="22.45" height="22.45"></rect></clipPath><clipPath id="clip-path-10"><rect class="cls-3" x="193.67" y="94.19" width="7.78" height="8.56" transform="translate(-0.05 196.84) rotate(-52.96)"></rect></clipPath><mask id="mask" x="175.55" y="76.45" width="44.04" height="44.04" maskUnits="userSpaceOnUse"><rect x="186.34" y="87.25" width="22.45" height="22.45"></rect><g class="cls-1"><g class="cls-2"><rect class="cls-4" x="181.84" y="82.75" width="31.44" height="31.44" transform="translate(-0.05 196.85) rotate(-52.96)"></rect></g></g></mask><clipPath id="clip-path-12"><rect class="cls-3" x="189.56" y="90.45" width="16.01" height="16.04" transform="translate(-0.05 196.85) rotate(-52.96)"></rect></clipPath><linearGradient id="linear-gradient-4" x1="5.12" y1="125.96" x2="5.74" y2="125.96" gradientTransform="translate(272.52 2045.65) rotate(180) scale(13.67 15.46)" gradientUnits="userSpaceOnUse"><stop offset="0" stop-color="#383636"></stop><stop offset="1" stop-color="#383636"></stop></linearGradient><clipPath id="clip-path-14"><path class="cls-3" d="M193.66,101.81c0,1.35,1.09,2.43,2.76,3.27a11.34,11.34,0,0,0,5.05-.93c-1.88-1.16-2.34-2.45-5.78-2.45a19.56,19.56,0,0,0-2,.11"></path></clipPath><clipPath id="clip-path-15"><rect class="cls-3" x="186.34" y="91.96" width="22.45" height="22.45"></rect></clipPath><clipPath id="clip-path-16"><rect class="cls-3" x="193.29" y="99.29" width="8.56" height="7.78" transform="translate(-22.29 139.83) rotate(-37.04)"></rect></clipPath><mask id="mask-2" x="175.55" y="81.16" width="44.04" height="44.04" maskUnits="userSpaceOnUse"><rect x="186.34" y="91.96" width="22.45" height="22.45"></rect><g class="cls-1"><g class="cls-5"><rect class="cls-6" x="181.84" y="87.46" width="31.44" height="31.44" transform="translate(-22.29 139.84) rotate(-37.04)"></rect></g></g></mask><clipPath id="clip-path-18"><rect class="cls-3" x="189.54" y="95.17" width="16.04" height="16.01" transform="translate(-22.29 139.83) rotate(-37.04)"></rect></clipPath><linearGradient id="linear-gradient-5" x1="5.52" y1="114.31" x2="6.15" y2="114.31" gradientTransform="matrix(0, -13.67, 15.46, 0, -1569.49, 183.68)" xlink:href="#linear-gradient-4"></linearGradient></defs><title>iths</title><g class="cls-1"><g id="Layer_1" data-name="Layer 1"><g class="cls-7"><g class="cls-7"><g class="cls-8"><rect class="cls-9" x="-17.19" y="-11.2" width="142.4" height="142.4" transform="translate(-26.61 55.76) rotate(-45)"></rect></g><g class="cls-7"><path class="cls-10" d="M54,9.93A50.07,50.07,0,1,1,3.94,60,50.07,50.07,0,0,1,54,9.93m0-.55A50.62,50.62,0,1,0,104.63,60,50.68,50.68,0,0,0,54,9.38"></path><path class="cls-11" d="M17.06,60A36.95,36.95,0,1,0,54,23.05,37,37,0,0,0,17.06,60"></path><path class="cls-11" d="M19.29,60A34.78,34.78,0,1,0,54.07,25.21,34.78,34.78,0,0,0,19.29,60"></path><path class="cls-12" d="M19.29,60A34.78,34.78,0,1,0,54.07,25.21,34.78,34.78,0,0,0,19.29,60Z"></path></g><text class="cls-13" transform="matrix(-0.28, -0.96, 0.96, -0.28, 15.68, 72.99)">I</text><text class="cls-14" transform="translate(14.34 68.71) rotate(-97.27)">N</text><text class="cls-15" transform="translate(13.49 60.67) rotate(-87.46)">F</text><text class="cls-15" transform="translate(13.82 54.59) rotate(-77.32)">O</text><text class="cls-16" transform="translate(15.68 46.52) rotate(-66.37)">R</text><text class="cls-17" transform="translate(18.62 40.02) rotate(-54.75)">M</text><text class="cls-18" transform="matrix(0.73, -0.69, 0.69, 0.73, 24.21, 32.51)">A</text><text class="cls-19" transform="matrix(0.82, -0.57, 0.57, 0.82, 28.74, 28.28)">T</text><text class="cls-20" transform="matrix(0.9, -0.44, 0.44, 0.9, 34.43, 24.27)">I</text><text class="cls-21" transform="translate(38.56 22.35) rotate(-17.28)">O</text><text class="cls-22" transform="translate(46.46 19.95) rotate(-5.84)">N</text><text class="cls-23" transform="translate(57.72 19.56) rotate(9.05)">T</text><text class="cls-24" transform="translate(64.48 20.74) rotate(18.67)">E</text><text class="cls-19" transform="matrix(0.88, 0.48, -0.48, 0.88, 70.72, 22.97)">C</text><text class="cls-25" transform="matrix(0.77, 0.64, -0.64, 0.77, 77.12, 26.51)">H</text><text class="cls-26" transform="matrix(0.63, 0.78, -0.78, 0.63, 83.46, 31.99)">N</text><text class="cls-27" transform="translate(88.3 38.11) rotate(62.44)">O</text><text class="cls-28" transform="translate(92.09 45.71) rotate(72.88)">L</text><text class="cls-29" transform="translate(93.78 51.47) rotate(82.94)">O</text><text class="cls-30" transform="translate(94.67 59.69) rotate(94.12)">G</text><text class="cls-31" transform="translate(93.97 67.46) rotate(104.12)">Y</text><text class="cls-32" transform="translate(29.5 99.45) rotate(29.25)">S</text><text class="cls-33" transform="translate(35.97 102.76) rotate(18.96)">C</text><text class="cls-34" transform="translate(44.74 105.34) rotate(6.84)">H</text><text class="cls-35" transform="translate(55.26 106.52) rotate(-5.62)">O</text><text class="cls-36" transform="translate(65.13 105.02) rotate(-18.21)">O</text><text class="cls-37" transform="translate(74.51 101.49) rotate(-29.57)">L</text><g class="cls-7"><polygon class="cls-38" points="94.54 76.86 93.62 74.56 92.72 76.87 90.23 77.01 92.16 78.59 91.56 81 93.64 79.65 95.73 80.96 95.1 78.58 97.04 76.98 94.54 76.86"></polygon><polygon class="cls-38" points="89.68 85.17 88.84 83.06 88.02 85.17 85.74 85.3 87.5 86.75 86.95 88.96 88.86 87.72 90.77 88.92 90.2 86.74 91.97 85.27 89.68 85.17"></polygon><polygon class="cls-38" points="83.06 92.52 82.32 90.68 81.6 92.52 79.61 92.63 81.15 93.9 80.67 95.83 82.34 94.75 84 95.79 83.51 93.89 85.05 92.61 83.06 92.52"></polygon><polygon class="cls-38" points="13.96 77.41 14.88 75.11 15.78 77.42 18.27 77.55 16.34 79.14 16.95 81.55 14.86 80.2 12.78 81.51 13.4 79.13 11.47 77.53 13.96 77.41"></polygon><polygon class="cls-38" points="18.79 85.55 19.63 83.44 20.45 85.55 22.73 85.67 20.97 87.13 21.52 89.34 19.61 88.1 17.7 89.3 18.27 87.11 16.5 85.66 18.79 85.55"></polygon><polygon class="cls-38" points="25.4 92.53 26.14 90.69 26.85 92.54 28.84 92.65 27.3 93.92 27.79 95.85 26.12 94.77 24.45 95.81 24.95 93.91 23.4 92.63 25.4 92.53"></polygon><path class="cls-38" d="M53.58,52.73V68.48c-3-4.29-10-5.47-10-5.47V45.94s10,2.81,10,6.79"></path><path class="cls-38" d="M42.57,49.51H39.76V68c8.56-.5,13.82,2,13.82,2s-2.83-5.16-11-6Z"></path><path class="cls-38" d="M54.62,52.73V68.48c3-4.29,10-5.47,10-5.47V45.94s-10,2.81-10,6.79"></path><path class="cls-38" d="M65.62,49.51h2.82V68c-8.56-.5-13.82,2-13.82,2s2.83-5.16,11-6Z"></path><path class="cls-39" d="M71,39.67A26.11,26.11,0,0,1,57,85.32c3.43.46,6,1.7,6.37,3.2l-2,1.06a1.66,1.66,0,0,0,0-.24c0-2.11-3.26-3.83-7.24-3.83s-7.24,1.72-7.24,3.83a1.66,1.66,0,0,0,0,.24l-2-1.06c.37-1.5,2.94-2.74,6.37-3.2A26.11,26.11,0,0,1,37.16,39.67,26.09,26.09,0,0,0,28.68,59c0,14.28,11.42,25.93,25.42,25.93S79.51,73.24,79.51,59A26.08,26.08,0,0,0,71,39.67"></path><path class="cls-38" d="M33.64,69.31a3.4,3.4,0,0,1,.2-1.1,2.46,2.46,0,0,1,.51-.9.13.13,0,0,1,.2.15,2.54,2.54,0,0,0-.48.84,3.28,3.28,0,0,0-.18,1c0,.17-.25.15-.25,0m-.35,3.09a6.15,6.15,0,0,0,2.8-3.7,6.71,6.71,0,0,0-1-4.39,10.07,10.07,0,0,1-.89,2,7.5,7.5,0,0,0-.94,2.27,9.57,9.57,0,0,0-.16,2.08,8.07,8.07,0,0,0,.21,1.75"></path><path class="cls-38" d="M36.92,74.71a3.24,3.24,0,0,1-.12-1.11,2.71,2.71,0,0,1,.24-1,.13.13,0,0,1,.23.1,2.58,2.58,0,0,0-.22.93,3.42,3.42,0,0,0,.11,1c.05.16-.2.21-.24,0m.51,3.06a6.08,6.08,0,0,0,1.66-4.33,6.66,6.66,0,0,0-2.19-3.93,10.31,10.31,0,0,1-.31,2.15,7.66,7.66,0,0,0-.26,2.45,9.85,9.85,0,0,0,.41,2,9.39,9.39,0,0,0,.69,1.63"></path><path class="cls-38" d="M26.87,63.69a4.37,4.37,0,0,0-.65-1.13,3.68,3.68,0,0,0-.91-.79.14.14,0,1,0-.15.24,3.14,3.14,0,0,1,.84.73,4,4,0,0,1,.62,1,.14.14,0,1,0,.25-.1m1.65,3.19a7.45,7.45,0,0,1-4.45-3,7.72,7.72,0,0,1-.76-5.08,12.74,12.74,0,0,0,1.76,1.82A9.83,9.83,0,0,1,27,62.75a12.81,12.81,0,0,1,1,2.17,9.91,9.91,0,0,1,.5,2"></path><path class="cls-38" d="M37.43,81.64a4.75,4.75,0,0,0-1.36-.46,3.82,3.82,0,0,0-1.35,0,.15.15,0,1,0,.05.3,4,4,0,0,1,1.24,0,4.73,4.73,0,0,1,1.28.44.15.15,0,1,0,.14-.27m3.7,1.48c-2.34,1-4.26,1.25-5.92.71a8.55,8.55,0,0,1-4.32-3.7,13.8,13.8,0,0,0,2.8.25,10.35,10.35,0,0,1,3.15.39,14.19,14.19,0,0,1,2.44,1.07,11.83,11.83,0,0,1,1.85,1.28"></path><path class="cls-38" d="M32.18,76.66A4.6,4.6,0,0,0,31,75.93a4.12,4.12,0,0,0-1.23-.31.15.15,0,1,0,0,.29,3.54,3.54,0,0,1,1.13.28,4.35,4.35,0,0,1,1.07.69.15.15,0,1,0,.19-.22m3,2.17a7.77,7.77,0,0,1-5.56-.67,8.06,8.06,0,0,1-3.11-4.34,13.11,13.11,0,0,0,2.49.85,9.81,9.81,0,0,1,2.79,1.07,12.65,12.65,0,0,1,2,1.52,11.17,11.17,0,0,1,1.4,1.57"></path><path class="cls-38" d="M28.56,70.39a4.87,4.87,0,0,0-.91-1,3.69,3.69,0,0,0-1.1-.62.14.14,0,1,0-.09.27,3.46,3.46,0,0,1,1,.58,4.24,4.24,0,0,1,.85.94.14.14,0,1,0,.24-.16m2.35,2.91a7.8,7.8,0,0,1-5.18-2.13,8,8,0,0,1-1.84-5,12.61,12.61,0,0,0,2.18,1.49,10.38,10.38,0,0,1,2.41,1.77,13.46,13.46,0,0,1,1.51,2,11.16,11.16,0,0,1,.92,1.89"></path><path class="cls-38" d="M26.5,56.38a4.13,4.13,0,0,0-.3-1.21,3.46,3.46,0,0,0-.63-1,.13.13,0,1,0-.19.17,3.37,3.37,0,0,1,.58.9,3.92,3.92,0,0,1,.28,1.12.13.13,0,1,0,.26,0m.67,3.35a7.16,7.16,0,0,1-3.29-3.93A7.37,7.37,0,0,1,24.53,51a11.89,11.89,0,0,0,1.13,2.13,8.91,8.91,0,0,1,1.19,2.46,11.54,11.54,0,0,1,.37,2.26,9.87,9.87,0,0,1,0,1.92"></path><path class="cls-38" d="M28.22,49.25a4.46,4.46,0,0,0,0-1.21A3,3,0,0,0,27.86,47a.13.13,0,1,0-.22.12,3,3,0,0,1,.33,1,4,4,0,0,1,0,1.14.13.13,0,1,0,.25,0M28,52.59a7,7,0,0,1-2.17-4.52,7.24,7.24,0,0,1,1.79-4.43,12.79,12.79,0,0,0,.55,2.29,8.67,8.67,0,0,1,.54,2.62,11,11,0,0,1-.2,2.23A10.76,10.76,0,0,1,28,52.59"></path><path class="cls-38" d="M31.52,43.09A4,4,0,0,0,31.77,42a2.76,2.76,0,0,0-.11-1c-.05-.16-.29-.1-.24.06a2.59,2.59,0,0,1,.1,1,3.31,3.31,0,0,1-.24,1c-.06.15.17.24.24.08M30.64,46a6,6,0,0,1-1.11-4.45A6.58,6.58,0,0,1,32.17,38a10.28,10.28,0,0,0,0,2.16,7.71,7.71,0,0,1,0,2.44,10.86,10.86,0,0,1-.66,2,8.88,8.88,0,0,1-.87,1.5"></path><path class="cls-38" d="M36.07,38.2a3.61,3.61,0,0,0,.48-.91,2.85,2.85,0,0,0,.14-1,.12.12,0,0,0-.24,0,2.37,2.37,0,0,1-.12.89,3,3,0,0,1-.46.87c-.09.12.1.25.2.12m-1.49,2.48a5.65,5.65,0,0,1,0-4.31,6.18,6.18,0,0,1,3.24-2.66,9.38,9.38,0,0,0-.46,2,7.14,7.14,0,0,1-.61,2.22,9.64,9.64,0,0,1-1.05,1.62,8.54,8.54,0,0,1-1.15,1.17"></path><path class="cls-38" d="M38.54,41.82a3.21,3.21,0,0,1,1-.3,2.67,2.67,0,0,1,1,0,.12.12,0,0,1,0,.23,2.29,2.29,0,0,0-.9,0,3.12,3.12,0,0,0-.93.28c-.14.07-.23-.15-.09-.21m-2.72,1a5.7,5.7,0,0,0,4.24.8,6.17,6.17,0,0,0,3.24-2.67,10,10,0,0,1-2,.08,6.88,6.88,0,0,0-2.29.17,9.93,9.93,0,0,0-1.8.71,8.79,8.79,0,0,0-1.37.91"></path><path class="cls-38" d="M35.11,46.36a3.66,3.66,0,0,1,1-.49,2.92,2.92,0,0,1,1-.11.13.13,0,0,1,0,.25,2.45,2.45,0,0,0-.94.1,3.36,3.36,0,0,0-.93.46.12.12,0,1,1-.13-.21m-2.68,1.5A6,6,0,0,0,37,48,6.56,6.56,0,0,0,40,44.61a10.69,10.69,0,0,1-2.11.43,7.46,7.46,0,0,0-2.37.57,10.12,10.12,0,0,0-1.76,1.06,8.86,8.86,0,0,0-1.28,1.19"></path><path class="cls-38" d="M32.4,51.81a3.57,3.57,0,0,1,.85-.7,2.45,2.45,0,0,1,1-.35.12.12,0,0,1,.05.24,2.48,2.48,0,0,0-.9.32,3.65,3.65,0,0,0-.8.67c-.11.12-.28-.05-.17-.18m-2.25,2.1a6,6,0,0,0,4.48-1,6.6,6.6,0,0,0,2-4,10.25,10.25,0,0,1-1.94.91A7.47,7.47,0,0,0,32.57,51a10,10,0,0,0-1.46,1.45,8.65,8.65,0,0,0-1,1.46"></path><path class="cls-38" d="M31.32,57.81a3.42,3.42,0,0,1,.67-.88,2.84,2.84,0,0,1,.85-.58.13.13,0,0,1,.11.23,2.44,2.44,0,0,0-.79.53,3.16,3.16,0,0,0-.62.83c-.08.15-.3,0-.22-.13m-1.7,2.56a6,6,0,0,0,4.13-2A6.6,6.6,0,0,0,34.83,54a10.07,10.07,0,0,1-1.68,1.34A7.56,7.56,0,0,0,31.3,57a10.52,10.52,0,0,0-1.08,1.75,9.53,9.53,0,0,0-.6,1.64"></path><path class="cls-38" d="M41.54,78.36a3.89,3.89,0,0,1-.32-1.14,3.16,3.16,0,0,1,.07-1.1.13.13,0,1,1,.26.06,2.67,2.67,0,0,0-.07,1,3.63,3.63,0,0,0,.3,1.07c.08.16-.16.26-.24.1m1.07,3.1a6.39,6.39,0,0,0,1-4.81,7,7,0,0,0-3-3.72,10.53,10.53,0,0,1,0,2.3,8.26,8.26,0,0,0,.16,2.61,11.38,11.38,0,0,0,.79,2,10,10,0,0,0,1,1.57"></path><path class="cls-38" d="M41.55,37.17a3.87,3.87,0,0,1,1.06-.52,3.1,3.1,0,0,1,1.1-.11.13.13,0,1,1,0,.26,2.78,2.78,0,0,0-1,.11,3.42,3.42,0,0,0-1,.48.13.13,0,1,1-.14-.22m-2.86,1.58a6.45,6.45,0,0,0,4.89.14,7.08,7.08,0,0,0,3.14-3.57,10.8,10.8,0,0,1-2.25.45,7.91,7.91,0,0,0-2.53.6,11.55,11.55,0,0,0-1.88,1.13,10.8,10.8,0,0,0-1.37,1.25"></path><path class="cls-38" d="M32,63.44a3.48,3.48,0,0,1,.46-1,2.81,2.81,0,0,1,.73-.73c.14-.09.28.11.14.2a2.51,2.51,0,0,0-.66.68,3.2,3.2,0,0,0-.45.93.12.12,0,1,1-.22-.08M30.85,66.3a6.11,6.11,0,0,0,3.64-2.8A6.68,6.68,0,0,0,34.66,59a10,10,0,0,1-1.37,1.66,7.59,7.59,0,0,0-1.49,1.94,10.55,10.55,0,0,0-.7,1.93,8.38,8.38,0,0,0-.25,1.73"></path><path class="cls-38" d="M74.56,69.31a3.68,3.68,0,0,0-.19-1.1,2.82,2.82,0,0,0-.52-.9.13.13,0,1,0-.2.15,2.54,2.54,0,0,1,.48.84,3.28,3.28,0,0,1,.18,1c0,.17.25.15.25,0m.36,3.09a6.13,6.13,0,0,1-2.81-3.7,6.65,6.65,0,0,1,1-4.39,10.07,10.07,0,0,0,.89,2A7.49,7.49,0,0,1,75,68.57a9.87,9.87,0,0,1,0,3.83"></path><path class="cls-38" d="M71.28,74.71a3.82,3.82,0,0,0,.12-1.11,2.91,2.91,0,0,0-.24-1,.13.13,0,0,0-.23.1,2.8,2.8,0,0,1,.22.93,3.75,3.75,0,0,1-.11,1c-.05.16.2.21.24,0m-.51,3.06a6.1,6.1,0,0,1-1.67-4.33,6.73,6.73,0,0,1,2.2-3.93,10.31,10.31,0,0,0,.31,2.15,8,8,0,0,1,.26,2.45,9.22,9.22,0,0,1-.42,2,8.7,8.7,0,0,1-.68,1.63"></path><path class="cls-38" d="M81.33,63.69A4.37,4.37,0,0,1,82,62.56a3.68,3.68,0,0,1,.91-.79A.14.14,0,1,1,83,62a3.35,3.35,0,0,0-.85.73,4.24,4.24,0,0,0-.61,1,.14.14,0,1,1-.25-.1m-1.66,3.19a7.44,7.44,0,0,0,4.46-3,7.78,7.78,0,0,0,.76-5.08,13.25,13.25,0,0,1-1.75,1.82,9.62,9.62,0,0,0-1.93,2.13,12.81,12.81,0,0,0-1,2.17,10.76,10.76,0,0,0-.51,2"></path><path class="cls-38" d="M70.77,81.64a4.75,4.75,0,0,1,1.36-.46,3.82,3.82,0,0,1,1.35,0,.15.15,0,1,1-.06.3,4,4,0,0,0-1.24,0,4.78,4.78,0,0,0-1.27.44.15.15,0,1,1-.14-.27m-3.7,1.48c2.34,1,4.25,1.25,5.92.71a8.55,8.55,0,0,0,4.32-3.7,13.8,13.8,0,0,1-2.8.25,10.39,10.39,0,0,0-3.15.39,14.31,14.31,0,0,0-2.45,1.07,12.19,12.19,0,0,0-1.84,1.28"></path><path class="cls-38" d="M76,76.66a4.6,4.6,0,0,1,1.14-.73,4.12,4.12,0,0,1,1.23-.31.15.15,0,1,1,0,.29,3.47,3.47,0,0,0-1.13.28,4.35,4.35,0,0,0-1.07.69.15.15,0,1,1-.19-.22m-3,2.17a7.78,7.78,0,0,0,5.56-.67,8.06,8.06,0,0,0,3.11-4.34,13.35,13.35,0,0,1-2.49.85,9.87,9.87,0,0,0-2.8,1.07,13,13,0,0,0-2,1.52A11.17,11.17,0,0,0,73,78.83"></path><path class="cls-38" d="M79.64,70.39a4.6,4.6,0,0,1,.91-1,3.77,3.77,0,0,1,1.09-.62.14.14,0,1,1,.1.27,3.65,3.65,0,0,0-1,.58,4.45,4.45,0,0,0-.84.94.14.14,0,1,1-.24-.16M77.29,73.3a7.82,7.82,0,0,0,5.18-2.13,8.11,8.11,0,0,0,1.84-5,13,13,0,0,1-2.18,1.49,10,10,0,0,0-2.41,1.77,13.46,13.46,0,0,0-1.51,2,11.16,11.16,0,0,0-.92,1.89"></path><path class="cls-38" d="M81.7,56.38a4.47,4.47,0,0,1,.3-1.21,3.25,3.25,0,0,1,.63-1,.13.13,0,1,1,.19.17,3.37,3.37,0,0,0-.58.9A3.92,3.92,0,0,0,82,56.4a.13.13,0,1,1-.26,0M81,59.73a7.12,7.12,0,0,0,3.29-3.93A7.37,7.37,0,0,0,83.67,51a11.89,11.89,0,0,1-1.13,2.13,8.91,8.91,0,0,0-1.19,2.46A11.54,11.54,0,0,0,81,57.81a9.87,9.87,0,0,0,0,1.92"></path><path class="cls-38" d="M80,49.25A4.09,4.09,0,0,1,80,48,3.2,3.2,0,0,1,80.33,47a.13.13,0,1,1,.23.12,3,3,0,0,0-.33,1,4,4,0,0,0,0,1.14.13.13,0,1,1-.25,0m.19,3.34a7,7,0,0,0,2.16-4.52,7.2,7.2,0,0,0-1.8-4.43A11.29,11.29,0,0,1,80,45.93a9,9,0,0,0-.53,2.62,11,11,0,0,0,.2,2.23,9.13,9.13,0,0,0,.52,1.81"></path><path class="cls-38" d="M76.69,43.09A3.41,3.41,0,0,1,76.43,42a2.76,2.76,0,0,1,.11-1c0-.16.29-.1.24.06a2.59,2.59,0,0,0-.1,1,3.6,3.6,0,0,0,.23,1,.12.12,0,1,1-.22.08M77.56,46a6.05,6.05,0,0,0,1.11-4.45A6.58,6.58,0,0,0,76,38a10.28,10.28,0,0,1,0,2.16,7.42,7.42,0,0,0,0,2.44,10.13,10.13,0,0,0,.66,2,8.88,8.88,0,0,0,.87,1.5"></path><path class="cls-38" d="M72.13,38.2a3.61,3.61,0,0,1-.48-.91,2.85,2.85,0,0,1-.14-1c0-.15.24-.15.23,0a2.59,2.59,0,0,0,.13.89,3,3,0,0,0,.46.87c.09.12-.1.25-.2.12m1.49,2.48a5.65,5.65,0,0,0,0-4.31,6.22,6.22,0,0,0-3.24-2.66,10.05,10.05,0,0,1,.46,2,6.88,6.88,0,0,0,.61,2.22,9.64,9.64,0,0,0,1,1.62,8.54,8.54,0,0,0,1.15,1.17"></path><path class="cls-38" d="M69.66,41.82a3.21,3.21,0,0,0-1-.3,2.67,2.67,0,0,0-1,0,.12.12,0,0,0,0,.23,2.28,2.28,0,0,1,.9,0,3.12,3.12,0,0,1,.93.28c.14.07.23-.15.09-.21m2.72,1a5.72,5.72,0,0,1-4.25.8,6.16,6.16,0,0,1-3.23-2.67,10,10,0,0,0,2,.08,6.88,6.88,0,0,1,2.29.17,9.54,9.54,0,0,1,1.79.71,8.46,8.46,0,0,1,1.38.91"></path><path class="cls-38" d="M73.09,46.36a3.66,3.66,0,0,0-1-.49,2.91,2.91,0,0,0-1-.11c-.17,0-.16.26,0,.25a2.51,2.51,0,0,1,1,.1,3.36,3.36,0,0,1,.93.46.12.12,0,1,0,.13-.21m2.68,1.5a6,6,0,0,1-4.58.1,6.56,6.56,0,0,1-2.94-3.35,10.55,10.55,0,0,0,2.11.43,7.46,7.46,0,0,1,2.37.57,10.12,10.12,0,0,1,1.76,1.06,8.86,8.86,0,0,1,1.28,1.19"></path><path class="cls-38" d="M75.8,51.81a3.57,3.57,0,0,0-.85-.7,2.45,2.45,0,0,0-1-.35.12.12,0,0,0,0,.24,2.48,2.48,0,0,1,.9.32,3.65,3.65,0,0,1,.8.67c.11.12.28-.05.17-.18m2.25,2.1a6,6,0,0,1-4.48-1,6.61,6.61,0,0,1-2.06-4,10.62,10.62,0,0,0,1.95.91A7.47,7.47,0,0,1,75.63,51a9.45,9.45,0,0,1,1.45,1.45,8.18,8.18,0,0,1,1,1.46"></path><path class="cls-38" d="M76.88,57.81a3.42,3.42,0,0,0-.67-.88,2.77,2.77,0,0,0-.86-.58.13.13,0,1,0-.1.23,2.44,2.44,0,0,1,.79.53,3.4,3.4,0,0,1,.62.83c.08.15.3,0,.22-.13m1.69,2.56a6,6,0,0,1-4.12-2A6.6,6.6,0,0,1,73.37,54a10.07,10.07,0,0,0,1.68,1.34A7.56,7.56,0,0,1,76.9,57,9.81,9.81,0,0,1,78,58.73a8.1,8.1,0,0,1,.6,1.64"></path><path class="cls-38" d="M66.66,78.36A3.6,3.6,0,0,0,67,77.22a3.16,3.16,0,0,0-.07-1.1.13.13,0,1,0-.26.06,2.67,2.67,0,0,1,.07,1,3.37,3.37,0,0,1-.31,1.07c-.07.16.17.26.25.1m-1.08,3.1a6.44,6.44,0,0,1-1-4.81,7.1,7.1,0,0,1,3-3.72,10.53,10.53,0,0,0,0,2.3,8.26,8.26,0,0,1-.16,2.61,11.38,11.38,0,0,1-.79,2,9.28,9.28,0,0,1-1,1.57"></path><path class="cls-38" d="M66.65,37.17a3.93,3.93,0,0,0-1.07-.52,3,3,0,0,0-1.09-.11c-.18,0-.16.28,0,.26a2.81,2.81,0,0,1,1,.11,3.54,3.54,0,0,1,1,.48c.15.1.28-.12.14-.22m2.86,1.58a6.45,6.45,0,0,1-4.89.14,7.08,7.08,0,0,1-3.14-3.57,10.67,10.67,0,0,0,2.25.45,7.91,7.91,0,0,1,2.53.6,11.55,11.55,0,0,1,1.88,1.13,10.8,10.8,0,0,1,1.37,1.25"></path><path class="cls-38" d="M76.21,63.44a3.81,3.81,0,0,0-.47-1,2.81,2.81,0,0,0-.73-.73c-.14-.09-.29.11-.15.2a2.55,2.55,0,0,1,.67.68,3.18,3.18,0,0,1,.44.93.13.13,0,1,0,.24-.08m1.14,2.86a6.11,6.11,0,0,1-3.64-2.8A6.68,6.68,0,0,1,73.54,59a9.54,9.54,0,0,0,1.37,1.66,7.34,7.34,0,0,1,1.48,1.94,9.92,9.92,0,0,1,.71,1.93,9.12,9.12,0,0,1,.25,1.73"></path><path class="cls-38" d="M54.07,78.69l-3.78,2.12,1-6.1a4.22,4.22,0,0,1-1.41-3.28,4.29,4.29,0,0,1,4.27-4.17h.1a4.28,4.28,0,0,1,3,1.32,4.28,4.28,0,0,1-.33,6.22l1,6Z"></path><path class="cls-11" d="M54.09,67.75h.1a3.78,3.78,0,0,1,2.14,6.84l.84,5.31-3.09-1.77L50.92,79.9l.84-5.39a3.78,3.78,0,0,1,2.33-6.76m0-1a4.76,4.76,0,0,0-3.37,8.12L50,79.75l-.31,2,1.75-1,2.67-1.5,2.61,1.5,1.76,1-.31-2L57.38,75a4.77,4.77,0,0,0-3.17-8.21Z"></path><path class="cls-11" d="M60.3,57.84a6.2,6.2,0,1,1-6.2-6.2,6.2,6.2,0,0,1,6.2,6.2"></path><path class="cls-40" d="M60.3,57.84a6.2,6.2,0,1,1-6.2-6.2A6.2,6.2,0,0,1,60.3,57.84Z"></path><path class="cls-38" d="M58.26,53.42l-.3-.27c0,.11.09.22.14.33a1,1,0,0,0,.16-.06"></path><path class="cls-38" d="M57.8,53.59a8.58,8.58,0,0,0-.37-.82,5.89,5.89,0,0,0-2-.85A12.32,12.32,0,0,1,56.36,54a11.76,11.76,0,0,0,1.44-.39"></path><path class="cls-38" d="M51.73,54.31a12.79,12.79,0,0,1-1.47-.4,11.94,11.94,0,0,0-.45,1.55,11.25,11.25,0,0,0,1.56.49,12.58,12.58,0,0,1,.36-1.64"></path><path class="cls-38" d="M51.23,57.85a11.91,11.91,0,0,1,.1-1.59,12.87,12.87,0,0,1-1.57-.48,11.14,11.14,0,0,0-.16,1.84c0,.09,0,.18,0,.28h1.62Z"></path><path class="cls-38" d="M51.24,58.21H49.63A10.45,10.45,0,0,0,50,60.38a10.66,10.66,0,0,1,1.46-.44,11.17,11.17,0,0,1-.19-1.73"></path><path class="cls-38" d="M50,53.8a1.31,1.31,0,0,1-.28-.09A6.5,6.5,0,0,0,48.77,55c.24.13.5.24.75.35A10.43,10.43,0,0,1,50,53.8"></path><path class="cls-38" d="M56.56,56a12,12,0,0,0-.41-1.7,11.14,11.14,0,0,1-1.91.19v1.76A11.36,11.36,0,0,0,56.56,56"></path><path class="cls-38" d="M53.93,56.28V54.52a11.83,11.83,0,0,1-1.88-.16A11.71,11.71,0,0,0,51.68,56a12.22,12.22,0,0,0,2.25.26"></path><path class="cls-38" d="M49.31,58.21H48.08a6,6,0,0,0,.78,2.64l.81-.37a10.75,10.75,0,0,1-.36-2.27"></path><path class="cls-38" d="M50.18,53.24a2.73,2.73,0,0,0-.25.23l.14,0,.11-.27"></path><path class="cls-38" d="M49.28,57.62a10.59,10.59,0,0,1,.19-2c-.29-.12-.56-.25-.83-.39a6,6,0,0,0-.58,2.57v.06H49.3c0-.1,0-.19,0-.28"></path><path class="cls-38" d="M51.84,54a11.93,11.93,0,0,1,.91-2.07,6,6,0,0,0-2,.88c-.13.26-.25.52-.37.79a13,13,0,0,0,1.48.4"></path><path class="cls-38" d="M53.93,61.88a10.44,10.44,0,0,0-1.59.15,11.57,11.57,0,0,0,.89,1.8,4,4,0,0,0,.7.06Z"></path><path class="cls-38" d="M56.86,56a12,12,0,0,0,1.52-.46,11,11,0,0,0-.47-1.61,12.89,12.89,0,0,1-1.44.4A11.91,11.91,0,0,1,56.86,56"></path><path class="cls-38" d="M57,57.88v0h1.53c0-.1,0-.19,0-.28a11,11,0,0,0-.16-1.82,10.1,10.1,0,0,1-1.51.46A14.35,14.35,0,0,1,57,57.88"></path><path class="cls-38" d="M53.93,51.79a4.78,4.78,0,0,0-.76.08,11.09,11.09,0,0,0-1,2.18,11.78,11.78,0,0,0,1.78.16Z"></path><path class="cls-38" d="M54.24,54.21A10.77,10.77,0,0,0,56,54a11.41,11.41,0,0,0-1-2.18,6.32,6.32,0,0,0-.77-.06Z"></path><path class="cls-38" d="M56.86,60a12.5,12.5,0,0,1,1.36.4,10.85,10.85,0,0,0,.33-2.14H57A11.15,11.15,0,0,1,56.86,60"></path><path class="cls-38" d="M50,60.68a11.54,11.54,0,0,0,.54,1.42c.44-.13.88-.24,1.33-.33a11.44,11.44,0,0,1-.43-1.52,11.92,11.92,0,0,0-1.44.43"></path><path class="cls-38" d="M54.24,59.94v1.61a11.36,11.36,0,0,1,1.85.16,11.83,11.83,0,0,0,.42-1.52,11.44,11.44,0,0,0-2.27-.25"></path><path class="cls-38" d="M58.67,55.37c.27-.11.54-.24.8-.37a6,6,0,0,0-1-1.33l-.31.11a9.68,9.68,0,0,1,.47,1.59"></path><path class="cls-38" d="M56.41,61.76a9.69,9.69,0,0,1,1.21.29,8.61,8.61,0,0,0,.52-1.39,11.39,11.39,0,0,0-1.33-.4,11.05,11.05,0,0,1-.4,1.5"></path><path class="cls-38" d="M54.24,63.9a6.24,6.24,0,0,0,.88-.09A11.49,11.49,0,0,0,56,62a11.37,11.37,0,0,0-1.75-.14Z"></path><path class="cls-38" d="M51.78,60.18a11.8,11.8,0,0,0,.45,1.54,12.08,12.08,0,0,1,1.7-.16V60a11,11,0,0,0-2.15.23"></path><path class="cls-38" d="M56.3,62.06a11.91,11.91,0,0,1-.76,1.67,5.91,5.91,0,0,0,1.5-.58c.16-.27.31-.54.45-.82a12,12,0,0,0-1.19-.27"></path><path class="cls-38" d="M57.62,62.78A3.27,3.27,0,0,0,58,62.5l-.2-.07c-.06.12-.11.24-.17.35"></path><path class="cls-38" d="M57.92,62.15l.33.12a6.35,6.35,0,0,0,1-1.16c-.26-.12-.52-.24-.78-.34a10.51,10.51,0,0,1-.52,1.38"></path><path class="cls-38" d="M53.93,56.59a11.73,11.73,0,0,1-2.29-.26,10.94,10.94,0,0,0-.1,1.51v.06h2.39Z"></path><path class="cls-38" d="M54.24,59.63a12.77,12.77,0,0,1,2.32.24,11.38,11.38,0,0,0,.15-1.66H54.24Z"></path><path class="cls-38" d="M51.56,58.21a12.81,12.81,0,0,0,.17,1.65,12.43,12.43,0,0,1,2.2-.22V58.21Z"></path><path class="cls-38" d="M54.24,57.9h2.48v0a11.28,11.28,0,0,0-.12-1.54,12.36,12.36,0,0,1-2.36.26Z"></path><path class="cls-38" d="M58.52,60.46c.29.11.58.25.86.38a6,6,0,0,0,.78-2.63H58.87a12,12,0,0,1-.35,2.25"></path><path class="cls-38" d="M49.75,60.79a7.89,7.89,0,0,0-.72.33,6.31,6.31,0,0,0,1,1.19l.26-.1a10.12,10.12,0,0,1-.54-1.42"></path><path class="cls-38" d="M58.9,57.62c0,.09,0,.18,0,.28h1.3v-.06a6.11,6.11,0,0,0-.57-2.56c-.29.15-.59.29-.89.41a11.17,11.17,0,0,1,.18,1.93"></path><path class="cls-38" d="M50.3,62.54l.23.17-.11-.21-.12,0"></path><path class="cls-38" d="M50.72,62.39c.12.24.25.47.38.7a6,6,0,0,0,1.72.67A11.8,11.8,0,0,1,52,62.07a13.19,13.19,0,0,0-1.31.32"></path><path class="cls-11" d="M53,72.8a2.12,2.12,0,0,1-.62-.37,1.91,1.91,0,0,1-.5-.72,2.51,2.51,0,0,1-.17-.92,2.2,2.2,0,0,1,2.34-2.31,3,3,0,0,1,1.3.26,2,2,0,0,1,.83.82,2.41,2.41,0,0,1,.31,1.22,2.28,2.28,0,0,1-.31,1.2,2.11,2.11,0,0,1-1,.82l1.1-.08h.24v.77H54.42v-.81a1.83,1.83,0,0,0,.51-.35,1.89,1.89,0,0,0,.38-.65,2.63,2.63,0,0,0,.13-.8,1.83,1.83,0,0,0-.38-1.25,1.27,1.27,0,0,0-1-.42,1.21,1.21,0,0,0-.95.43,1.82,1.82,0,0,0-.38,1.22,2.32,2.32,0,0,0,.15.84,1.72,1.72,0,0,0,.41.66,1.67,1.67,0,0,0,.48.32v.81H51.64v-.77H52Z"></path><line class="cls-41" x1="115.9" y1="65.67" x2="346.04" y2="65.67"></line><line class="cls-41" x1="115.9" y1="88.09" x2="346.04" y2="88.09"></line><path class="cls-42" d="M117.64,79.72a2.37,2.37,0,0,1-1.21-.29,3.81,3.81,0,0,1-.21-1.08c0-.06.16-.08.19,0a1.41,1.41,0,0,0,1.33,1.16.88.88,0,0,0,1-.89,1.16,1.16,0,0,0-.63-1.09l-.74-.48a1.64,1.64,0,0,1-.84-1.33c0-.74.57-1.33,1.58-1.33a3.21,3.21,0,0,1,.72.1,1.12,1.12,0,0,0,.27.05,3.27,3.27,0,0,1,.14.94.14.14,0,0,1-.19,0,1,1,0,0,0-1-.87.82.82,0,0,0-.93.86,1.23,1.23,0,0,0,.66,1l.62.39a1.74,1.74,0,0,1,1,1.48,1.46,1.46,0,0,1-1.65,1.44"></path><path class="cls-42" d="M121.69,75.65c0-.73,0-.87-.34-.9l-.25,0a.13.13,0,0,1,0-.19c.44,0,1-.06,1.73-.06a2.76,2.76,0,0,1,1.29.23,1.14,1.14,0,0,1,.65,1.08,1.45,1.45,0,0,1-1,1.3s0,.12,0,.18a8.49,8.49,0,0,0,1.55,2.06.91.91,0,0,0,.54.22s0,.08,0,.11a1.46,1.46,0,0,1-.35,0c-.65,0-1-.2-1.6-1-.2-.29-.52-.82-.76-1.17a.55.55,0,0,0-.55-.24c-.35,0-.36,0-.36.17v1c0,.81,0,.91.46,1l.17,0a.17.17,0,0,1,0,.2c-.35,0-.61,0-.92,0s-.61,0-1,0a.15.15,0,0,1,0-.2l.19,0c.45-.06.46-.16.46-1Zm.64,1.11a.66.66,0,0,0,0,.25s.14,0,.54,0a1.28,1.28,0,0,0,.79-.2,1.1,1.1,0,0,0,.39-1,1.14,1.14,0,0,0-1.24-1.19c-.48,0-.5,0-.5.25Z"></path><path class="cls-42" d="M127.7,75.64c0-.8,0-.92-.48-1l-.12,0s0-.17,0-.19l.91,0h1.46c.49,0,.95,0,1,0a9.7,9.7,0,0,1,.13,1,.15.15,0,0,1-.2,0c-.11-.36-.18-.63-.59-.73a3.53,3.53,0,0,0-.75,0h-.55c-.24,0-.24,0-.24.31v1.55c0,.22,0,.22.26.22H129a3,3,0,0,0,.66,0c.09,0,.14-.08.18-.27l.06-.32s.17,0,.2,0,0,.49,0,.78,0,.57,0,.75a.15.15,0,0,1-.2,0l-.07-.3a.32.32,0,0,0-.24-.29,2.58,2.58,0,0,0-.59,0h-.45c-.24,0-.26,0-.26.21v1.09c0,.41,0,.67.15.8s.25.18.94.18a2.41,2.41,0,0,0,1-.11,2,2,0,0,0,.55-.75.14.14,0,0,1,.19.05,6.51,6.51,0,0,1-.35,1.08q-1,0-2.07,0H128l-1,0a.16.16,0,0,1,0-.2l.26,0c.44,0,.48-.16.48-1Z"></path><path class="cls-42" d="M133.23,75.49c0-.54,0-.71-.37-.75l-.17,0c-.06,0-.07-.16,0-.19.66,0,1.29-.06,2-.06a5,5,0,0,1,1.7.23A2.31,2.31,0,0,1,137.92,77a2.54,2.54,0,0,1-1.35,2.31,3.79,3.79,0,0,1-1.74.38c-.49,0-1-.07-1.26-.07s-.6,0-1,0a.15.15,0,0,1,0-.2l.17,0c.45-.06.47-.16.47-1Zm.63,2.76a1.47,1.47,0,0,0,.16.85c.17.24.46.31.95.31,1.5,0,2.18-1,2.18-2.42a2.19,2.19,0,0,0-2.44-2.29,1.66,1.66,0,0,0-.77.11c-.06,0-.08.24-.08.59Z"></path><path class="cls-42" d="M144.44,78.27c0,.24,0,1.16,0,1.36a.14.14,0,0,1-.15.09c-.09-.14-.32-.41-1-1.17l-1.8-2c-.21-.24-.73-.87-.89-1h0a2,2,0,0,0,0,.5v1.69a6.11,6.11,0,0,0,.14,1.6c.05.09.2.13.4.15l.24,0a.16.16,0,0,1,0,.2l-.91,0c-.32,0-.53,0-.8,0a.15.15,0,0,1,0-.2l.21,0c.18,0,.3-.07.34-.16a7.34,7.34,0,0,0,.1-1.59V75.41a.72.72,0,0,0-.17-.56.87.87,0,0,0-.48-.18l-.13,0a.12.12,0,0,1,0-.19c.32,0,.73,0,.87,0l.36,0a11,11,0,0,0,1.32,1.7l.75.85c.54.59.92,1,1.28,1.4h0a.84.84,0,0,0,0-.33V76.42a5.33,5.33,0,0,0-.16-1.6c0-.07-.17-.11-.48-.15l-.13,0c-.05-.05,0-.17,0-.19l.91,0,.8,0a.13.13,0,0,1,0,.19l-.1,0c-.25,0-.41.1-.44.16a6.3,6.3,0,0,0-.12,1.59Z"></path><path class="cls-42" d="M147.47,75.66c0-.86-.08-1-.54-1l-.19,0c-.05,0,0-.17,0-.19l1,0,.89,0s.06.16,0,.19l-.11,0c-.46.06-.48.17-.48,1v2.87a4.58,4.58,0,0,1-.17,1.51,1.7,1.7,0,0,1-1.53,1.11c-.09,0-.33,0-.33-.16s.11-.36.27-.36a1,1,0,0,1,.29.05,1.26,1.26,0,0,0,.33,0,.34.34,0,0,0,.31-.2,6.92,6.92,0,0,0,.2-1.94Z"></path><path class="cls-42" d="M153.19,77.79c-.05-.16-.08-.19-.31-.19h-1.17c-.2,0-.24,0-.3.19l-.27.81a2.8,2.8,0,0,0-.17.64c0,.1,0,.14.22.16l.26,0a.14.14,0,0,1,0,.2c-.21,0-.45,0-.81,0s-.53,0-.74,0c0,0-.07-.16,0-.2l.26,0a.52.52,0,0,0,.46-.38c.14-.36.36-.86.68-1.73l.79-2.09a1,1,0,0,0,.13-.55.87.87,0,0,0,.41-.29s.1,0,.11.07c.1.34.23.69.34,1l1.06,3.12c.23.66.33.78.66.82l.21,0c.06,0,0,.16,0,.2-.31,0-.59,0-.94,0s-.66,0-.89,0a.13.13,0,0,1,0-.2l.22,0c.17,0,.27-.06.27-.14a1.56,1.56,0,0,0-.1-.41Zm-1.53-.68c-.06.18,0,.18.16.18h1c.23,0,.24,0,.17-.24l-.41-1.26a4.13,4.13,0,0,0-.18-.49h0s-.1.23-.18.46Z"></path><path class="cls-42" d="M160.55,79.71a2.41,2.41,0,0,1-1.21-.28,3.52,3.52,0,0,1-.2-1.08c0-.06.15-.08.18,0a1.4,1.4,0,0,0,1.33,1.15.88.88,0,0,0,1-.88A1.16,1.16,0,0,0,161,77.5l-.74-.48a1.64,1.64,0,0,1-.83-1.33A1.38,1.38,0,0,1,161,74.36a3.21,3.21,0,0,1,.72.1,1.19,1.19,0,0,0,.28.05,3.72,3.72,0,0,1,.13.94.14.14,0,0,1-.19,0,1,1,0,0,0-1.05-.87.81.81,0,0,0-.92.86,1.22,1.22,0,0,0,.65,1l.62.39a1.74,1.74,0,0,1,1,1.48,1.45,1.45,0,0,1-1.65,1.43m-.84-6.58c0-.07,0-.15.11-.15l.88.45a.21.21,0,0,0,.25,0l.9-.45s.08.08.08.15L161,74a.23.23,0,0,1-.33,0Z"></path><path class="cls-42" d="M164.61,75.64c0-.81,0-.93-.47-1l-.19,0s0-.17,0-.19l1,0,.9,0s.06.16,0,.19l-.14,0c-.45,0-.47.16-.47,1v.9c0,.14,0,.29.1.29a.47.47,0,0,0,.22-.09c.11-.09.31-.29.39-.37l.84-.83a8.37,8.37,0,0,0,.6-.64.22.22,0,0,0,.06-.12s0-.06-.13-.08l-.21,0a.12.12,0,0,1,0-.19l.85,0,.77,0a.14.14,0,0,1,0,.19,2.05,2.05,0,0,0-.72.22,7.71,7.71,0,0,0-1.09.9l-.7.65c-.1.12-.17.18-.17.24s0,.12.14.25c.74.84,1.34,1.54,1.94,2.17a1,1,0,0,0,.62.32l.21,0a.14.14,0,0,1,0,.2c-.2,0-.5,0-.86,0s-.59,0-1,0a.15.15,0,0,1,0-.2l.18,0c.11,0,.18,0,.18-.08s-.05-.1-.1-.17-.35-.4-.65-.73l-.62-.7c-.44-.5-.56-.65-.75-.65s-.13.1-.13.37v1c0,.81,0,.92.45,1l.21,0a.17.17,0,0,1,0,.2l-.94,0c-.32,0-.58,0-.9,0a.16.16,0,0,1,0-.2l.16,0c.41-.06.43-.16.43-1Z"></path><path class="cls-42" d="M170.2,77.09A2.68,2.68,0,0,1,173,74.36,2.55,2.55,0,0,1,175.65,77,2.65,2.65,0,0,1,173,79.72a2.61,2.61,0,0,1-2.76-2.63m4.68.16c0-1.27-.57-2.65-2-2.65-.8,0-1.85.55-1.85,2.24,0,1.15.56,2.64,2.08,2.64.93,0,1.82-.7,1.82-2.23"></path><path class="cls-42" d="M178,75.64c0-.81,0-.93-.51-1l-.19,0c-.05,0,0-.17,0-.19l1,0,1,0s.06.16,0,.19l-.18,0c-.46,0-.48.16-.48,1v2.7c0,.49,0,.69.17.83s.23.18.84.18.82,0,.95-.1a1.71,1.71,0,0,0,.51-.76s.19,0,.19,0a6.09,6.09,0,0,1-.33,1.09c-.39,0-1.13,0-1.93,0h-.71l-1,0a.15.15,0,0,1,0-.2l.23,0c.45-.05.47-.16.47-1Z"></path><path class="cls-42" d="M185.46,77.79c-.05-.16-.09-.19-.32-.19H184c-.19,0-.24,0-.29.19l-.27.81a2.8,2.8,0,0,0-.17.64c0,.1,0,.14.22.16l.26,0a.14.14,0,0,1,0,.2c-.2,0-.44,0-.8,0s-.54,0-.75,0c0,0-.06-.16,0-.2l.25,0a.52.52,0,0,0,.47-.38c.14-.36.36-.86.68-1.73l.79-2.09a1.13,1.13,0,0,0,.13-.55.79.79,0,0,0,.4-.29.11.11,0,0,1,.12.07c.1.34.22.69.34,1l1.06,3.12c.23.66.33.78.66.82l.21,0a.17.17,0,0,1,0,.2c-.32,0-.59,0-.94,0s-.66,0-.89,0a.13.13,0,0,1,0-.2l.22,0c.16,0,.27-.06.27-.14a1.56,1.56,0,0,0-.1-.41Zm-1.53-.68c-.07.18-.06.18.16.18H185c.23,0,.24,0,.17-.24l-.42-1.26c-.06-.19-.13-.39-.17-.49h0s-.1.23-.19.46Z"></path><path class="cls-42" d="M193.81,76.09c.4-.57.63-.87.75-1.1a.43.43,0,0,0,.1-.21s-.08-.06-.28-.06h-1.16c-.62,0-1,.06-1.15.26a2.07,2.07,0,0,0-.34.52.16.16,0,0,1-.2,0,9.68,9.68,0,0,0,.32-1.16.11.11,0,0,1,.13,0c0,.18.14.19.77.19h2.05c.55,0,.8,0,.89,0s0,0,0,.07a15.11,15.11,0,0,0-1.27,1.65L193.18,78a10,10,0,0,0-.76,1.2c0,.08.08.09.22.11h1.14a3.56,3.56,0,0,0,1.43-.18,1.51,1.51,0,0,0,.55-.71c.06,0,.17,0,.19.06a4.32,4.32,0,0,1-.35,1.1c-.43,0-.87,0-1.41,0h-2c-.41,0-.69,0-.87,0a.12.12,0,0,1,0-.1,8.43,8.43,0,0,0,.85-1Z"></path><path class="cls-42" d="M200.21,77.79c-.05-.16-.08-.19-.32-.19h-1.16c-.2,0-.25,0-.3.19l-.27.81a2.8,2.8,0,0,0-.17.64c0,.1,0,.14.22.16l.26,0a.14.14,0,0,1,0,.2c-.2,0-.44,0-.8,0s-.54,0-.74,0c0,0-.07-.16,0-.2l.25,0a.52.52,0,0,0,.47-.38c.14-.36.36-.86.68-1.73l.79-2.09a1,1,0,0,0,.13-.55.79.79,0,0,0,.4-.29.11.11,0,0,1,.12.07c.1.34.22.69.34,1l1.06,3.12c.23.66.33.78.66.82l.21,0a.17.17,0,0,1,0,.2c-.32,0-.59,0-.94,0s-.66,0-.89,0a.13.13,0,0,1,0-.2l.22,0c.16,0,.27-.06.27-.14a1.56,1.56,0,0,0-.1-.41Zm-1.53-.68c-.06.18-.06.18.16.18h.95c.23,0,.24,0,.17-.24l-.41-1.26-.18-.49h0s-.1.23-.19.46Z"></path><path class="cls-42" d="M206.83,75.66c0-.82,0-1-.48-1l-.19,0s0-.17,0-.19l1,0,1,0s.07.16,0,.19l-.19,0c-.46,0-.48.17-.48,1v2.75c0,.83,0,.94.48,1l.19,0c.05,0,0,.17,0,.2l-1,0-1,0a.15.15,0,0,1,0-.2l.19,0c.46-.05.48-.16.48-1Z"></path><path class="cls-42" d="M214.62,78.27c0,.24,0,1.16,0,1.36s-.06.09-.15.09a13,13,0,0,0-1-1.17l-1.79-2c-.21-.24-.74-.87-.9-1h0a2.1,2.1,0,0,0,0,.5v1.69a6.14,6.14,0,0,0,.13,1.6c.05.09.21.13.4.15l.24,0a.15.15,0,0,1,0,.2l-.9,0c-.33,0-.54,0-.81,0a.15.15,0,0,1,0-.2l.21,0c.17,0,.3-.07.34-.16a7.34,7.34,0,0,0,.1-1.59V75.41a.72.72,0,0,0-.17-.56.9.9,0,0,0-.48-.18l-.14,0c0-.05,0-.16,0-.19.33,0,.74,0,.88,0l.35,0a11.09,11.09,0,0,0,1.33,1.7L213,77c.53.59.91,1,1.28,1.4h0a.84.84,0,0,0,0-.33V76.42a5.69,5.69,0,0,0-.15-1.6c-.05-.07-.17-.11-.48-.15l-.13,0c-.06-.05,0-.17,0-.19l.91,0,.8,0a.14.14,0,0,1,0,.19l-.11,0c-.25,0-.4.1-.43.16a5.87,5.87,0,0,0-.12,1.59Z"></path><path class="cls-42" d="M218.16,76.66c0,.21,0,.21.26.21h.52a3.11,3.11,0,0,0,.66,0c.09,0,.15-.07.2-.27l.06-.31a.17.17,0,0,1,.21,0c0,.18,0,.49,0,.78s0,.57,0,.75-.15,0-.21,0l-.07-.3a.38.38,0,0,0-.25-.3,2.89,2.89,0,0,0-.6,0h-.52c-.24,0-.26,0-.26.2v1.08c0,.81,0,.93.47,1l.27,0a.17.17,0,0,1,0,.2l-1,0c-.34,0-.6,0-1,0a.16.16,0,0,1,0-.2l.19,0c.45-.05.47-.16.47-1V75.64c0-.81,0-.92-.47-1l-.12,0c-.05,0,0-.17,0-.19l.9,0h1.43c.49,0,.94,0,1,0,0,.35,0,.73,0,1a.13.13,0,0,1-.18,0c-.06-.35-.16-.63-.54-.73a3.09,3.09,0,0,0-.75,0h-.48c-.23,0-.23,0-.23.31Z"></path><path class="cls-42" d="M222.07,77.09a2.67,2.67,0,0,1,2.75-2.73A2.55,2.55,0,0,1,227.51,77a2.65,2.65,0,0,1-2.69,2.71,2.6,2.6,0,0,1-2.75-2.63m4.67.16c0-1.27-.57-2.65-2.05-2.65-.8,0-1.85.55-1.85,2.24,0,1.15.56,2.64,2.08,2.64.93,0,1.82-.7,1.82-2.23"></path><path class="cls-42" d="M229.87,75.65c0-.73,0-.87-.34-.9l-.25,0a.13.13,0,0,1,0-.19c.43,0,1-.06,1.72-.06a2.83,2.83,0,0,1,1.3.23,1.15,1.15,0,0,1,.64,1.08,1.44,1.44,0,0,1-1,1.3s0,.12,0,.18a8.23,8.23,0,0,0,1.56,2.06.85.85,0,0,0,.53.22s0,.08,0,.11a1.37,1.37,0,0,1-.34,0,1.73,1.73,0,0,1-1.6-1c-.21-.29-.52-.82-.76-1.17a.55.55,0,0,0-.55-.24c-.35,0-.37,0-.37.17v1c0,.81,0,.91.47,1l.16,0c.05,0,0,.17,0,.2-.35,0-.62,0-.93,0s-.6,0-1,0a.15.15,0,0,1,0-.2l.19,0c.45-.06.47-.16.47-1Zm.63,1.11c0,.14,0,.22,0,.25s.14,0,.53,0a1.31,1.31,0,0,0,.8-.2,1.1,1.1,0,0,0,.38-1A1.14,1.14,0,0,0,231,74.7c-.48,0-.51,0-.51.25Z"></path><path class="cls-42" d="M237.89,77.52c.18.37.35.72.54,1.07h0c.21-.37.41-.77.6-1.17l.73-1.47a4.4,4.4,0,0,0,.58-1.49c.27,0,.43,0,.59,0l.69,0a.17.17,0,0,1,0,.19l-.16,0c-.49,0-.55.19-.54.73,0,.82,0,2.26.08,3.37,0,.39,0,.6.39.63l.24,0a.15.15,0,0,1,0,.2l-.92,0-.94,0a.15.15,0,0,1,0-.2l.22,0c.38,0,.38-.16.38-.66l0-3.23h0c-.06.09-.35.71-.51,1l-.69,1.35c-.35.68-.69,1.41-.83,1.77a.11.11,0,0,1-.08,0s-.06,0-.07,0a16.52,16.52,0,0,0-.68-1.55l-.7-1.49-.49-1.12h0c0,.48-.06.93-.08,1.38s-.05,1.16-.05,1.82,0,.7.35.72l.29,0a.13.13,0,0,1,0,.2c-.26,0-.56,0-.86,0l-.79,0s-.06-.16,0-.2l.17,0c.32-.05.43-.09.48-.64s.08-.93.13-1.7.07-1.3.08-1.73,0-.6-.51-.66l-.13,0a.14.14,0,0,1,0-.19l.61,0c.18,0,.39,0,.65,0a3,3,0,0,0,.4,1.28Z"></path><path class="cls-42" d="M246.1,77.79c0-.16-.08-.19-.31-.19h-1.17c-.2,0-.24,0-.3.19l-.27.81a3.54,3.54,0,0,0-.17.64c0,.1,0,.14.23.16l.25,0a.13.13,0,0,1,0,.2c-.21,0-.45,0-.81,0s-.53,0-.74,0a.17.17,0,0,1,0-.2l.26,0a.52.52,0,0,0,.46-.38c.14-.36.36-.86.68-1.73L245,75.2a1.18,1.18,0,0,0,.14-.55.89.89,0,0,0,.4-.29.11.11,0,0,1,.12.07c.09.34.22.69.33,1L247,78.58c.22.66.32.78.65.82l.22,0s0,.16,0,.2c-.32,0-.59,0-.94,0s-.67,0-.89,0a.14.14,0,0,1,0-.2l.23,0c.16,0,.27-.06.27-.14a1.32,1.32,0,0,0-.11-.41Zm-1.53-.68c-.06.18,0,.18.16.18h1c.22,0,.24,0,.17-.24l-.42-1.26a4.13,4.13,0,0,0-.18-.49h0s-.1.23-.18.46Z"></path><path class="cls-42" d="M250.1,75a3.36,3.36,0,0,1,2.09-.65,6,6,0,0,1,1.37.18.46.46,0,0,0,.22,0c0,.18.05.67.11,1.14a.17.17,0,0,1-.21,0,1.41,1.41,0,0,0-1.59-1.13A2.12,2.12,0,0,0,249.9,77a2.29,2.29,0,0,0,2.3,2.53,1.65,1.65,0,0,0,1.62-1.11.17.17,0,0,1,.2,0,2.8,2.8,0,0,1-.37,1.06l-.27.08a4.65,4.65,0,0,1-1.23.18,3.37,3.37,0,0,1-1.92-.52,2.5,2.5,0,0,1-1.1-2.13,2.58,2.58,0,0,1,1-2.06"></path><path class="cls-42" d="M256.18,75.66c0-.82,0-1-.47-1l-.2,0s0-.17,0-.19l1,0,1,0c.05,0,.06.16,0,.19l-.2,0c-.45,0-.47.17-.47,1v2.75c0,.83,0,.94.47,1l.2,0a.17.17,0,0,1,0,.2l-1,0-1,0a.16.16,0,0,1,0-.2l.2,0c.45-.05.47-.16.47-1Z"></path><path class="cls-42" d="M259.17,77.09a2.67,2.67,0,0,1,2.76-2.73A2.54,2.54,0,0,1,264.61,77a2.64,2.64,0,0,1-2.68,2.71,2.61,2.61,0,0,1-2.76-2.63m4.67.16c0-1.27-.57-2.65-2-2.65-.8,0-1.85.55-1.85,2.24,0,1.15.56,2.64,2.09,2.64.92,0,1.81-.7,1.81-2.23"></path><path class="cls-42" d="M271.14,78.27c0,.24,0,1.16,0,1.36a.15.15,0,0,1-.15.09c-.09-.14-.32-.41-1-1.17l-1.8-2c-.21-.24-.73-.87-.89-1h0a2,2,0,0,0,0,.5v1.69a6.11,6.11,0,0,0,.14,1.6c0,.09.2.13.39.15l.25,0a.16.16,0,0,1,0,.2l-.91,0c-.32,0-.53,0-.8,0a.15.15,0,0,1,0-.2l.21,0c.18,0,.3-.07.34-.16a7.34,7.34,0,0,0,.1-1.59V75.41a.69.69,0,0,0-.17-.56.87.87,0,0,0-.48-.18l-.13,0a.12.12,0,0,1,0-.19c.32,0,.73,0,.87,0l.36,0a11,11,0,0,0,1.32,1.7l.75.85c.54.59.92,1,1.28,1.4h0a.84.84,0,0,0,0-.33V76.42a5.33,5.33,0,0,0-.16-1.6c0-.07-.17-.11-.48-.15l-.13,0c-.05-.05,0-.17,0-.19l.91,0,.8,0a.13.13,0,0,1,0,.19l-.1,0c-.25,0-.41.1-.44.16a6.31,6.31,0,0,0-.11,1.59Z"></path><path class="cls-42" d="M274,75.64c0-.8,0-.92-.47-1l-.13,0s0-.17,0-.19l.92,0h1.45c.5,0,.95,0,1.05,0a10.24,10.24,0,0,1,.12,1c0,.05-.16.06-.19,0-.12-.36-.19-.63-.59-.73a3.53,3.53,0,0,0-.75,0h-.56c-.23,0-.23,0-.23.31v1.55c0,.22,0,.22.25.22h.45a2.83,2.83,0,0,0,.66,0c.09,0,.15-.08.19-.27l.06-.32s.17,0,.2,0,0,.49,0,.78,0,.57,0,.75a.15.15,0,0,1-.2,0l-.07-.3a.33.33,0,0,0-.24-.29,2.69,2.69,0,0,0-.6,0h-.45c-.23,0-.25,0-.25.21v1.09c0,.41,0,.67.14.8s.26.18.94.18a2.37,2.37,0,0,0,1-.11,2,2,0,0,0,.55-.75.15.15,0,0,1,.2.05,7.6,7.6,0,0,1-.35,1.08l-2.08,0h-.69l-1.06,0a.16.16,0,0,1,0-.2l.25,0c.44,0,.48-.16.48-1Z"></path><path class="cls-42" d="M284.38,78.43c0,.81,0,.93.46,1l.25,0c.05,0,0,.17,0,.2l-1,0-1.08,0s-.06-.16,0-.2l.28,0c.44,0,.48-.16.48-1V75c0-.24,0-.25-.23-.25h-.43a1.56,1.56,0,0,0-.95.2,1.48,1.48,0,0,0-.35.53.15.15,0,0,1-.2,0,10,10,0,0,0,.3-1.16.17.17,0,0,1,.14,0c.05.25.3.24.66.24h3.14c.42,0,.48,0,.6-.22,0,0,.12,0,.14,0a4.56,4.56,0,0,0-.12,1.17.13.13,0,0,1-.2,0c0-.19-.07-.48-.19-.56a1.48,1.48,0,0,0-.9-.2h-.55c-.23,0-.22,0-.22.26Z"></path><path class="cls-42" d="M288.64,75.64c0-.8,0-.92-.47-1l-.13,0c-.05,0,0-.17,0-.19l.91,0h1.46c.49,0,.95,0,1,0a7.62,7.62,0,0,1,.13,1,.15.15,0,0,1-.2,0c-.12-.36-.18-.63-.59-.73a3.53,3.53,0,0,0-.75,0h-.55c-.24,0-.24,0-.24.31v1.55c0,.22,0,.22.26.22H290a3,3,0,0,0,.66,0c.09,0,.14-.08.18-.27l.06-.32s.17,0,.2,0,0,.49,0,.78,0,.57,0,.75a.15.15,0,0,1-.2,0l-.07-.3a.32.32,0,0,0-.24-.29,2.52,2.52,0,0,0-.59,0h-.45c-.23,0-.26,0-.26.21v1.09a1.27,1.27,0,0,0,.15.8c.09.1.25.18.94.18a2.41,2.41,0,0,0,1-.11,2,2,0,0,0,.55-.75.14.14,0,0,1,.19.05,6.51,6.51,0,0,1-.35,1.08q-1,0-2.07,0H289l-1.05,0a.16.16,0,0,1,0-.2l.26,0c.44,0,.48-.16.48-1Z"></path><path class="cls-42" d="M295.19,77.09c-.37,0-.39,0-.39.25v1.09c0,.81,0,.92.48,1l.22,0c.05,0,0,.17,0,.2l-1,0c-.33,0-.59,0-.9,0a.16.16,0,0,1,0-.2l.13,0c.43-.08.45-.16.45-1V75.64c0-.81-.05-.94-.46-1l-.2,0s0-.17,0-.19l1,0,.9,0c.05,0,.06.16,0,.19l-.15,0c-.45,0-.47.16-.47,1v.89c0,.24,0,.25.39.25h2.22c.37,0,.38,0,.38-.25v-.89c0-.81,0-.93-.47-1l-.15,0s0-.17,0-.19l.94,0,.91,0s.06.16,0,.19l-.16,0c-.45,0-.46.16-.46,1v2.79c0,.81,0,.92.46,1l.19,0c.05,0,0,.17,0,.2l-.93,0c-.32,0-.6,0-.94,0a.16.16,0,0,1,0-.2l.15,0c.47-.08.47-.16.47-1V77.34c0-.23,0-.25-.38-.25Z"></path><path class="cls-42" d="M305.59,78.27c0,.24,0,1.16,0,1.36a.14.14,0,0,1-.15.09,13,13,0,0,0-1-1.17l-1.8-2c-.21-.24-.73-.87-.89-1h0a2,2,0,0,0,0,.5v1.69a6.11,6.11,0,0,0,.14,1.6c.05.09.2.13.4.15l.24,0a.15.15,0,0,1,0,.2l-.9,0c-.33,0-.54,0-.81,0a.15.15,0,0,1,0-.2l.2,0c.18,0,.3-.07.34-.16a7.31,7.31,0,0,0,.11-1.59V75.41a.69.69,0,0,0-.18-.56.83.83,0,0,0-.47-.18l-.14,0c0-.05,0-.16,0-.19.32,0,.73,0,.87,0l.36,0a11,11,0,0,0,1.32,1.7l.75.85c.54.59.92,1,1.28,1.4h0a.84.84,0,0,0,0-.33V76.42a5.33,5.33,0,0,0-.16-1.6c0-.07-.17-.11-.47-.15l-.14,0c-.05-.05,0-.17,0-.19l.91,0,.8,0a.14.14,0,0,1,0,.19l-.11,0a.75.75,0,0,0-.44.16,6.31,6.31,0,0,0-.11,1.59Z"></path><path class="cls-42" d="M307.86,77.09a2.67,2.67,0,0,1,2.76-2.73A2.54,2.54,0,0,1,313.3,77a2.64,2.64,0,0,1-2.68,2.71,2.61,2.61,0,0,1-2.76-2.63m4.67.16c0-1.27-.57-2.65-2-2.65-.8,0-1.85.55-1.85,2.24,0,1.15.56,2.64,2.09,2.64.93,0,1.81-.7,1.81-2.23"></path><path class="cls-42" d="M315.66,75.64c0-.81,0-.93-.5-1l-.2,0s0-.17,0-.19l1,0,.95,0s.06.16,0,.19l-.18,0c-.46,0-.47.16-.47,1v2.7c0,.49,0,.69.16.83s.23.18.84.18.82,0,.95-.1a1.71,1.71,0,0,0,.51-.76s.19,0,.19,0a6,6,0,0,1-.32,1.09c-.4,0-1.13,0-1.93,0H316l-1,0a.16.16,0,0,1,0-.2l.24,0c.44-.05.46-.16.46-1Z"></path><path class="cls-42" d="M320.31,77.09a2.68,2.68,0,0,1,2.76-2.73A2.55,2.55,0,0,1,325.76,77a2.65,2.65,0,0,1-2.69,2.71,2.61,2.61,0,0,1-2.76-2.63m4.68.16c0-1.27-.57-2.65-2.05-2.65-.8,0-1.85.55-1.85,2.24,0,1.15.56,2.64,2.08,2.64.93,0,1.82-.7,1.82-2.23"></path><path class="cls-42" d="M332.15,78.8c0,.31,0,.5.18.55a.06.06,0,0,1,0,.1,1.72,1.72,0,0,0-.38.07,6.46,6.46,0,0,1-1.38.19,3.22,3.22,0,0,1-2.36-.85,2.44,2.44,0,0,1-.72-1.76,2.67,2.67,0,0,1,.7-1.84,3.2,3.2,0,0,1,2.45-.9,4.8,4.8,0,0,1,1,.11,1.54,1.54,0,0,0,.48.07,8.9,8.9,0,0,0,.12,1.13.16.16,0,0,1-.21,0,1.42,1.42,0,0,0-1.59-1.1,2.06,2.06,0,0,0-2.16,2.23c0,1.49.76,2.66,2.32,2.66.48,0,.77-.1.85-.24a.81.81,0,0,0,.08-.44v-.31c0-.65,0-.69-.5-.75l-.34,0a.12.12,0,0,1,0-.19l1.1,0,.83,0a.13.13,0,0,1,0,.19l-.12,0c-.33,0-.33.25-.33.65Z"></path><path class="cls-42" d="M334.91,75.66c0-.82,0-1-.47-1l-.19,0c-.05,0,0-.17,0-.19l1,0,1,0s.06.16,0,.19l-.19,0c-.46,0-.47.17-.47,1v2.75c0,.83,0,.94.47,1l.19,0c.05,0,0,.17,0,.2l-1,0c-.33,0-.59,0-1,0a.15.15,0,0,1,0-.2l.19,0c.46-.05.47-.16.47-1Z"></path><path class="cls-42" d="M338.65,75.66c0-.86-.07-1-.53-1l-.19,0c-.05,0,0-.17,0-.19l1,0,.88,0c.05,0,.06.16,0,.19l-.12,0c-.46.06-.47.17-.47,1v2.87a4.3,4.3,0,0,1-.18,1.51,1.69,1.69,0,0,1-1.52,1.11c-.1,0-.34,0-.34-.16s.12-.36.28-.36a1,1,0,0,1,.29.05,1.19,1.19,0,0,0,.32,0,.33.33,0,0,0,.31-.2,6.92,6.92,0,0,0,.2-1.94Z"></path><path class="cls-42" d="M342.22,75.64c0-.8,0-.92-.47-1l-.13,0c-.05,0,0-.17,0-.19l.91,0H344c.49,0,.95,0,1,0a7.62,7.62,0,0,1,.13,1,.15.15,0,0,1-.2,0c-.11-.36-.18-.63-.59-.73a3.53,3.53,0,0,0-.75,0h-.55c-.24,0-.24,0-.24.31v1.55c0,.22,0,.22.26.22h.45a3,3,0,0,0,.66,0c.09,0,.14-.08.18-.27l.06-.32s.17,0,.2,0,0,.49,0,.78,0,.57,0,.75a.15.15,0,0,1-.2,0l-.07-.3a.32.32,0,0,0-.24-.29,2.52,2.52,0,0,0-.59,0h-.45c-.23,0-.26,0-.26.21v1.09a1.27,1.27,0,0,0,.15.8c.09.1.25.18.94.18a2.37,2.37,0,0,0,1-.11,2,2,0,0,0,.55-.75.14.14,0,0,1,.19.05,6.51,6.51,0,0,1-.35,1.08q-1,0-2.07,0h-.7l-1.05,0a.15.15,0,0,1,0-.2l.26,0c.44,0,.48-.16.48-1Z"></path><path class="cls-42" d="M252.25,13.57c0-1.43,0-1.66-.82-1.73l-.34,0a.27.27,0,0,1,0-.34c.67,0,1.13,0,1.7,0s1,0,1.67,0a.27.27,0,0,1,0,.34l-.33,0c-.8.07-.82.3-.82,1.73v4.79c0,1.43,0,1.62.82,1.71l.33,0c.08.05.06.3,0,.34-.67,0-1.13,0-1.67,0s-1,0-1.7,0a.27.27,0,0,1,0-.34l.34,0c.79-.09.82-.28.82-1.71Z"></path><path class="cls-42" d="M263.91,18.12c0,.4,0,2,0,2.35,0,.09-.1.15-.25.15-.16-.23-.56-.7-1.73-2L258.85,15c-.36-.42-1.28-1.52-1.56-1.82h0a3.63,3.63,0,0,0-.07.88V17a10.87,10.87,0,0,0,.24,2.78c.08.15.35.23.69.26l.42,0a.25.25,0,0,1,0,.34c-.61,0-1.08,0-1.57,0s-.93,0-1.4,0a.25.25,0,0,1,0-.34l.36,0c.31,0,.53-.12.59-.27a12.86,12.86,0,0,0,.18-2.77v-3.9a1.2,1.2,0,0,0-.3-1,1.36,1.36,0,0,0-.83-.33l-.23,0c-.08-.09-.08-.29,0-.34.56,0,1.28,0,1.52,0a4,4,0,0,0,.62,0,18.72,18.72,0,0,0,2.3,3l1.31,1.47c.93,1,1.59,1.79,2.22,2.44h0a1.5,1.5,0,0,0,.05-.57V14.9a9.31,9.31,0,0,0-.27-2.79c-.08-.12-.29-.2-.83-.27l-.23,0c-.1-.09-.08-.3,0-.34.62,0,1.08,0,1.59,0s.93,0,1.39,0a.24.24,0,0,1,0,.34l-.19,0c-.43.07-.7.17-.76.28a11.35,11.35,0,0,0-.2,2.78Z"></path><path class="cls-42" d="M268.18,15.32c0,.36,0,.36.44.36h.92a5.3,5.3,0,0,0,1.14-.08c.15,0,.26-.12.34-.47l.12-.54a.28.28,0,0,1,.35,0c0,.32-.05.86-.05,1.36s.05,1,.05,1.31c-.05.07-.25.07-.35,0l-.14-.53a.63.63,0,0,0-.42-.51,4.83,4.83,0,0,0-1-.07h-.92c-.4,0-.44,0-.44.37v1.87c0,1.41,0,1.61.82,1.68l.46,0c.08.05.05.3,0,.34-.8,0-1.25,0-1.79,0s-1.05,0-1.69,0c-.08,0-.1-.26,0-.34l.33,0c.78-.09.81-.27.81-1.68V13.54c0-1.42,0-1.6-.81-1.7l-.21,0a.27.27,0,0,1,0-.34c.56,0,1,0,1.56,0h2.48c.86,0,1.64,0,1.81,0,0,.62,0,1.26,0,1.78a.24.24,0,0,1-.32,0c-.1-.61-.27-1.11-.94-1.29a6.66,6.66,0,0,0-1.31-.07h-.82c-.4,0-.4,0-.4.54Z"></path><path class="cls-42" d="M273.08,16.06a4.66,4.66,0,0,1,4.79-4.76,4.44,4.44,0,0,1,4.68,4.62,4.6,4.6,0,0,1-4.68,4.7,4.53,4.53,0,0,1-4.79-4.56m8.12.28c0-2.22-1-4.62-3.56-4.62-1.4,0-3.22,1-3.22,3.91,0,2,1,4.58,3.63,4.58,1.61,0,3.15-1.22,3.15-3.87"></path><path class="cls-42" d="M284.75,13.55c0-1.28,0-1.51-.59-1.57l-.44-.06a.23.23,0,0,1,0-.34c.75-.06,1.68-.1,3-.1a4.72,4.72,0,0,1,2.25.4,2,2,0,0,1,1.12,1.89A2.49,2.49,0,0,1,288.42,16c-.06.08,0,.21.07.32a14.46,14.46,0,0,0,2.71,3.58,1.57,1.57,0,0,0,.93.38.11.11,0,0,1,0,.19,2,2,0,0,1-.59.07c-1.15,0-1.83-.34-2.79-1.7-.35-.5-.9-1.43-1.32-2a1,1,0,0,0-.95-.44c-.61,0-.64,0-.64.3v1.7c0,1.41,0,1.57.81,1.68l.28,0a.27.27,0,0,1,0,.34c-.61,0-1.07,0-1.61,0s-1.05,0-1.68,0a.26.26,0,0,1,0-.34l.34,0c.78-.09.81-.27.81-1.68Zm1.1,1.93a1,1,0,0,0,0,.44s.25.07.93.07a2.23,2.23,0,0,0,1.39-.35,1.94,1.94,0,0,0,.67-1.67,2,2,0,0,0-2.15-2.08c-.84,0-.88.06-.88.44Z"></path><path class="cls-42" d="M296.81,16.81c.31.63.61,1.26.93,1.85h0c.36-.64.7-1.34,1-2l1.27-2.58a7.54,7.54,0,0,0,1-2.58c.46,0,.75,0,1,0s.78,0,1.19,0c.08,0,.08.28,0,.34l-.29,0c-.84.08-.95.34-.94,1.28,0,1.43,0,3.92.15,5.86,0,.67,0,1,.66,1.09l.43,0a.25.25,0,0,1,0,.34c-.55,0-1.1,0-1.58,0s-1.08,0-1.64,0a.26.26,0,0,1,0-.34l.39,0c.66-.07.66-.28.66-1.14l0-5.62h0c-.09.15-.6,1.23-.88,1.75L299,17.42c-.61,1.18-1.22,2.45-1.46,3.07a.15.15,0,0,1-.13.05s-.1,0-.12-.05c-.23-.72-.88-2-1.19-2.7l-1.21-2.59c-.28-.62-.57-1.33-.87-1.95h0c-.06.84-.1,1.62-.14,2.4s-.09,2-.09,3.17.08,1.21.61,1.25l.51,0c.09.08.08.3,0,.34-.46,0-1,0-1.5,0s-.92,0-1.37,0a.26.26,0,0,1,0-.34l.3,0c.56-.08.75-.16.83-1.1s.15-1.64.23-3c.07-1.12.12-2.26.15-3s-.08-1.05-.9-1.16l-.22,0a.26.26,0,0,1,.05-.34c.41,0,.73,0,1.07,0s.67,0,1.12,0a5,5,0,0,0,.7,2.22Z"></path><path class="cls-42" d="M309.2,17.28c-.1-.29-.15-.33-.56-.33h-2c-.34,0-.42,0-.51.32l-.47,1.41a4.81,4.81,0,0,0-.3,1.12c0,.16.07.24.39.27l.45,0a.22.22,0,0,1,0,.34c-.35,0-.77,0-1.4-.05-.45,0-.93,0-1.29.05a.26.26,0,0,1,0-.34l.44,0a.89.89,0,0,0,.81-.66c.24-.62.62-1.5,1.19-3l1.37-3.64a1.92,1.92,0,0,0,.23-1,1.47,1.47,0,0,0,.7-.51c.08,0,.18,0,.2.12.17.6.39,1.21.59,1.81l1.85,5.41c.39,1.16.56,1.36,1.14,1.43l.37,0a.27.27,0,0,1,0,.34c-.55,0-1-.05-1.63-.05s-1.16,0-1.55.05a.23.23,0,0,1,0-.34l.39,0c.29,0,.47-.11.47-.24a2.68,2.68,0,0,0-.17-.72Zm-2.67-1.2c-.11.32-.09.33.28.33h1.66c.39,0,.42-.06.29-.42l-.72-2.2c-.11-.32-.23-.68-.31-.84h0a8.5,8.5,0,0,0-.32.79Z"></path><path class="cls-42" d="M316.92,18.39c0,1.41,0,1.61.81,1.68l.43,0c.08.05.06.3,0,.34-.76,0-1.22,0-1.76,0s-1,0-1.87,0a.24.24,0,0,1,0-.34l.48,0c.77-.07.84-.27.84-1.68v-6c0-.42,0-.43-.4-.43h-.75a2.72,2.72,0,0,0-1.65.33,2.42,2.42,0,0,0-.61.93.27.27,0,0,1-.35-.09,13.18,13.18,0,0,0,.51-2,.34.34,0,0,1,.26,0c.08.43.52.42,1.14.42h5.46c.72,0,.85,0,1.05-.38.07,0,.22,0,.24,0a8.06,8.06,0,0,0-.2,2.05.25.25,0,0,1-.35,0,1.74,1.74,0,0,0-.34-1,2.68,2.68,0,0,0-1.56-.33h-1c-.4,0-.39,0-.39.45Z"></path><path class="cls-42" d="M322.44,13.57c0-1.43,0-1.66-.82-1.73l-.34,0a.27.27,0,0,1,0-.34c.67,0,1.13,0,1.7,0s1,0,1.67,0a.27.27,0,0,1,0,.34l-.33,0c-.8.07-.83.3-.83,1.73v4.79c0,1.43,0,1.62.83,1.71l.33,0c.08.05.06.3,0,.34-.68,0-1.14,0-1.67,0s-1,0-1.7,0a.27.27,0,0,1,0-.34l.34,0c.79-.09.82-.28.82-1.71Z"></path><path class="cls-42" d="M325.75,16.06a4.66,4.66,0,0,1,4.79-4.76,4.43,4.43,0,0,1,4.68,4.62,4.6,4.6,0,0,1-4.68,4.7,4.53,4.53,0,0,1-4.79-4.56m8.12.28c0-2.22-1-4.62-3.55-4.62-1.4,0-3.22,1-3.22,3.91,0,2,1,4.58,3.62,4.58,1.62,0,3.15-1.22,3.15-3.87"></path><path class="cls-42" d="M344.67,18.12c0,.4,0,2,0,2.35,0,.09-.11.15-.26.15-.16-.23-.55-.7-1.72-2L339.6,15c-.36-.42-1.27-1.52-1.56-1.82h0a3.18,3.18,0,0,0-.07.88V17a10.44,10.44,0,0,0,.24,2.78c.08.15.35.23.69.26l.42,0a.26.26,0,0,1,0,.34c-.61,0-1.08,0-1.58,0s-.93,0-1.4,0a.27.27,0,0,1,0-.34l.37,0c.31,0,.52-.12.59-.27a12.89,12.89,0,0,0,.17-2.77v-3.9a1.23,1.23,0,0,0-.29-1,1.39,1.39,0,0,0-.84-.33l-.22,0c-.09-.09-.09-.29,0-.34.57,0,1.28,0,1.52,0a3.87,3.87,0,0,0,.62,0,18.21,18.21,0,0,0,2.31,3l1.3,1.47c.93,1,1.6,1.79,2.23,2.44h0a1.26,1.26,0,0,0,.06-.57V14.9a9.65,9.65,0,0,0-.27-2.79c-.08-.12-.3-.2-.84-.27l-.22,0c-.1-.09-.09-.3,0-.34.62,0,1.08,0,1.59,0s.93,0,1.39,0a.25.25,0,0,1,0,.34l-.18,0c-.43.07-.7.17-.76.28a10.88,10.88,0,0,0-.2,2.78Z"></path><path class="cls-42" d="M255.56,36.92c0,1.44,0,1.64.82,1.71l.44,0a.27.27,0,0,1,0,.34c-.78,0-1.24,0-1.79,0s-1,0-1.9,0a.23.23,0,0,1,0-.34l.49,0c.78-.07.85-.27.85-1.71V30.8c0-.42,0-.44-.41-.44h-.76a2.84,2.84,0,0,0-1.68.34,2.59,2.59,0,0,0-.62.95.26.26,0,0,1-.35-.1,14.57,14.57,0,0,0,.52-2s.22,0,.26,0c.08.44.53.43,1.16.43h5.55c.74,0,.86,0,1.06-.39.07,0,.22,0,.25,0a8,8,0,0,0-.2,2.09.25.25,0,0,1-.36,0,1.77,1.77,0,0,0-.34-1,2.78,2.78,0,0,0-1.59-.34h-1c-.41,0-.4,0-.4.47Z"></path><path class="cls-42" d="M261.17,32c0-1.42,0-1.63-.84-1.73l-.22,0a.27.27,0,0,1,0-.34c.59,0,1.06,0,1.62,0h2.57c.88,0,1.68,0,1.85,0a17.06,17.06,0,0,1,.22,1.82.26.26,0,0,1-.34,0c-.21-.64-.33-1.12-1-1.29a6.35,6.35,0,0,0-1.33-.09h-1c-.41,0-.41,0-.41.55v2.74c0,.38,0,.38.45.38h.8A5.39,5.39,0,0,0,264.7,34c.16-.06.26-.14.33-.48l.11-.56c.07-.08.3-.08.35,0,0,.33-.05.86-.05,1.38s.05,1,.05,1.32c-.05.09-.28.09-.35,0L265,35.1a.6.6,0,0,0-.43-.52,4.24,4.24,0,0,0-1-.07h-.8c-.41,0-.45,0-.45.37v1.93c0,.72,0,1.19.26,1.42s.45.32,1.66.32a4,4,0,0,0,1.75-.21,3.34,3.34,0,0,0,1-1.32.25.25,0,0,1,.34.09,11.14,11.14,0,0,1-.61,1.9c-1.23,0-2.45,0-3.67,0h-1.23c-.59,0-1.06,0-1.86,0-.09,0-.11-.26,0-.34l.45,0c.78-.07.85-.27.85-1.71Z"></path><path class="cls-42" d="M269.6,30.88a5.89,5.89,0,0,1,3.69-1.16,10.56,10.56,0,0,1,2.43.33.9.9,0,0,0,.38.05c0,.31.08,1.18.19,2a.29.29,0,0,1-.37,0c-.2-.93-.82-2-2.8-2s-3.88,1.33-3.88,4.17,1.82,4.46,4.07,4.46a2.93,2.93,0,0,0,2.86-2,.28.28,0,0,1,.35,0,5.12,5.12,0,0,1-.65,1.88,2.43,2.43,0,0,0-.48.14,8.1,8.1,0,0,1-2.16.31,6,6,0,0,1-3.41-.92,4.39,4.39,0,0,1-1.95-3.76,4.56,4.56,0,0,1,1.73-3.63"></path><path class="cls-42" d="M280.22,34.55c-.66,0-.69,0-.69.44v1.93c0,1.44.07,1.63.84,1.71l.4,0a.27.27,0,0,1,0,.34c-.74,0-1.21,0-1.74,0s-1.06,0-1.59,0a.27.27,0,0,1,0-.34l.23,0c.77-.14.8-.27.8-1.71V32c0-1.44-.09-1.67-.81-1.73l-.35,0c-.09-.06-.06-.3,0-.34.67,0,1.14,0,1.73,0s1,0,1.59,0c.08,0,.11.28,0,.34l-.26,0c-.79.09-.82.29-.82,1.73v1.58c0,.42,0,.43.69.43h3.91c.66,0,.69,0,.69-.43V32c0-1.44,0-1.64-.84-1.73l-.26,0a.27.27,0,0,1,0-.34c.63,0,1.09,0,1.66,0s1,0,1.61,0a.27.27,0,0,1,0,.34l-.29,0c-.79.09-.82.29-.82,1.73v4.93c0,1.44,0,1.61.82,1.71l.33,0a.27.27,0,0,1,0,.34c-.65,0-1.12,0-1.65,0s-1.06,0-1.66,0a.27.27,0,0,1,0-.34l.26,0c.84-.14.84-.27.84-1.71V35c0-.41,0-.44-.69-.44Z"></path><path class="cls-42" d="M296.67,36.65c0,.41,0,2,0,2.39,0,.09-.11.15-.26.15-.16-.23-.56-.71-1.75-2.07l-3.18-3.61c-.37-.42-1.3-1.55-1.59-1.85h0a3.87,3.87,0,0,0-.06.89v3a10.83,10.83,0,0,0,.24,2.83c.08.15.36.23.7.26l.42,0a.25.25,0,0,1,0,.34c-.62,0-1.1,0-1.6,0s-.95,0-1.43,0a.26.26,0,0,1,0-.34l.37,0c.32,0,.54-.13.61-.27a13.41,13.41,0,0,0,.17-2.82v-4a1.23,1.23,0,0,0-.3-1,1.49,1.49,0,0,0-.85-.34l-.23,0c-.08-.08-.08-.29,0-.34.57,0,1.3,0,1.55,0a5.9,5.9,0,0,0,.63,0,18.22,18.22,0,0,0,2.34,3l1.33,1.49c.94,1.05,1.61,1.82,2.25,2.48h0a1.29,1.29,0,0,0,.06-.58V33.37a9.61,9.61,0,0,0-.28-2.83c-.08-.13-.3-.2-.85-.28l-.23,0c-.09-.08-.08-.3,0-.34.63,0,1.09,0,1.61,0s.95,0,1.42,0a.25.25,0,0,1,0,.34l-.19,0c-.44.08-.71.18-.77.29a11.2,11.2,0,0,0-.2,2.82Z"></path><path class="cls-42" d="M298.76,34.55a4.73,4.73,0,0,1,4.87-4.83,4.5,4.5,0,0,1,4.75,4.69,4.67,4.67,0,0,1-4.75,4.78,4.6,4.6,0,0,1-4.87-4.64m8.25.29c0-2.26-1-4.7-3.61-4.7-1.43,0-3.27,1-3.27,4,0,2,1,4.66,3.68,4.66,1.64,0,3.2-1.24,3.2-3.93"></path><path class="cls-42" d="M310.62,32c0-1.44,0-1.65-.89-1.73l-.34,0a.25.25,0,0,1,0-.34c.76,0,1.23,0,1.77,0s1,0,1.69,0a.27.27,0,0,1,0,.34l-.33,0c-.81.08-.84.29-.84,1.73v4.76c0,.87,0,1.22.29,1.48s.41.32,1.49.32,1.45-.06,1.67-.18A3,3,0,0,0,316.1,37c.08-.07.34,0,.34.08a10.34,10.34,0,0,1-.58,1.91c-.69,0-2,0-3.41,0h-1.26c-.57,0-1,0-1.77,0a.25.25,0,0,1,0-.34l.41,0c.79-.08.82-.27.82-1.71Z"></path><path class="cls-42" d="M316.93,34.55a4.73,4.73,0,0,1,4.87-4.83,4.5,4.5,0,0,1,4.75,4.69,4.67,4.67,0,0,1-4.75,4.78,4.6,4.6,0,0,1-4.87-4.64m8.25.29c0-2.26-1-4.7-3.61-4.7-1.43,0-3.28,1-3.28,4,0,2,1,4.66,3.69,4.66,1.64,0,3.2-1.24,3.2-3.93"></path><path class="cls-42" d="M335.91,37.58c0,.55.08.87.33,1a.11.11,0,0,1,0,.16,3.16,3.16,0,0,0-.68.13,10.73,10.73,0,0,1-2.45.35,5.68,5.68,0,0,1-4.17-1.52,4.31,4.31,0,0,1-1.26-3.11,4.68,4.68,0,0,1,1.23-3.24,5.66,5.66,0,0,1,4.34-1.6,8.63,8.63,0,0,1,1.74.2,3.75,3.75,0,0,0,.85.13,15.74,15.74,0,0,0,.2,2c0,.11-.28.12-.37,0a2.5,2.5,0,0,0-2.8-1.94A3.63,3.63,0,0,0,329,34.07c0,2.63,1.35,4.7,4.11,4.7.84,0,1.35-.18,1.5-.41a1.5,1.5,0,0,0,.14-.78V37c0-1.15,0-1.23-.89-1.33l-.61-.07a.24.24,0,0,1,0-.34c.4,0,1.16,0,2,0,.54,0,1,0,1.45,0a.24.24,0,0,1,0,.34l-.22,0c-.58.07-.59.45-.59,1.15Z"></path><path class="cls-42" d="M341.72,36.89c0,1.47.09,1.69.82,1.74l.52,0a.26.26,0,0,1,0,.34c-.85,0-1.32,0-1.86,0s-1.07,0-1.8,0a.26.26,0,0,1,0-.34l.42,0c.79-.08.82-.27.82-1.74v-.7a2.71,2.71,0,0,0-.44-1.69l-1.61-3.15c-.47-.91-.67-1-1.08-1l-.39-.07c-.08-.1-.07-.29,0-.34.44,0,.93,0,1.59,0s1.12,0,1.46,0c.13,0,.13.26,0,.34l-.17,0c-.48.08-.58.14-.58.25a7.78,7.78,0,0,0,.42,1.06c.51,1,1,2.09,1.55,3,.43-.72.88-1.51,1.29-2.31a12.45,12.45,0,0,0,.89-1.81c0-.08-.25-.17-.58-.22l-.24,0a.22.22,0,0,1,0-.34c.5,0,.9,0,1.32,0s.81,0,1.27,0a.22.22,0,0,1,0,.34l-.38.07c-.71.12-1.13,1-1.81,2.16L342.37,34a3.18,3.18,0,0,0-.65,2.22Z"></path><path class="cls-42" d="M254.09,53c-.66,0-.68,0-.68.44v1.94c0,1.45.07,1.64.84,1.72l.4,0a.29.29,0,0,1,0,.35c-.74,0-1.21,0-1.75,0s-1.06,0-1.6,0a.27.27,0,0,1,0-.35l.23,0c.77-.13.8-.27.8-1.72v-5c0-1.44-.1-1.68-.81-1.73l-.36,0c-.08,0-.06-.3,0-.34.67,0,1.14,0,1.73,0s1,0,1.6,0c.08,0,.11.29,0,.34l-.27,0c-.8.08-.82.29-.82,1.73V52c0,.43,0,.44.68.44H258c.66,0,.69,0,.69-.44V50.41c0-1.44,0-1.65-.84-1.73l-.26,0c-.08,0-.05-.3,0-.34.63,0,1.1,0,1.67,0s1,0,1.62,0c.08,0,.11.29,0,.34l-.29,0c-.8.08-.83.29-.83,1.73v5c0,1.45,0,1.63.83,1.72l.33,0c.08.06.06.31,0,.35-.66,0-1.13,0-1.66,0s-1.06,0-1.67,0a.28.28,0,0,1,0-.35l.26,0c.84-.13.84-.27.84-1.72V53.43c0-.41,0-.44-.69-.44Z"></path><path class="cls-42" d="M263.23,50.44c0-1.46,0-1.69-.83-1.76l-.35,0c-.08,0-.05-.3,0-.34.69,0,1.15,0,1.73,0s1,0,1.71,0c.08,0,.11.29,0,.34l-.34,0c-.82.07-.85.3-.85,1.76v4.9c0,1.46,0,1.66.85,1.75l.34,0a.29.29,0,0,1,0,.35c-.69,0-1.16,0-1.71,0s-1,0-1.73,0a.28.28,0,0,1,0-.35l.35,0c.81-.09.83-.29.83-1.75Z"></path><path class="cls-42" d="M274.91,56c0,.54.09.88.33,1a.12.12,0,0,1,0,.17,3,3,0,0,0-.68.12,10.91,10.91,0,0,1-2.46.36,5.75,5.75,0,0,1-4.2-1.53A4.32,4.32,0,0,1,266.62,53a4.76,4.76,0,0,1,1.24-3.26,5.69,5.69,0,0,1,4.37-1.61,8.63,8.63,0,0,1,1.74.2,3.39,3.39,0,0,0,.86.13,14.74,14.74,0,0,0,.21,2c0,.11-.29.12-.38,0a2.51,2.51,0,0,0-2.82-2,3.65,3.65,0,0,0-3.84,4c0,2.64,1.36,4.72,4.13,4.72.85,0,1.36-.18,1.51-.41a1.53,1.53,0,0,0,.14-.78v-.56c0-1.16,0-1.24-.89-1.33l-.61-.07a.23.23,0,0,1,0-.35c.4,0,1.16.05,2,.05.54,0,1,0,1.46-.05a.24.24,0,0,1,0,.35l-.22,0c-.57.08-.59.46-.59,1.16Z"></path><path class="cls-42" d="M279.71,53c-.66,0-.69,0-.69.44v1.94c0,1.45.07,1.64.84,1.72l.4,0c.09.06.06.31,0,.35-.75,0-1.22,0-1.75,0s-1.06,0-1.6,0a.28.28,0,0,1,0-.35l.23,0c.78-.13.8-.27.8-1.72v-5c0-1.44-.09-1.68-.81-1.73l-.36,0c-.08,0-.05-.3,0-.34.68,0,1.14,0,1.74,0s1,0,1.59,0c.09,0,.11.29,0,.34l-.26,0c-.8.08-.83.29-.83,1.73V52c0,.43,0,.44.69.44h3.94c.66,0,.69,0,.69-.44V50.41c0-1.44,0-1.65-.84-1.73l-.26,0c-.09,0-.06-.3,0-.34.64,0,1.11,0,1.67,0s1,0,1.63,0c.08,0,.11.29,0,.34l-.29,0c-.8.08-.83.29-.83,1.73v5c0,1.45,0,1.63.83,1.72l.33,0a.29.29,0,0,1,0,.35c-.66,0-1.13,0-1.67,0s-1.06,0-1.67,0a.27.27,0,0,1,0-.35l.26,0c.84-.13.84-.27.84-1.72V53.43c0-.41,0-.44-.69-.44Z"></path><path class="cls-42" d="M293.48,57.66a4.3,4.3,0,0,1-2.15-.51,6.28,6.28,0,0,1-.37-1.93.24.24,0,0,1,.33,0,2.5,2.5,0,0,0,2.37,2,1.57,1.57,0,0,0,1.72-1.58,2.08,2.08,0,0,0-1.13-1.93l-1.31-.85a3,3,0,0,1-1.49-2.37c0-1.31,1-2.37,2.81-2.37a5.14,5.14,0,0,1,1.28.18,2.07,2.07,0,0,0,.48.08,5.79,5.79,0,0,1,.25,1.68.27.27,0,0,1-.34,0,1.8,1.8,0,0,0-1.88-1.55,1.43,1.43,0,0,0-1.63,1.52,2.18,2.18,0,0,0,1.17,1.7l1.1.69a3.08,3.08,0,0,1,1.72,2.64c0,1.52-1.14,2.55-2.93,2.55"></path><path class="cls-42" d="M299.33,49.3a5.88,5.88,0,0,1,3.72-1.17,10.56,10.56,0,0,1,2.43.33,1,1,0,0,0,.39,0c0,.32.08,1.19.19,2a.3.3,0,0,1-.37,0,2.5,2.5,0,0,0-2.82-2c-2.11,0-3.9,1.34-3.9,4.19s1.83,4.49,4.09,4.49a3,3,0,0,0,2.88-2,.29.29,0,0,1,.36.06,5.08,5.08,0,0,1-.67,1.88,3.79,3.79,0,0,0-.48.14,8,8,0,0,1-2.17.32,6.06,6.06,0,0,1-3.43-.92,4.43,4.43,0,0,1-2-3.79,4.56,4.56,0,0,1,1.74-3.65"></path><path class="cls-42" d="M310,53c-.66,0-.69,0-.69.44v1.94c0,1.45.07,1.64.84,1.72l.4,0a.29.29,0,0,1,0,.35c-.74,0-1.21,0-1.75,0s-1.06,0-1.59,0c-.09,0-.11-.26,0-.35l.23,0c.77-.13.8-.27.8-1.72v-5c0-1.44-.1-1.68-.81-1.73l-.36,0c-.08,0-.06-.3,0-.34.67,0,1.14,0,1.73,0s1,0,1.6,0c.08,0,.11.29,0,.34l-.26,0c-.8.08-.83.29-.83,1.73V52c0,.43,0,.44.69.44H314c.66,0,.69,0,.69-.44V50.41c0-1.44,0-1.65-.84-1.73l-.27,0c-.08,0,0-.3,0-.34.64,0,1.1,0,1.67,0s1,0,1.62,0c.09,0,.11.29,0,.34l-.29,0c-.8.08-.83.29-.83,1.73v5c0,1.45,0,1.63.83,1.72l.33,0c.08.06.06.31,0,.35-.66,0-1.13,0-1.66,0s-1.06,0-1.67,0a.28.28,0,0,1,0-.35l.27,0c.84-.13.84-.27.84-1.72V53.43c0-.41,0-.44-.69-.44Z"></path><path class="cls-42" d="M318,53a4.76,4.76,0,0,1,4.9-4.86,4.53,4.53,0,0,1,4.78,4.72,4.71,4.71,0,0,1-4.78,4.81A4.63,4.63,0,0,1,318,53m8.3.29c0-2.27-1-4.73-3.63-4.73-1.44,0-3.3,1-3.3,4,0,2,1,4.68,3.71,4.68,1.65,0,3.22-1.24,3.22-3.95"></path><path class="cls-42" d="M328.82,53a4.76,4.76,0,0,1,4.91-4.86,4.53,4.53,0,0,1,4.78,4.72,4.71,4.71,0,0,1-4.78,4.81A4.64,4.64,0,0,1,328.82,53m8.31.29c0-2.27-1-4.73-3.64-4.73-1.43,0-3.29,1-3.29,4,0,2,1,4.68,3.71,4.68,1.65,0,3.22-1.24,3.22-3.95"></path><path class="cls-42" d="M340.76,50.41c0-1.44,0-1.66-.9-1.73l-.34,0c-.09,0-.06-.3,0-.34.77,0,1.24,0,1.79,0s1,0,1.69,0c.08,0,.11.29,0,.34l-.33,0c-.82.07-.84.29-.84,1.73v4.8c0,.86,0,1.22.28,1.48s.42.32,1.51.32,1.46,0,1.68-.18a3,3,0,0,0,.91-1.36c.08-.07.34,0,.34.08a10.48,10.48,0,0,1-.58,1.93c-.7,0-2,0-3.43,0h-1.26c-.58,0-1,0-1.79,0a.26.26,0,0,1,0-.35l.41,0c.8-.08.83-.27.83-1.72Z"></path><path class="cls-11" d="M231,10.69a15.39,15.39,0,0,1,6,1l2.28.95a1.4,1.4,0,0,0,.59.13,1.22,1.22,0,0,0,.79-.32l.46-.4a.43.43,0,0,1,.36-.13c.55,0,.83.51.83,1.61,0,.38.14,1.48.42,3.33l.53,3.39a12.54,12.54,0,0,1,.16,1.35c0,.68-.23,1-.7,1s-.71-.53-1.07-1.58a11.1,11.1,0,0,0-4.81-5.89,14.77,14.77,0,0,0-8.1-2.31A8.67,8.67,0,0,0,222.8,15a6.68,6.68,0,0,0-2.38,5.23A7.61,7.61,0,0,0,222,25a8.76,8.76,0,0,0,2.94,2.51c1.06.52,3.68,1.48,7.84,2.86q12.18,4,12.17,13.07a12.76,12.76,0,0,1-4.48,10.07A16.8,16.8,0,0,1,229,57.39a24.46,24.46,0,0,1-5.58-.73A14.13,14.13,0,0,1,218.9,55a2.14,2.14,0,0,1-.79-.84,15.65,15.65,0,0,1-.59-2.29c0-.17-.32-1.17-.82-3a18,18,0,0,1-.86-4.22c0-.66.23-1,.67-1s.76.56,1.08,1.61a12.75,12.75,0,0,0,5,6.87A13.71,13.71,0,0,0,230.85,55a11.46,11.46,0,0,0,7.68-2.67,8.23,8.23,0,0,0,3.13-6.49,7.83,7.83,0,0,0-2.89-6.17q-1.49-1.29-8.56-3.66-7.29-2.48-10.34-5.46a10.43,10.43,0,0,1-3-7.77,10.85,10.85,0,0,1,4-8.69A15.32,15.32,0,0,1,231,10.69"></path><path class="cls-10" d="M125.86,21.13V45.84a21.15,21.15,0,0,0,.56,6.11,5.2,5.2,0,0,0,1.64,2.38,7.09,7.09,0,0,0,3.05,1c1.09.15,1.64.42,1.64.81s-.34.77-1,.77a9.48,9.48,0,0,1-1.25-.11,29.82,29.82,0,0,0-3.5-.15l-4.77-.07-3.9.23a14.62,14.62,0,0,1-1.58.1c-.59,0-.89-.22-.89-.68s.34-.63,1-.74c1.68-.28,2.75-.86,3.24-1.73s.72-2.7.72-5.49V20q0-4.1-.94-5.51c-.63-1-2-1.59-4-1.92-.67-.13-1-.39-1.05-.77s.3-.71,1-.71l.59,0a54,54,0,0,0,6.39.3c1.63,0,3,0,4.19-.12l2.21-.18.82,0c.6,0,.89.2.89.61s-.28.67-.85.87l-1.72.66c-1.62.62-2.44,3.25-2.44,7.9"></path><path class="cls-11" d="M216.57,56.22c0-.35-.38-.56-1.06-.65-1.86-.19-3.13-.74-3.78-1.64s-1-2.53-1-4.88V17.21a6,6,0,0,1,.69-2.92,2.57,2.57,0,0,1,1.71-1.46l1.35-.3c.53-.11.79-.34.79-.67s-.26-.65-.79-.65a10.3,10.3,0,0,0-1.22.14,42.28,42.28,0,0,1-4.94.19,42.21,42.21,0,0,1-4.61-.23c-1-.11-1.78-.16-2.24-.16s-.8.18-.82.55.29.64,1,.77a4.8,4.8,0,0,1,3.21,1.94,9.8,9.8,0,0,1,.87,4.83V30.51c0,.61-.13,1-.4,1.19a4,4,0,0,1-1.84.26H186.34a4.54,4.54,0,0,1-2.42-.36c-.25-.24-.38-1-.38-2.25V17.55a6,6,0,0,1,.76-3.48,5.1,5.1,0,0,1,3-1.6c.6-.16.89-.4.89-.75s-.32-.67-1-.67a9.87,9.87,0,0,0-1.39.13,33.51,33.51,0,0,1-4.38.26,52.84,52.84,0,0,1-6-.29l-.62-.08a3.5,3.5,0,0,1,.32,1.58,4.79,4.79,0,0,1,2.3,1.37,6.38,6.38,0,0,1,1.09,4.16V46.5A27.11,27.11,0,0,1,178,53a2.72,2.72,0,0,1-2,2.17l-1.65.4c-.57.13-.85.39-.85.77s.27.61.82.61c.24,0,.93,0,2.07-.14.84-.08,1.53-.11,2.08-.11l2.17-.07,2.77,0a31.12,31.12,0,0,1,4,.15,14.81,14.81,0,0,0,1.61.14c.67,0,1-.22,1-.67s-.44-.75-1.25-.84q-3-.33-4.05-1.71c-.73-.93-1.09-2.53-1.09-4.81V36.8c0-1,.15-1.67.46-1.92a4.33,4.33,0,0,1,2.34-.38h17.08a4,4,0,0,1,2,.26c.2.18.3.78.3,1.82v12.1l0,1.29c0,3.36-1.16,5.24-3.46,5.64-.73.1-1.1.35-1.12.74s.24.66.79.64c.15,0,.91-.05,2.27-.16a15.57,15.57,0,0,1,1.58-.1l2.47-.07,2.44,0a25,25,0,0,1,3.29.13,11.5,11.5,0,0,0,1.71.16c.66,0,1-.25.93-.77"></path><path class="cls-10" d="M167.53,14.59h-9.32c-1,0-1.59.13-1.84.4a3.1,3.1,0,0,0-.39,2V49.52l0,1.3q.16,3.88,4.34,4.62c.78.13,1.16.38,1.16.75s-.3.71-.93.71a11.77,11.77,0,0,1-1.62-.2,28.07,28.07,0,0,0-3-.1l-2.43,0-2.59,0c-.93,0-1.72,0-2.36.1-1.26.14-2,.2-2.23.2-.66,0-1-.23-1-.71s.37-.56,1.1-.65a5.27,5.27,0,0,0,3.45-1.41,6.2,6.2,0,0,0,.9-3.87V17.31l0-.86a2.22,2.22,0,0,0-.35-1.53,2.53,2.53,0,0,0-1.6-.33H140a5.79,5.79,0,0,0-3.9,1.08,7.6,7.6,0,0,0-1.87,4.06Q134,21,133.35,21c-.4,0-.6-.32-.6-.89a14.41,14.41,0,0,1,.4-2.55,19.34,19.34,0,0,0,.5-3.93,3.8,3.8,0,0,1,.35-2c.23-.32.72-.48,1.48-.48h35.73c1.22,0,2,.13,2.21.39a4.13,4.13,0,0,1,.39,2.35,17.42,17.42,0,0,0,.16,2.84c.11.75.18,1.29.2,1.62,0,.66-.21,1-.7,1.06s-.66-.32-.79-1a4.85,4.85,0,0,0-1.4-3.07,6.86,6.86,0,0,0-3.75-.71"></path><path class="cls-10" d="M267.11,97.66v1h-3.17v1.59h3.17v1h-3.17v1.58h3.17V104H262.9V97.66Zm-8.71,5.27a2,2,0,0,0,1.49-.62,2.19,2.19,0,0,0,.45-.67,2.16,2.16,0,0,0,0-1.63,2.21,2.21,0,0,0-.46-.68,2.14,2.14,0,0,0-1.48-.62h-1.06v4.22Zm-2.1-5.27h2.1a3,3,0,0,1,1.22.25,3.52,3.52,0,0,1,1,.68,3.33,3.33,0,0,1,.68,1,3,3,0,0,1,.25,1.22,3,3,0,0,1-.25,1.23,3.16,3.16,0,0,1-.68,1,3.31,3.31,0,0,1-1,.69,3,3,0,0,1-1.23.25h-2.1Zm-3,5.27h-2.91l-.54,1.06h-1.17l3.16-6.33L255,104h-1.18Zm-2.39-1h1.86L251.8,100Zm-4.78,2.1-1.22-2.11h-1.79V104h-1V97.66h3.16a2.11,2.11,0,0,1,1.73,3.3,2.13,2.13,0,0,1-.93.76l1.3,2.27Zm-.89-5.28h-2.12v2.1h2.12a1.06,1.06,0,0,0,1-1,1.06,1.06,0,0,0-1-1.06m-9.78-1h5.28v1h-2.11V104h-1.05V98.71h-2.12Zm-6.62,2.54V104h-1V97.66l3.16,3.16,3.17-3.16V104H233V100.2l-2.1,2.12Zm-5.55-1.49a2,2,0,0,0-1.49.62,2.11,2.11,0,0,0,0,3,2,2,0,0,0,1.49.61,2,2,0,0,0,1.48-.61,2.11,2.11,0,0,0,0-3,2,2,0,0,0-1.48-.62m0-1a3.19,3.19,0,0,1,3.17,3.16,3,3,0,0,1-.94,2.24,3.16,3.16,0,0,1-5.39-2.24,3.05,3.05,0,0,1,.93-2.23,3,3,0,0,1,2.23-.93m-5.88,0a3.14,3.14,0,0,1,1.23.24,3.49,3.49,0,0,1,1,.69l-.75.74a2.09,2.09,0,0,0-2.31-.45,2.08,2.08,0,0,0-.67.45,2.42,2.42,0,0,0-.46.67,2.09,2.09,0,0,0,0,1.65,2.42,2.42,0,0,0,.46.67,2,2,0,0,0,.66.45,2.12,2.12,0,0,0,.83.16,2.06,2.06,0,0,0,1.49-.61l.75.74a3.49,3.49,0,0,1-1,.69,3.14,3.14,0,0,1-1.23.24,3,3,0,0,1-1.23-.25,3.33,3.33,0,0,1-1-.68,3.28,3.28,0,0,1-.68-1,3.05,3.05,0,0,1-.25-1.24,3,3,0,0,1,.25-1.21,3.25,3.25,0,0,1,.68-1,3.52,3.52,0,0,1,1-.68,3,3,0,0,1,1.23-.25"></path><path class="cls-43" d="M196.42,96.56c-1.67.85-2.76,1.92-2.76,3.27,5.35.56,5.61-1,7.81-2.33a11.37,11.37,0,0,0-5.05-.94"></path></g><g class="cls-44"><g class="cls-45"><g class="cls-46"><g class="cls-47"><g class="cls-48"><g class="cls-46"><g class="cls-49"><rect class="cls-50" x="181.84" y="82.75" width="31.44" height="31.44" transform="translate(-0.05 196.85) rotate(-52.96)"></rect></g></g></g></g></g></g></g><g class="cls-7"><path class="cls-43" d="M197.36,95.91a13.22,13.22,0,0,1,4.41-.78c4.66-.15,8.47,2,8.47,4.68-6.39.66-5.09-1.82-8.76-3.2a11.34,11.34,0,0,0-4.12-.7"></path><path class="cls-43" d="M196.42,105.08c-1.67-.84-2.76-1.92-2.76-3.27,5.35-.56,5.61,1,7.81,2.34a11.37,11.37,0,0,1-5.05.93"></path></g><g class="cls-51"><g class="cls-45"><g class="cls-52"><g class="cls-53"><g class="cls-54"><g class="cls-52"><g class="cls-55"><rect class="cls-56" x="181.84" y="87.46" width="31.44" height="31.44" transform="translate(-22.29 139.84) rotate(-37.04)"></rect></g></g></g></g></g></g></g><g class="cls-7"><path class="cls-43" d="M197.36,105.74a13.22,13.22,0,0,0,4.41.78c4.66.15,8.47-2,8.47-4.68-6.39-.67-5.09,1.82-8.77,3.2a11.5,11.5,0,0,1-4.11.7"></path><path class="cls-10" d="M272.93,92.68s0,.26.05.71.07,1.11.1,1.89.06,1.69.08,2.66,0,2,0,3.06,0,2.08,0,3-.06,1.88-.08,2.66-.08,1.43-.1,1.89-.05.71-.05.71,0-.26-.05-.71-.07-1.11-.09-1.89-.07-1.69-.09-2.66,0-2,0-3,0-2.08,0-3.06.06-1.88.09-2.66.07-1.43.09-1.89.05-.71.05-.71"></path><path class="cls-10" d="M117,99.67c0-.78,0-1-.29-1l-.36-.06c-.11,0-.1-.27,0-.3.67,0,1.29-.07,1.93-.07a4.17,4.17,0,0,1,1.44.2,1.46,1.46,0,0,1,1,1.41,1.4,1.4,0,0,1-1,1.38,3.18,3.18,0,0,1-1.1.18.17.17,0,0,1,0-.22,1.26,1.26,0,0,0,1.12-1.37,1.15,1.15,0,0,0-1.31-1.23c-.5,0-.5.07-.5.41v3.24c0,.83,0,.89.57,1l.28,0c.08.06.07.27,0,.3l-1.28,0-1.18,0c-.09,0-.1-.24,0-.3l.18,0c.52-.1.57-.13.57-1Z"></path><path class="cls-10" d="M128.72,100.85a2.78,2.78,0,0,1-2.93,2.81,2.72,2.72,0,0,1-3-2.73,2.82,2.82,0,0,1,3-2.84,2.69,2.69,0,0,1,2.93,2.76m-4.84-.12c0,1.25.57,2.59,2,2.59.91,0,1.79-.63,1.79-2.28,0-1.29-.61-2.6-1.94-2.6-.87,0-1.82.59-1.82,2.29"></path><path class="cls-10" d="M131.18,99.08a.8.8,0,0,0-.57-.48l-.25-.07a.22.22,0,0,1,0-.3c.26,0,.64,0,.91,0s.66,0,1.06,0c.11.06.08.24,0,.3l-.16,0c-.32.08-.25.15.05.76l1.12,2.25c.2.38.35.7.45.87.1-.18.22-.42.45-.88l.2-.44c.09-.17.1-.2,0-.41l-.88-1.8a.59.59,0,0,0-.52-.35l-.22,0a.2.2,0,0,1,0-.3c.24,0,.59,0,.93,0s.67,0,.91,0a.2.2,0,0,1,0,.3l-.15,0c-.22.06-.24.11-.11.39l.11.23c.22.46.31.66.44.9.12-.24.24-.46.36-.71l.2-.44c.12-.28.07-.32-.19-.37l-.22,0a.19.19,0,0,1,0-.3c.17,0,.49,0,.82,0s.63,0,.84,0a.21.21,0,0,1,0,.3l-.21,0c-.39.08-.51.33-.68.61s-.5.88-.63,1.12-.11.21,0,.44l.32.67c.25.49.43.82.52,1,.1-.22.2-.4.49-1.09l.85-2c.29-.69.34-.74,0-.79l-.24,0a.22.22,0,0,1,0-.3c.33,0,.59,0,.91,0s.56,0,.9,0a.19.19,0,0,1,0,.3l-.34.07c-.36.07-.43.19-.8,1l-1.15,2.47c-.24.52-.46,1.05-.69,1.55a.2.2,0,0,1-.14,0,.28.28,0,0,1-.15,0c-.13-.35-.87-2-1.05-2.22-.38.78-.95,1.88-1.08,2.22a.24.24,0,0,1-.15,0,.27.27,0,0,1-.14,0c-.11-.32-.46-1-.58-1.27Z"></path><path class="cls-10" d="M141.4,99.53c0-.83-.05-.87-.51-1l-.17,0a.21.21,0,0,1,0-.3c.35,0,.73,0,1.13,0h1.71c.53,0,1,0,1.12,0,0,.14.07.71.13,1.22,0,.1-.24.11-.31,0a1.73,1.73,0,0,0-.22-.58c-.19-.29-.73-.29-1-.29h-.53c-.43,0-.44,0-.44.39v1.33c0,.22,0,.25.23.25h.57c.64,0,.7-.1.79-.46l.06-.23a.22.22,0,0,1,.31,0c0,.36,0,.57,0,.85s0,.52,0,.87a.21.21,0,0,1-.31,0l-.06-.23c-.09-.36-.15-.46-.79-.46h-.57c-.23,0-.23,0-.23.28v.87a1.76,1.76,0,0,0,.14.87c.1.12.32.17,1,.17s1.22,0,1.57-1a.2.2,0,0,1,.31,0,4.52,4.52,0,0,1-.36,1.34l-2,0h-1.06l-1.34,0c-.1,0-.11-.24,0-.3l.33,0c.52-.06.57-.13.57-1Z"></path><path class="cls-10" d="M148,99.67c0-.78,0-1-.29-1l-.34-.05c-.1,0-.12-.27,0-.3.66,0,1.34-.07,2-.07,1.12,0,2.34.18,2.34,1.44a1.37,1.37,0,0,1-1.07,1.29.15.15,0,0,0,0,.19,7.1,7.1,0,0,0,1.53,1.92,1.11,1.11,0,0,0,.64.26.14.14,0,0,1,0,.19,1.6,1.6,0,0,1-.51.06,1.93,1.93,0,0,1-1.69-.9c-.3-.39-.62-.92-.88-1.31a.55.55,0,0,0-.48-.19c-.31,0-.34,0-.34.19v.86c0,.83.05.89.57,1l.28,0c.08.06.07.27,0,.3l-1.27,0-1.19,0a.17.17,0,0,1,0-.3l.18,0c.52-.1.57-.13.57-1Zm.91.88c0,.3,0,.3.61.3.78,0,1.19-.31,1.19-1.14a1.13,1.13,0,0,0-1.26-1.13c-.45,0-.54,0-.54.33Z"></path><path class="cls-10" d="M155.08,99.53c0-.83-.05-.87-.51-1l-.17,0a.2.2,0,0,1,0-.3c.34,0,.72,0,1.12,0h1.71c.53,0,1,0,1.12,0,0,.14.07.71.13,1.22,0,.1-.24.11-.31,0a1.73,1.73,0,0,0-.22-.58c-.19-.29-.73-.29-1-.29h-.53c-.43,0-.44,0-.44.39v1.33c0,.22,0,.25.23.25h.57c.64,0,.7-.1.79-.46l.06-.23a.22.22,0,0,1,.31,0c0,.36,0,.57,0,.85s0,.52,0,.87a.21.21,0,0,1-.31,0l-.06-.23c-.09-.36-.15-.46-.79-.46h-.57c-.23,0-.23,0-.23.28v.87a1.76,1.76,0,0,0,.14.87c.11.12.32.17,1,.17s1.22,0,1.57-1a.2.2,0,0,1,.31,0,4.52,4.52,0,0,1-.36,1.34l-2,0h-1.06l-1.34,0c-.1,0-.11-.24,0-.3l.33,0c.52-.06.57-.13.57-1Z"></path><path class="cls-10" d="M161.69,99.67c0-.78,0-1-.29-1L161,98.6c-.1,0-.09-.27,0-.3.67,0,1.35-.07,2.33-.07a5.67,5.67,0,0,1,1.83.26,2.35,2.35,0,0,1,1.66,2.36,2.55,2.55,0,0,1-1.46,2.33,4,4,0,0,1-1.82.38c-.54,0-1.08-.06-1.44-.06l-1.23,0c-.1,0-.11-.24,0-.3l.23,0c.52-.08.57-.13.57-1Zm.91,2.38c0,.77.12,1.16,1,1.16,1.45,0,2.16-.91,2.16-2.38a2.17,2.17,0,0,0-2.4-2.25c-.4,0-.63,0-.72.13s-.08.2-.08.47Z"></path><path class="cls-10" d="M174,99.67c0-.78,0-1-.35-1l-.37-.05c-.11,0-.1-.27,0-.3.6,0,1.31-.07,2-.07a4.26,4.26,0,0,1,1.53.18,1.05,1.05,0,0,1,.76,1.06c0,.52-.35.84-1,1.06,0,.08,0,.1.3.16A1.32,1.32,0,0,1,178,102a1.28,1.28,0,0,1-.79,1.25,4,4,0,0,1-1.64.28c-.24,0-.64,0-1.08,0l-1.26,0c-.1,0-.11-.24,0-.3l.23,0c.52-.08.57-.13.57-1Zm.92.64c0,.19,0,.21.41.21.75,0,1.27-.19,1.27-.94s-.54-1-1.15-1-.53.1-.53.32Zm0,1.93c0,.73.15.94.9.94a1,1,0,0,0,1.17-1.07c0-1-.72-1.24-1.51-1.24-.54,0-.56,0-.56.2Z"></path><path class="cls-10" d="M182,101.89a1.68,1.68,0,0,0-.34-1l-.88-1.63c-.25-.48-.38-.59-.69-.65l-.31-.06c-.09-.08-.06-.27,0-.3.4,0,.68,0,1.11,0s.64,0,1,0c.09,0,.13.24,0,.3l-.17,0c-.26.06-.3.14-.11.51l.45.86c.19.36.36.68.54,1,.19-.33.38-.62.58-1l.48-.88c.18-.34.21-.45-.08-.49l-.25,0a.17.17,0,0,1,0-.3l.92,0,.85,0c.1,0,.12.24,0,.3l-.29.06c-.38.07-.44.14-.81.75l-.75,1.2c-.43.69-.46.81-.46,1.16v.65c0,.71.05.78.57.84l.3,0c.09.06.07.27,0,.3l-1.31,0-1.3,0c-.09,0-.11-.24,0-.3l.3,0c.52-.06.57-.13.57-.84Z"></path><path class="cls-57" d="M285.19,94a6.44,6.44,0,1,1-6.43,6.43A6.43,6.43,0,0,1,285.19,94"></path><path class="cls-39" d="M284.15,96.57l-2,6.56h2V96.57m.36,6.56h4.06c.07,0,.12.09.12.19a.18.18,0,0,1-.09.17l-4.19,2.21a.11.11,0,0,1-.08,0,.18.18,0,0,1-.18-.18v-2h-2.33a.18.18,0,0,1-.12-.23l2.45-7.94a.18.18,0,0,1,.18-.14.18.18,0,0,1,.18.18Zm0,2.14,3.35-1.77h-3.35Z"></path><path class="cls-57" d="M293.89,104.23h1.53V95.42h-1.53Zm4.41,0h-1.53V98h1.53Zm-1.67-8a.91.91,0,0,0,1.81,0,.91.91,0,0,0-1.81,0m9.17,8V101c0-2-1.17-3-2.63-3a2.79,2.79,0,0,0-2,.93L301,98h-1.38v6.23h1.53v-3.18a1.63,1.63,0,0,1,1.58-1.73,1.47,1.47,0,0,1,1.5,1.66v3.25Zm1.29-8.81v8.81h1.53v-2.81l2.44,2.81h1.85v-.12L310,100.94l2.53-2.83V98h-1.84l-2.09,2.49V95.42Z"></path><path class="cls-58" d="M318.2,98.46a3.15,3.15,0,0,0-1.76-.57,3,3,0,0,0,0,6c1.15,0,2.35.53,2.35,1.86s-1.11,1.88-2.35,1.88-2.34-.6-2.34-1.88h-.61c0,1.58,1.29,2.49,2.95,2.49s3-.81,3-2.49a2.29,2.29,0,0,0-1.7-2.23,3.06,3.06,0,0,0,.9-4.76l.61-.7-.41-.36Zm-1.76.05a2.24,2.24,0,0,1,2.33,2.42,2.39,2.39,0,0,1-2.33,2.39,2.28,2.28,0,0,1-2.31-2.39,2.2,2.2,0,0,1,2.31-2.42m4.2-.51v6.23h.62V100.6a2.07,2.07,0,0,1,2.05-2.08,2,2,0,0,1,1.06.29l.28-.5a2.49,2.49,0,0,0-1.34-.37,2.19,2.19,0,0,0-2.06,1.17l0-1.11Zm7.82,6.32a3,3,0,0,0,3.16-3.19,3.17,3.17,0,1,0-6.33,0,3,3,0,0,0,3.17,3.19m0-.61a2.46,2.46,0,0,1-2.56-2.58,2.56,2.56,0,1,1,5.11,0,2.45,2.45,0,0,1-2.55,2.58m10.2.52V98H338v3.47a2.16,2.16,0,0,1-2.18,2.26,2,2,0,0,1-2.21-2.15V98H333v3.59a2.6,2.6,0,0,0,2.81,2.75,2.49,2.49,0,0,0,2.22-1.22v1.12Zm4.79-.48a2.62,2.62,0,0,1,0-5.24,2.62,2.62,0,0,1,0,5.24m-2.57,3.07v-4a2.81,2.81,0,0,0,2.57,1.55,3.21,3.21,0,0,0,.14-6.42,3,3,0,0,0-2.7,1.56V98h-.6v8.82Z"></path></g></g></g></g></g></svg> 