<?xml version="1.0" encoding="UTF-8" standalone="no"?>
<!-- Creator: CorelDRAW -->

<svg
   xmlns:dc="http://purl.org/dc/elements/1.1/"
   xmlns:cc="http://creativecommons.org/ns#"
   xmlns:rdf="http://www.w3.org/1999/02/22-rdf-syntax-ns#"
   xmlns:svg="http://www.w3.org/2000/svg"
   xmlns="http://www.w3.org/2000/svg"
   xmlns:sodipodi="http://sodipodi.sourceforge.net/DTD/sodipodi-0.dtd"
   xmlns:inkscape="http://www.inkscape.org/namespaces/inkscape"
   width="500"
   height="499.99994"
   style="fill-rule:evenodd"
   id="svg2"
   sodipodi:version="0.32"
   inkscape:version="0.48.1 "
   sodipodi:docname="AJAX.svg"
   inkscape:output_extension="org.inkscape.output.svg.inkscape"
   version="1.0"
   xml:space="preserve"><metadata
     id="metadata81"><rdf:RDF><cc:Work
         rdf:about=""><dc:format>image/svg+xml</dc:format><dc:type
           rdf:resource="http://purl.org/dc/dcmitype/StillImage" /></cc:Work></rdf:RDF></metadata><sodipodi:namedview
     inkscape:window-height="1004"
     inkscape:window-width="1280"
     inkscape:pageshadow="2"
     inkscape:pageopacity="0.0"
     guidetolerance="10.0"
     gridtolerance="10.0"
     objecttolerance="10.0"
     borderopacity="1.0"
     bordercolor="#666666"
     pagecolor="#ffffff"
     id="base"
     inkscape:zoom="2.0875865"
     inkscape:cx="310.73318"
     inkscape:cy="68.888107"
     inkscape:window-x="-8"
     inkscape:window-y="-8"
     inkscape:current-layer="svg2"
     width="500px"
     height="500px"
     showgrid="false"
     fit-margin-top="0"
     fit-margin-left="0"
     fit-margin-right="0"
     fit-margin-bottom="0"
     inkscape:window-maximized="1"><inkscape:grid
       id="GridFromPre046Settings"
       type="xygrid"
       originx="0px"
       originy="0px"
       spacingx="1px"
       spacingy="1px"
       color="#0000ff"
       empcolor="#0000ff"
       opacity="0.2"
       empopacity="0.4"
       empspacing="20"
       visible="true"
       enabled="true"
       snapvisiblegridlinesonly="true" /></sodipodi:namedview><defs
     id="defs4">
  <style
   type="text/css"
   id="style6">
   
    .fil6 {fill:none}
    .fil4 {fill:#1F1A17}
    .fil1 {fill:#DA251D}
    .fil2 {fill:white}
    .fil0 {fill:#34377B}
    .fil5 {fill:#E7B400}
    .fil3 {fill:#1F1A17;fill-rule:nonzero}
   
  </style>
 
  <metadata
   id="CorelCorpID_0Corel-Layer" />
  
 
   
   
   
   
   
   
   
  
    
    
    
    
    
    
    
    
    
    
    
    
    
    
    
    
    
    
    
    
    
    
    
    
    
    
    
    
    
    
    
    
    
    
    
    
    
    
    
    
    
    
    
    
    
    
    
    
    
   
    
    
    
    
    
   
     
     
    
     
     
    
     
     
    
     
     
    
     
     
    
     
     
    
     
     
    
     
     
    
     
     
    
     
     
    
     
     
    
     
     
    
     
     
    
     
     
    
     
     
    </defs><rect
     style="fill:#002079;fill-opacity:1;stroke:none"
     id="rect4828"
     width="500"
     height="340"
     x="0"
     y="0" /><rect
     style="fill:#c3010d;fill-opacity:1;stroke:none"
     id="rect6919"
     width="500"
     height="155.01004"
     x="0"
     y="344.9899" /><path
     id="_48799360"
     class="fil1"
     d="M -0.26421022,340.88238 C 2.7173488,414.91819 107.05647,412.87944 174.60501,443.6071 c 25.23498,11.47967 53.79883,25.8928 75.36409,56.39241 15.62415,-22.0213 37.21659,-39.89603 74.87991,-56.25951 69.17939,-30.0603 173.67881,-31.60632 176.01192,-104.05072 l -93.69217,-81.23785 -313.44334,0 -93.98963022,82.43095 z"
     style="fill:#c3010d;fill-opacity:1;stroke:none"
     sodipodi:nodetypes="cccccccc"
     inkscape:connector-curvature="0" /><path
     id="path2247"
     style="fill:#ffffff;fill-opacity:1;fill-rule:evenodd;stroke:none"
     d="m 80.41601,315.37713 c -13.940649,0.36132 -22.547819,6.23297 -29.064621,10.95912 -8.497487,7.18909 -45.6816792,16.6628 -54.4647883,13.42668 3.50753027,11.65004 -0.3785785,16.82791 0.6701883,19.7471 15.106507,5.30552 47.700057,-1.73938 60.824561,-10.86921 6.727044,-4.8787 11.237594,-8.54526 23.396256,-8.54526 12.158535,0 16.669148,3.66657 23.396144,8.54526 6.727,4.87865 15.67662,10.95918 30.42618,10.95918 14.74949,0 23.67134,-6.08052 30.39837,-10.95918 6.72704,-4.8787 11.26536,-8.54526 23.42395,-8.54526 12.15875,0 16.66919,3.66657 23.39627,8.54526 6.72703,4.87865 15.64881,10.95918 30.39844,10.95918 14.74947,0 23.69908,-6.08052 30.42615,-10.95918 6.72693,-4.8787 11.23756,-8.54526 23.39616,-8.54526 12.15855,0 16.66915,3.66657 23.39618,8.54526 6.72703,4.87865 15.67665,10.95918 30.42614,10.95918 14.74952,0 23.69917,-6.08052 30.42613,-10.95918 6.72708,-4.8787 11.23771,-8.54526 23.39632,-8.54526 12.15857,0 16.66905,3.66657 23.39612,8.54526 6.72709,4.87865 15.67666,10.95918 30.4262,10.95918 14.74957,0 29.60471,-0.17498 36.33179,-5.05364 10.93722,0.18579 10.39651,-19.44184 -7.03004,-22.30457 -6.72705,4.87865 -17.14314,2.63973 -29.30175,2.63973 -12.15859,0 -16.66911,-3.66663 -23.39623,-8.54527 -6.72705,-4.87853 -15.67668,-10.95912 -30.42609,-10.95912 -14.74959,0 -23.69925,6.08058 -30.42621,10.95912 -6.72707,4.87865 -11.23761,8.54527 -23.39624,8.54527 -12.15861,0 -16.66923,-3.66663 -23.3962,-8.54527 -6.72701,-4.87853 -15.67661,-10.95912 -30.42612,-10.95912 -14.74955,0 -23.69918,6.08058 -30.42622,10.95912 -6.72712,4.87865 -11.23755,8.54527 -23.39609,8.54527 -12.15871,0 -16.66914,-3.66663 -23.39626,-8.54527 -6.72704,-4.87853 -15.64891,-10.95912 -30.39845,-10.95912 -14.74948,0 -23.69919,6.08058 -30.42616,10.95912 -6.72709,4.87865 -11.2376,8.54527 -23.39616,8.54527 -12.15864,0 -16.66914,-3.66663 -23.39621,-8.54527 -6.72707,-4.87853 -15.676653,-10.95912 -30.426114,-10.95912 -0.460961,0 -0.911902,-0.0115 -1.361596,0 z"
     sodipodi:nodetypes="cccccsssssssssssssssccsssssssssssssssc"
     inkscape:connector-curvature="0" /><path
     d="m 80.41601,375.77713 c -13.940649,0.36132 -22.547819,6.23297 -29.064621,10.95912 -6.727047,4.87865 -11.237592,8.54527 -23.396214,8.54527 -12.158603,0 -16.669149,-3.66663 -23.396188,-8.54527 C -1.913977,382.04201 -10.424427,376.25748 -24.2,375.82532 l 0,24.67024 c 10.926045,0.32262 15.345093,3.89539 21.756789,8.54526 C 4.283852,413.91947 13.205647,420 27.955175,420 c 14.749541,0 23.699152,-6.08052 30.426175,-10.95918 6.727044,-4.8787 11.237594,-8.54526 23.396256,-8.54526 12.158535,0 16.669148,3.66657 23.396144,8.54526 6.727,4.87865 15.67662,10.95918 30.42618,10.95918 14.74949,0 23.67134,-6.08052 30.39837,-10.95918 6.72704,-4.8787 11.26536,-8.54526 23.42395,-8.54526 12.15875,0 16.66919,3.66657 23.39627,8.54526 6.72703,4.87865 15.64881,10.95918 30.39844,10.95918 14.74947,0 23.69908,-6.08052 30.42615,-10.95918 6.72693,-4.8787 11.23756,-8.54526 23.39616,-8.54526 12.15855,0 16.66915,3.66657 23.39618,8.54526 C 327.16248,413.91947 336.1121,420 350.86159,420 c 14.74952,0 23.69917,-6.08052 30.42613,-10.95918 6.72708,-4.8787 11.23771,-8.54526 23.39632,-8.54526 12.15857,0 16.66905,3.66657 23.39612,8.54526 6.72709,4.87865 15.67666,10.95918 30.4262,10.95918 14.74957,0 23.69917,-6.08052 30.42625,-10.95918 6.13581,-4.44984 10.43396,-7.87804 20.36739,-8.44861 l 0,-24.71848 c -12.97025,0.76144 -21.14339,6.32704 -27.39743,10.86252 -6.72705,4.87865 -11.2376,8.54527 -23.39621,8.54527 -12.15859,0 -16.66911,-3.66663 -23.39623,-8.54527 -6.72705,-4.87853 -15.67668,-10.95912 -30.42609,-10.95912 -14.74959,0 -23.69925,6.08058 -30.42621,10.95912 -6.72707,4.87865 -11.23761,8.54527 -23.39624,8.54527 -12.15861,0 -16.66923,-3.66663 -23.3962,-8.54527 -6.72701,-4.87853 -15.67661,-10.95912 -30.42612,-10.95912 -14.74955,0 -23.69918,6.08058 -30.42622,10.95912 -6.72712,4.87865 -11.23755,8.54527 -23.39609,8.54527 -12.15871,0 -16.66914,-3.66663 -23.39626,-8.54527 -6.72704,-4.87853 -15.64891,-10.95912 -30.39845,-10.95912 -14.74948,0 -23.69919,6.08058 -30.42616,10.95912 -6.72709,4.87865 -11.2376,8.54527 -23.39616,8.54527 -12.15864,0 -16.66914,-3.66663 -23.39621,-8.54527 -6.72707,-4.87853 -15.676653,-10.95912 -30.426114,-10.95912 -0.460961,0 -0.911902,-0.0115 -1.361596,0 z"
     style="fill:#ffffff;fill-opacity:1;fill-rule:evenodd;stroke:none"
     id="path2511"
     inkscape:connector-curvature="0" /><polygon
     style="fill:#ffffff"
     points="10.2105,5.11694 9.59171,5.11694 9.59171,5.76321 8.48371,5.76321 8.48371,5.136 8.14492,5.13562 8.14492,3.08264 8.54319,2.69907 8.54319,1.46105 7.7777,1.46105 7.7777,1.99215 7.08267,1.99215 7.08267,1.46105 6.13324,1.46105 6.13324,1.99215 5.43821,1.99215 5.43821,1.46105 4.67272,1.46105 4.67272,2.69907 5.07099,3.08264 5.07099,5.13562 4.73221,5.136 4.73221,5.76321 3.6242,5.76321 3.6242,5.11694 3.00542,5.11694 3.00542,4.40579 2.5511,3.8947 2.07763,4.39604 2.07763,6.17341 2.37398,6.52552 1.88426,8.48873 11.3317,8.48873 11.3317,8.48873 10.8419,6.52552 11.1383,6.17341 11.1383,4.39604 10.6648,3.8947 10.2105,4.40579 "
     class="fil2"
     id="_48357912"
     transform="matrix(33.140621,0,0,33.140621,31.291702,-22.898527)" /><path
     style="fill:#1f1a17;fill-rule:nonzero"
     d="m 213.4952,193.26084 0,16.84774 5.04698,0 0,-11.26947 c -1.59379,-2.12505 -2.92195,-3.98447 -5.04698,-5.57827 l 0,0 z m -6.10954,-3.77007 0,20.61781 5.04698,0 0,-17.69587 c -1.65131,-1.35535 -3.13215,-2.28402 -5.04698,-2.92195 l 0,1e-5 z m -6.9064,20.61781 5.84388,0 0.0512,-21.04764 c -1.85942,-0.7969 -4.03573,-1.31666 -5.89514,-1.32816 l 0,22.37579 3e-5,1e-5 z m 81.80628,39.31339 0,8.5002 4.5241,0 0,-8.5002 -4.5241,0 z m 5.58662,8.5002 5.04699,0 0,-8.5002 -5.04699,0 0,8.5002 z m 6.10955,0 6.10953,0 0,-8.5002 -6.10953,0 0,8.5002 z m -7.17207,-40.64166 -4.5241,0 0,24.85851 4.5241,0 0,-24.85851 z m 6.10953,0 -5.04697,0 0,24.85851 5.04697,0 0,-24.85851 z m 7.17207,24.85851 0,-24.85851 -6.10953,0 0,24.85851 6.10953,0 z m -13.01596,-49.03089 c -2.12503,1.59379 -3.19592,3.45322 -4.78974,5.57826 l 0,11.42216 4.78974,0 0,-17.00042 0,0 z m 5.84389,-3.71883 c -1.59377,0.79688 -3.45322,1.85941 -4.78135,2.92194 l 0,17.79731 4.78135,0 0,-20.71925 0,0 z m 7.17207,20.71925 0,-22.37477 c -2.12506,0.26563 -4.25012,0.58146 -6.10953,1.37836 l 0,20.99641 6.10953,0 0,0 z m 0,38.25089 0,-5.31264 -1.85941,0 0,5.31264 1.85941,0 z m 0,-32.14142 0,-5.04699 -1.85941,0 0,5.04699 1.85941,0 z m 11.68781,41.70415 0,-20.9849 -5.04699,0 0,20.9849 5.04699,0 z m -6.10954,0 0,-70.39233 -4.56383,0 c 0,23.64122 0,47.01693 0,70.39233 l 4.56383,0 z m 0.95377,-22.00245 29.59386,0 0,-25.27997 -29.4851,0 -0.10876,25.27997 0,0 z m 73.68882,-42.01469 -7.32684,-7.70331 -12.32988,0 0,23.37558 33.73515,0 c -1.32814,-5.31265 -2.65632,-10.35963 -4.25012,-15.67227 l -9.82837,0 6e-5,0 z m 14.07847,16.73479 -15.67227,0 -0.10876,25.27996 21.78179,0 c -2.12502,-8.5002 -3.87568,-16.77976 -6.00076,-25.27996 l 0,0 z m -3.98448,-17.90816 9.03148,-10.78005 -28.68822,0 9.99362,10.78005 9.66312,0 z m -53.12639,43.18819 40.26717,0 0.10878,-25.27997 -40.37589,0 0,25.27997 -6e-5,0 z m 22.31306,-49.71822 -46.75114,0 0,23.37557 46.75114,0 0,-23.37557 z m 0,71.72061 0,-20.98491 -46.75114,0 0,20.98491 46.75114,0 z M 249.62123,83.136619 l -49.58731,0 0,21.110381 49.58731,0 0,-21.110381 z m 1.06252,-1.062528 49.93862,0 0,-2.063352 -49.93862,-0.109808 0,2.17316 0,0 z m -1.06252,-2.17316 -49.58731,0 0,2.17316 49.58731,0 0,-2.17316 z m 1.06252,-1.01442 50.20441,0 12.48467,-11.953426 -62.68913,0 0,11.953426 5e-5,0 z m -1.06252,-11.953426 -62.24041,-0.09099 12.21802,11.953425 50.02246,0.09099 0,-11.953426 -7e-5,0 z m 15.93789,-40.907128 -30.54763,0 0,17.531688 -24.17247,0 0,-17.531688 -24.17144,0 0,39.84464 c 42.2344,0 84.73525,0 127.23646,0 l 0,-39.84464 -24.4381,0 0,17.531688 -23.90685,0 0,-17.531688 3e-5,0 z M 407.50139,258.9472 c -104.80952,0 -209.62205,0 -314.431583,0 6.147192,-21.64374 10.221603,-43.79799 16.326933,-65.45207 l -9.771913,-11.61144 0,-59.30183 16.225483,-17.18031 15.89397,17.51287 0,23.24381 20.50801,0 0,21.41785 35.02036,0 0,-20.78513 11.55393,-0.0126 c 0,-22.43018 0,-44.86246 0,-67.292699 l -13.19895,-12.711615 0,-41.774085 26.41466,0 0,17.600719 21.98781,0 0,-17.600719 32.51058,0 0,17.600719 21.98781,0 0,-17.600719 26.41467,0 0,41.774085 -13.19895,12.711615 c 0,22.430169 0,44.862459 0,67.292699 l 11.22765,0.0126 0,20.78513 35.67421,0 0,-21.41785 20.24343,0 0,-23.24381 15.83118,-17.51287 16.22548,17.18031 0,59.30183 -9.77191,11.61144 c 6.10536,21.65421 10.17978,43.80825 16.32694,65.45207 l 2e-4,0 z m -156.81778,-154.7001 49.93862,0 0,-21.110377 -49.93862,0 0,21.110377 0,0 z m -50.64979,32.54721 49.58732,0 0,-31.34453 -49.58732,0 0,31.34453 z m 50.64979,0 49.93862,0 0,-31.34453 -49.93862,0 0,31.34453 0,0 z m 120.12613,-14.34409 28.62756,0 -14.65365,-15.33761 -13.97391,15.33761 z m -0.85755,58.43884 30.01636,0 0,-57.37635 -30.01636,0 0,57.37635 z m -119.26844,0 c 39.31338,0 78.89259,0 118.20598,0 l 0,-33.73516 -19.06481,0 0,21.51616 -38.0461,0 0,-20.76738 c -10.8909,0 -22.04742,0 -33.20391,0 l 0,-1.12422 22.04742,0 0,-8.92166 -49.93862,0 0,29.33243 10.35964,0 0,1.21522 -10.35964,0 0,12.48467 4e-5,-6e-5 z m -1.06252,-12.48467 -10.35962,0 0,-1.21521 10.35962,0 0,-29.33243 -49.58731,0 0,8.92166 21.69603,0 0,1.12423 c -10.89091,0 -22.04743,0 -33.20392,0 l 0,20.76736 -37.45287,0 0,-21.51614 -19.39113,0 0,33.73516 117.93952,0 0,-12.48467 -3.2e-4,4e-5 z m -119.00202,12.48467 0,-57.37635 -29.75072,0 0,57.37635 29.75072,0 z m -0.75296,-58.43884 -13.98852,-15.46938 -14.65264,15.56036 28.64116,-0.091 0,1e-5 z m -19.47999,70.28264 9.6077,0 10.094,-10.78107 -28.79907,0 9.09737,10.78107 z m 9.87335,1.17234 -9.82838,0 c -1.32816,5.31264 -2.65632,10.35962 -3.98446,15.67226 l 33.4697,0 0,-23.37557 -12.21904,0 -7.43768,7.70331 -1.4e-4,0 z m 11.42214,-11.95343 -2.92194,3.18758 109.97052,0 c 2.12506,-1.06253 4.25012,-1.59379 6.37517,-2.12505 l -0.20185,-1.06253 -113.22195,0 5e-5,0 z m 31.87577,53.85517 0,-25.16702 -40.41895,0 0,25.16702 40.41895,0 z m -57.37634,-25.16702 c -2.12506,8.50021 -3.98447,16.66682 -6.10955,25.16702 l 22.04743,0 0,-25.16702 -15.93788,0 z m -6.375169,26.29752 c -1.593781,7.17206 -3.187573,14.07846 -5.312639,20.9849 l 46.219898,0 0,-20.9849 -40.907123,0 -1.36e-4,0 z m 41.969949,20.9849 45.95312,0 0,-20.9849 -45.95312,0 0,20.9849 z m 52.06258,-22.1154 0,-25.16702 -29.2613,0 0,25.16702 29.2613,0 z m -52.85961,-49.60522 0,23.37558 46.75015,0 0,-23.37558 -46.75015,0 z m 78.36033,71.72062 61.89211,0 0,-8.5002 -10.35962,0 0,-7.28292 10.35962,0 0,-24.85852 -10.35962,0 0,-7.17206 3.18756,0 c 1.32817,-2.65632 2.12506,-4.25011 3.45322,-6.64079 -3.45322,-9.82837 -12.3163,-17.56409 -22.41031,-19.42351 l -1.06148,5.61067 -0.96632,-0.26563 1.32817,-7.43768 -8.50022,0 1.32815,7.7033 -0.8931,0.0648 -1.06357,-5.64312 c -2.12504,0.26563 -4.15285,1.06253 -6.2779,1.85942 -7.70329,3.71885 -12.48466,9.29711 -15.93787,17.79731 1.32815,2.39069 2.12504,3.71884 3.18756,6.37517 0.53127,0 3.18758,0 3.18758,0 l 0,7.17206 -10.09401,0 0,24.85851 10.09401,0 0,7.28292 -10.09401,0 0,8.5002 5e-5,3e-5 z m -30.54762,-71.72062 0,23.37558 5.04699,0 0,-23.10996 5.76021,0.13805 c 10.11598,0.24263 17.11967,6.50587 22.66236,16.06548 2.39069,-6.37516 7.70332,-13.01594 14.34411,-16.46917 l -47.81365,0 -2e-5,2e-5 z m 6.06142,71.72062 4.56383,0 c 0,-23.37557 0,-46.69977 0,-70.34097 l -4.56383,-0.10981 0,70.451 0,-2.2e-4 z m -6.06142,0 5.04699,0 0,-20.9849 -5.04699,0 0,20.9849 z m 211.97404,-20.9849 -40.11043,0 0,20.9849 45.42288,0 c -1.85944,-6.90641 -3.71885,-13.81284 -5.31266,-20.9849 l 2.1e-4,0 z m -182.48884,12.48466 -4.78136,0 0,8.50021 4.78136,0 0,-8.50021 z m -5.84388,8.50021 0,-8.50021 -4.78136,0 0,8.50021 4.78136,0 z m -5.8439,0 0,-8.50021 -6.10952,0 0,8.50021 6.10952,0 z m -6.10952,-9.56273 1.8594,0 0,-5.31264 -1.8594,0 0,5.31264 z m 0,-6.2204 6.10952,0 0,-24.85851 -6.10952,0 0,24.85851 z m 0,-25.92104 1.8594,0 0,-5.04697 -1.8594,0 0,5.04697 z m 19.12548,-16.2035 0,10.094 5.57825,0 c -1.59377,-3.45321 -3.45321,-6.90641 -5.57825,-10.094 z m -11.95342,17.26606 0,24.85852 4.78136,0 0,-24.85852 -4.78136,0 z m 5.84388,0 0,24.85852 4.78136,0 0,-24.85852 -4.78136,0 z m 14.87537,-6.10953 c -8.23458,0 -16.62395,0 -25.12414,0 l 0,5.04697 c 8.50019,0 16.88956,0 25.12414,0 l 0,-5.04697 z m 0,31.87577 c -8.23458,0 -16.62395,0 -25.12414,0 l 0,5.31264 c 8.50019,0 16.88956,0 25.12414,0 l 0,-5.31264 z m 43.56366,-31.87577 0,5.04697 c 8.50023,0 16.7348,0 25.23501,0 l 0,-5.04697 c -8.50021,0 -16.73478,0 -25.23501,0 l 0,0 z m 0,31.87577 0,5.31264 c 8.50023,0 16.7348,0 25.23501,0 l 0,-5.31264 -25.23501,0 0,0 z m 39.84464,-56.84511 -48.0794,0 c 6.90641,3.45321 12.21903,9.56273 14.60974,16.20351 6.32495,-10.43181 12.36754,-15.00713 22.82445,-15.8898 l 5.59814,-0.0481 0,23.10995 5.04698,0 0,-23.37557 9e-5,2e-5 z m -30.54761,13.81284 c -2.39069,3.18758 -4.25012,6.64079 -5.84389,10.094 l 5.84389,0 0,-10.094 z m 87.92408,-18.06296 -113.69026,0 -0.16837,1.06252 c 2.39069,0.53127 4.41848,1.06253 6.27788,2.12506 l 110.61345,0 -3.03277,-3.18758 7e-5,0 z"
     class="fil3"
     id="_48797152"
     inkscape:connector-curvature="0" /><path
     style="fill:#1f1a17"
     d="m 225.58455,168.39908 14.04713,0 0,-31.12176 -17.95313,0 0,10.47572 3.89347,0 0.0126,20.64604 -4e-5,0 z m 50.10201,0 -14.92034,0 0.0188,-31.12176 18.0933,0 0.0125,10.47572 -3.20642,0 0.002,20.64604 0,0 z m -54.00795,-76.629402 17.95313,0 0,29.226782 -17.95313,0 0,-29.226782 0,0 z m 39.25904,0 17.95314,0 0,29.226782 -17.95314,0 0,-29.226782 0,0 z m -149.80157,38.827222 9.0325,0 0,27.36007 -9.0325,0 0,-27.36007 z m 269.26457,0 9.03357,0 0,27.36007 -9.03357,0 0,-27.36007 z"
     class="fil4"
     id="_49102512"
     inkscape:connector-curvature="0" /><path
     style="fill:#002079;fill-opacity:1"
     d="m 265.07361,258.25788 -29.8062,-10e-4 0.0701,-44.81838 c 0.0262,-16.88435 28.29186,-19.05855 29.73611,-0.73415 l 0,45.55377 2e-5,-2e-4 z"
     class="fil0"
     id="_49101872"
     inkscape:connector-curvature="0" /><path
     style="fill:#1f1a17"
     d="m 235.66594,258.46402 0,-44.84059 c 0,-16.81634 27.71666,-18.98116 29.13056,-0.73204 l 0,45.57265 9.3515,-0.0126 0,-9.12769 -3.21476,0 0,-7.0842 3.21476,0 0,-25.04361 -3.21372,0 0,-7.01938 3.15724,0 c -1.3177,-13.34434 -11.29144,-19.82614 -20.8343,-20.73496 -0.84709,-0.0805 -1.70255,-0.11922 -2.54025,-0.11608 -1.22462,0.006 -2.43879,0.0973 -3.61424,0.26144 -9.70914,1.36477 -17.76804,8.27326 -20.84059,20.59064 l 3.12276,0 0,7.01623 -3.22104,0 0,25.0112 3.21372,0 0,7.13232 -3.21372,0 0,9.12663 9.50207,0 1e-5,-10e-6 z"
     class="fil4"
     id="_49818904"
     inkscape:connector-curvature="0" /><path
     style="fill:#e7b400"
     d="m 107.62748,311.34785 23.89219,10.12325 c 0.0115,2.04558 -0.24888,4.01692 2.85712,5.69539 4.49065,2.42833 15.01027,8.26175 22.35594,14.56581 3.25556,31.00253 24.36487,55.13936 67.02193,70.99152 17.03074,-14.24477 35.54762,-14.91617 53.41606,0 17.23676,-5.49148 35.97314,-11.66792 50.57457,-22.73035 l 39.5633,0.0408 c -0.74882,-15.03434 -6.09177,-22.99909 -13.52319,-27.75431 6.53411,-9.02206 9.37974,-18.6894 9.1915,-29.67441 l 13.55766,0 0,-8.17392 -8.2764,-7.06016 -32.32339,0 -6.89597,7.06016 0,8.17392 8.71669,0 c -57.2027,47.18828 -106.91034,31.07577 -155.00764,-2.1439 l -0.006,-0.004 c -5.84809,-4.7531 -12.50769,-11.32908 -16.25163,-17.69482 l -58.872,-7.53495 0.009,6.11998 1.2e-4,1.7e-4 z"
     class="fil5"
     id="_49819584"
     inkscape:connector-curvature="0" /><path
     id="_49766344"
     class="fil2"
     d="m 225.10865,369.09869 c 2.41684,0 4.3871,1.97028 4.3871,4.38707 0,2.41682 -1.97028,4.38816 -4.3871,4.38816 -2.41682,0 -4.38707,-1.97134 -4.38707,-4.38816 0,-2.41679 1.97027,-4.38707 4.38707,-4.38707 z"
     style="fill:#ffffff"
     inkscape:connector-curvature="0" /><path
     id="_48960560"
     class="fil3"
     d="m 225.10865,368.6049 0.007,0 c 1.34072,0.002 2.5622,0.55219 3.44484,1.43691 0.87848,0.88058 1.42648,2.09476 1.43065,3.43016 l 0,0.0157 0,0.007 c -0.002,1.34279 -0.55323,2.56426 -1.43483,3.4459 l -0.002,0 c -0.88057,0.87949 -2.09578,1.42645 -3.43019,1.43062 l -0.0157,0 -0.007,0 c -1.34176,-0.002 -2.5622,-0.55322 -3.4459,-1.43795 -0.87743,-0.87951 -1.42542,-2.09475 -1.42959,-3.43018 l 0,-0.0157 0,-0.007 c 0.002,-1.34171 0.55216,-2.56214 1.43692,-3.44587 0.8795,-0.8774 2.09366,-1.42542 3.43016,-1.42959 l 0.0157,0 0,0 z m 0.007,0.99141 -0.007,0 -0.0157,0 c -1.06461,0.003 -2.03301,0.4403 -2.7337,1.13888 -0.70277,0.70277 -1.14097,1.67532 -1.142,2.74517 l 0,0.007 0,0.0157 c 0.003,1.0636 0.44028,2.03306 1.13887,2.73372 0.70276,0.70278 1.67535,1.14203 2.74521,1.14306 l 0.007,0 0.0157,0 c 1.06252,-0.003 2.03092,-0.43922 2.73266,-1.13885 l -10e-4,-0.001 c 0.70382,-0.70381 1.14306,-1.67643 1.1441,-2.74521 l 0,-0.007 0,-0.0157 c -0.003,-1.06358 -0.44028,-2.03301 -1.13991,-2.73368 -0.70069,-0.70278 -1.67432,-1.14097 -2.74418,-1.14202 l 0,0 z"
     style="fill:#1f1a17;fill-rule:nonzero"
     inkscape:connector-curvature="0" /><path
     id="_47871768"
     class="fil2"
     d="m 203.87083,374.44757 c 2.41683,0 4.38709,1.97028 4.38709,4.3871 0,2.41685 -1.97029,4.38816 -4.38709,4.38816 -2.41684,0 -4.38709,-1.97131 -4.38709,-4.38816 0,-2.41682 1.97027,-4.3871 4.38709,-4.3871 z"
     style="fill:#ffffff"
     inkscape:connector-curvature="0" /><path
     id="_48489112"
     class="fil3"
     d="m 203.87083,373.95046 0.007,0 c 1.3407,0.002 2.56218,0.55219 3.44484,1.43691 0.87846,0.88058 1.42646,2.09476 1.43063,3.4302 l 0,0.0157 0,0.007 c -0.002,1.3428 -0.55323,2.56426 -1.43483,3.44591 l -0.002,0 c -0.88057,0.87948 -2.09578,1.42644 -3.43019,1.43061 l -0.0157,0 -0.007,0 c -1.34176,-0.002 -2.5622,-0.55321 -3.4459,-1.43793 -0.87742,-0.87953 -1.42542,-2.09476 -1.4296,-3.4302 l 0,-0.0157 0,-0.007 c 0.002,-1.34174 0.55218,-2.56217 1.43693,-3.4459 0.87951,-0.8774 2.09368,-1.42541 3.43019,-1.42959 l 0.0157,0 2e-5,0 z m 0.007,0.99141 -0.007,0 -0.0157,0 c -1.06462,0.003 -2.03303,0.4403 -2.73372,1.13888 -0.70276,0.70277 -1.14096,1.67536 -1.142,2.7452 l 0,0.007 0,0.0157 c 0.003,1.06358 0.44028,2.03304 1.13887,2.7337 0.70279,0.70279 1.67535,1.14203 2.74521,1.14306 l 0.007,0 0.0157,0 c 1.06253,-0.003 2.03093,-0.43921 2.73266,-1.13885 l -0.001,-0.001 c 0.70384,-0.70381 1.14306,-1.67642 1.1441,-2.74521 l 0,-0.007 0,-0.0157 c -0.003,-1.06358 -0.44028,-2.03304 -1.13991,-2.7337 -0.70067,-0.70279 -1.67432,-1.14098 -2.74416,-1.14203 l 0,0 z"
     style="fill:#1f1a17;fill-rule:nonzero"
     inkscape:connector-curvature="0" /><path
     id="_48961768"
     class="fil2"
     d="m 209.73008,389.63591 c 2.41684,0 4.3871,1.97029 4.3871,4.3871 0,2.41683 -1.97028,4.38817 -4.3871,4.38817 -2.41682,0 -4.38709,-1.97134 -4.38709,-4.38817 0,-2.41681 1.97029,-4.3871 4.38709,-4.3871 z"
     style="fill:#ffffff"
     inkscape:connector-curvature="0" /><path
     id="_49003856"
     class="fil3"
     d="m 209.73008,389.14212 0.007,0 c 1.34072,0.002 2.56221,0.55219 3.44484,1.43691 0.87848,0.88058 1.42647,2.09476 1.43065,3.4302 l 0,0.0157 0,0.007 c -0.002,1.34279 -0.55323,2.56426 -1.43483,3.44589 l -0.002,0 c -0.88057,0.8795 -2.09577,1.42645 -3.43019,1.43062 l -0.0157,0 -0.007,0 c -1.34177,-0.002 -2.5622,-0.55321 -3.44591,-1.43794 -0.87742,-0.87952 -1.42542,-2.09475 -1.42959,-3.43019 l 0,-0.0157 0,-0.007 c 0.002,-1.34174 0.55217,-2.56218 1.43691,-3.44591 0.87953,-0.8774 2.09369,-1.42542 3.4302,-1.42959 l 0.0157,0 0,0 z m 0.007,0.9914 -0.007,0 -0.0157,0 c -1.06461,0.003 -2.033,0.44032 -2.7337,1.13889 -0.70276,0.70278 -1.14096,1.67536 -1.14199,2.74521 l 0,0.007 0,0.0157 c 0.003,1.06358 0.44028,2.03304 1.13887,2.7337 0.70277,0.70279 1.67535,1.14203 2.74521,1.14306 l 0.007,0 0.0157,0 c 1.06251,-0.003 2.03093,-0.43922 2.73266,-1.13884 l -0.001,-10e-4 c 0.70382,-0.70381 1.14307,-1.67642 1.1441,-2.7452 l 0,-0.007 0,-0.0157 c -0.003,-1.06358 -0.44028,-2.03304 -1.1399,-2.73371 -0.7007,-0.70278 -1.67432,-1.14096 -2.74418,-1.14203 l 0,0 z"
     style="fill:#1f1a17;fill-rule:nonzero"
     inkscape:connector-curvature="0" /><path
     id="_49692392"
     class="fil2"
     d="m 233.10384,385.94408 c 2.41682,0 4.38709,1.97025 4.38709,4.38707 0,2.41681 -1.97029,4.38815 -4.38709,4.38815 -2.41682,0 -4.38709,-1.97134 -4.38709,-4.38815 0,-2.41682 1.97027,-4.38707 4.38709,-4.38707 z"
     style="fill:#ffffff"
     inkscape:connector-curvature="0" /><path
     id="_49692616"
     class="fil3"
     d="m 233.10384,385.45029 0.007,0 c 1.34071,0.002 2.5622,0.55219 3.44484,1.43688 0.87847,0.88058 1.42646,2.09475 1.43065,3.43018 l 0,0.0157 0,0.007 c -0.002,1.34279 -0.55323,2.56426 -1.43483,3.44591 l -0.002,0 c -0.88056,0.87948 -2.09578,1.42643 -3.43019,1.43062 l -0.0157,0 -0.007,0 c -1.34175,-0.002 -2.5622,-0.55323 -3.44591,-1.43795 -0.8774,-0.87952 -1.42542,-2.09476 -1.42958,-3.43019 l 0,-0.0157 0,-0.007 c 0.002,-1.34173 0.55218,-2.56218 1.43691,-3.4459 0.87952,-0.87736 2.09369,-1.42538 3.43019,-1.42955 l 0.0157,0 2e-5,0 z m 0.007,0.9914 -0.007,0 -0.0157,0 c -1.06462,0.003 -2.03302,0.44027 -2.7337,1.13884 -0.70277,0.70278 -1.14096,1.67536 -1.14201,2.74521 l 0,0.007 0,0.0157 c 0.003,1.06358 0.44028,2.03306 1.13887,2.73371 0.70278,0.70278 1.67537,1.14203 2.74521,1.14306 l 0.007,0 0.0157,0 c 1.06252,-0.003 2.03093,-0.43921 2.73266,-1.13885 l -0.001,-0.001 c 0.70382,-0.70381 1.14305,-1.67643 1.1441,-2.74522 l 0,-0.007 0,-0.0157 c -0.003,-1.0636 -0.44028,-2.03306 -1.13992,-2.73372 -0.70068,-0.70278 -1.67432,-1.14093 -2.74416,-1.14199 l 0,0 z"
     style="fill:#1f1a17;fill-rule:nonzero"
     inkscape:connector-curvature="0" /><path
     id="_48610576"
     class="fil2"
     d="m 249.83654,374.54368 c 2.41682,0 4.38708,1.97028 4.38708,4.3871 0,2.41682 -1.97028,4.38816 -4.38708,4.38816 -2.41683,0 -4.38709,-1.97134 -4.38709,-4.38816 0,-2.41685 1.97027,-4.3871 4.38709,-4.3871 z"
     style="fill:#ffffff"
     inkscape:connector-curvature="0" /><path
     id="_48611312"
     class="fil3"
     d="m 249.83654,374.04989 0.007,0 c 1.3407,0.002 2.5622,0.55219 3.44484,1.43691 0.87846,0.88058 1.42646,2.09476 1.43065,3.4302 l 0,0.0157 0,0.007 c -0.002,1.34279 -0.55325,2.56426 -1.43483,3.44591 l -0.002,0 c -0.88055,0.87948 -2.09576,1.42644 -3.43017,1.43062 l -0.0157,0 -0.007,0 c -1.34177,-0.002 -2.5622,-0.55322 -3.44591,-1.43795 -0.87742,-0.87952 -1.42539,-2.09475 -1.42958,-3.43019 l 0,-0.0157 0,-0.007 c 0.002,-1.34173 0.55216,-2.56216 1.4369,-3.4459 0.87953,-0.87739 2.0937,-1.42541 3.4302,-1.42958 l 0.0157,0 2e-5,0 z m 0.007,0.9914 -0.007,0 -0.0157,0 c -1.06463,0.003 -2.03302,0.4403 -2.73369,1.13888 -0.70279,0.70278 -1.14097,1.67535 -1.14202,2.7452 l 0,0.007 0,0.0157 c 0.003,1.06358 0.44029,2.03305 1.13887,2.73371 0.70278,0.70277 1.67537,1.14203 2.74521,1.14305 l 0.007,0 0.0157,0 c 1.06253,-0.003 2.03094,-0.43921 2.73266,-1.13885 l -0.001,-10e-4 c 0.70382,-0.70381 1.14305,-1.67642 1.1441,-2.74522 l 0,-0.007 0,-0.0157 c -0.003,-1.06359 -0.44028,-2.03306 -1.13992,-2.73371 -0.70068,-0.70279 -1.67432,-1.14097 -2.74416,-1.14203 l 0,0 z"
     style="fill:#1f1a17;fill-rule:nonzero"
     inkscape:connector-curvature="0" /><path
     id="_48978264"
     class="fil2"
     d="m 276.70595,373.00595 c 2.41685,0 4.38709,1.97028 4.38709,4.3871 0,2.41681 -1.97026,4.38816 -4.38709,4.38816 -2.41682,0 -4.38707,-1.97135 -4.38707,-4.38816 0,-2.41685 1.97027,-4.3871 4.38707,-4.3871 z"
     style="fill:#ffffff"
     inkscape:connector-curvature="0" /><path
     id="_48566232"
     class="fil3"
     d="m 276.70595,372.50884 0.007,0 c 1.3407,0.002 2.56219,0.55219 3.44483,1.43692 0.87847,0.88058 1.42647,2.09476 1.43065,3.43019 l 0,0.0157 0,0.007 c -0.002,1.34279 -0.55322,2.56426 -1.43483,3.44591 l -0.002,0 c -0.88056,0.87948 -2.09576,1.42644 -3.4302,1.43061 l -0.0157,0 -0.007,0 c -1.34174,-0.002 -2.56218,-0.55321 -3.44588,-1.43794 -0.87742,-0.87952 -1.42542,-2.09475 -1.4296,-3.43019 l 0,-0.0157 0,-0.007 c 0.002,-1.34173 0.55218,-2.56217 1.43691,-3.4459 0.87951,-0.8774 2.09368,-1.42541 3.4302,-1.42959 l 0.0157,0 2e-5,0 z m 0.007,0.99141 -0.007,0 -0.0157,0 c -1.06463,0.003 -2.03304,0.4403 -2.7337,1.13887 -0.70278,0.70278 -1.14097,1.67536 -1.14201,2.74521 l 0,0.007 0,0.0157 c 0.003,1.06358 0.44028,2.03304 1.13887,2.73371 0.70277,0.70277 1.67536,1.14203 2.74519,1.14305 l 0.007,0 0.0157,0 c 1.06254,-0.003 2.03094,-0.43921 2.73266,-1.13885 l -10e-4,-0.001 c 0.70382,-0.70381 1.14303,-1.67643 1.14409,-2.74521 l 0,-0.007 0,-0.0157 c -0.003,-1.06359 -0.44028,-2.03306 -1.13991,-2.73371 -0.70069,-0.70279 -1.67432,-1.14098 -2.74417,-1.14203 l 0,0 z"
     style="fill:#1f1a17;fill-rule:nonzero"
     inkscape:connector-curvature="0" /><path
     id="_48979920"
     class="fil2"
     d="m 297.93883,380.38638 c 2.41682,0 4.38709,1.97029 4.38709,4.3871 0,2.41679 -1.97028,4.38812 -4.38709,4.38812 -2.41683,0 -4.38709,-1.97133 -4.38709,-4.38812 0,-2.41681 1.97026,-4.3871 4.38709,-4.3871 z"
     style="fill:#ffffff"
     inkscape:connector-curvature="0" /><path
     id="_48979128"
     class="fil3"
     d="m 297.93883,379.89259 0.007,0 c 1.34071,0.002 2.5622,0.55219 3.44484,1.43691 0.87846,0.88058 1.42646,2.09476 1.43064,3.4302 l 0,0.0157 0,0.007 c -0.002,1.34281 -0.55324,2.56424 -1.43483,3.44588 l -0.002,0 c -0.88056,0.87949 -2.09577,1.42644 -3.4302,1.43061 l -0.0157,0 -0.007,0 c -1.34175,-0.002 -2.5622,-0.55321 -3.44591,-1.43793 -0.87742,-0.87953 -1.42542,-2.09473 -1.42959,-3.43017 l 0,-0.0157 0,-0.007 c 0.002,-1.34173 0.55217,-2.56217 1.43692,-3.4459 0.87952,-0.8774 2.09368,-1.42542 3.43019,-1.42959 l 0.0157,0 2e-5,0 z m 0.007,0.9914 -0.007,0 -0.0157,0 c -1.06462,0.003 -2.03303,0.44031 -2.7337,1.13888 -0.70277,0.70279 -1.14096,1.67537 -1.14202,2.74521 l 0,0.007 0,0.0157 c 0.003,1.06358 0.44028,2.03302 1.13887,2.73368 0.70279,0.70278 1.67538,1.14203 2.74522,1.14305 l 0.007,0 0.0157,0 c 1.06253,-0.003 2.03094,-0.43921 2.73267,-1.13885 l -10e-4,-10e-4 c 0.70382,-0.70381 1.14305,-1.67639 1.1441,-2.74519 l 0,-0.007 0,-0.0157 c -0.003,-1.06359 -0.44028,-2.03305 -1.13992,-2.73371 -0.70068,-0.70279 -1.67431,-1.14096 -2.74416,-1.14203 l 0,0 z"
     style="fill:#1f1a17;fill-rule:nonzero"
     inkscape:connector-curvature="0" /><path
     id="_48977080"
     class="fil2"
     d="m 266.96028,388.01202 c 2.41685,0 4.3871,1.97028 4.3871,4.3871 0,2.41686 -1.97027,4.38816 -4.3871,4.38816 -2.41681,0 -4.38709,-1.9713 -4.38709,-4.38816 0,-2.41682 1.97029,-4.3871 4.38709,-4.3871 z"
     style="fill:#ffffff"
     inkscape:connector-curvature="0" /><path
     id="_48451528"
     class="fil3"
     d="m 266.96028,387.51823 0.007,0 c 1.34072,0.002 2.56221,0.55219 3.44484,1.43691 0.87848,0.88058 1.42648,2.09476 1.43065,3.4302 l 0,0.0157 0,0.007 c -0.002,1.34279 -0.55322,2.56426 -1.43482,3.4459 l -0.002,0 c -0.88056,0.87949 -2.09576,1.42645 -3.4302,1.43062 l -0.0157,0 -0.007,0 c -1.34176,-0.002 -2.56219,-0.55321 -3.4459,-1.43794 -0.87742,-0.87952 -1.42542,-2.09475 -1.42959,-3.43019 l 0,-0.0157 0,-0.007 c 0.002,-1.34174 0.55217,-2.56217 1.43691,-3.4459 0.87952,-0.8774 2.09368,-1.42542 3.4302,-1.42959 l 0.0157,0 0,0 z m 0.007,0.9914 -0.007,0 -0.0157,0 c -1.06463,0.003 -2.03303,0.44031 -2.73372,1.13889 -0.70276,0.70277 -1.14096,1.67535 -1.142,2.7452 l 0,0.007 0,0.0157 c 0.003,1.06358 0.44027,2.03304 1.13887,2.7337 0.70278,0.70278 1.67536,1.14203 2.74521,1.14306 l 0.007,0 0.0157,0 c 1.06254,-0.003 2.03094,-0.43922 2.73266,-1.13885 l -0.001,-0.001 c 0.70382,-0.70381 1.14306,-1.67642 1.1441,-2.74521 l 0,-0.007 0,-0.0157 c -0.003,-1.06358 -0.44028,-2.03304 -1.13991,-2.73371 -0.70069,-0.70278 -1.67432,-1.14097 -2.74418,-1.14203 l 0,0 z"
     style="fill:#1f1a17;fill-rule:nonzero"
     inkscape:connector-curvature="0" /><path
     id="_48828120"
     class="fil2"
     d="m 291.99671,394.98483 c 2.41683,0 4.38708,1.97028 4.38708,4.3871 0,2.41678 -1.97027,4.38813 -4.38708,4.38813 -2.41683,0 -4.38709,-1.97135 -4.38709,-4.38813 0,-2.41682 1.97028,-4.3871 4.38709,-4.3871 z"
     style="fill:#ffffff"
     inkscape:connector-curvature="0" /><path
     id="_48826744"
     class="fil3"
     d="m 291.99671,394.48771 0.007,0 c 1.3407,0.002 2.56219,0.55219 3.44484,1.43693 0.87846,0.88058 1.42646,2.09474 1.43065,3.43018 l 0,0.0157 0,0.007 c -0.002,1.34279 -0.55325,2.56423 -1.43484,3.44587 l -0.002,0 c -0.88055,0.87949 -2.09577,1.42644 -3.43018,1.43062 l -0.0157,0 -0.007,0 c -1.34173,-0.002 -2.56219,-0.55322 -3.44589,-1.43795 -0.87742,-0.87952 -1.42542,-2.09472 -1.42959,-3.43016 l 0,-0.0157 0,-0.007 c 0.002,-1.34173 0.55217,-2.56218 1.43691,-3.44591 0.87951,-0.8774 2.09368,-1.4254 3.4302,-1.42959 l 0.0157,0 1e-5,0 z m 0.007,0.99141 -0.007,0 -0.0157,0 c -1.06463,0.003 -2.03302,0.44031 -2.7337,1.13888 -0.70279,0.70278 -1.14096,1.67536 -1.14201,2.74521 l 0,0.007 0,0.0157 c 0.003,1.06358 0.44028,2.03301 1.13887,2.73367 0.70276,0.70279 1.67536,1.14203 2.74519,1.14306 l 0.007,0 0.0157,0 c 1.06254,-0.003 2.03093,-0.43921 2.73266,-1.13884 l -10e-4,-0.001 c 0.70382,-0.70381 1.14305,-1.67639 1.1441,-2.74517 l 0,-0.007 0,-0.0157 c -0.003,-1.06358 -0.44028,-2.03304 -1.13992,-2.7337 -0.70068,-0.70278 -1.67432,-1.14097 -2.74417,-1.14203 l 0,0 z"
     style="fill:#1f1a17;fill-rule:nonzero"
     inkscape:connector-curvature="0" /><path
     style="fill:#1f1a17"
     d="m 299.67175,384.10808 12.34978,23.28562 -2.6469,1.25076 -12.64364,-22.56925 c -1.47354,-2.63226 1.92844,-3.87467 2.94077,-1.96713 l -1e-5,0 z m -5.66506,14.7227 5.50504,13.92786 c -0.95898,0.30434 -2.02255,0.60658 -3.14051,0.86489 l -5.4998,-13.15504 c -1.16293,-2.78286 2.34047,-3.64773 3.13527,-1.63771 l 0,0 z m -15.575,-22.2273 9.65267,38.47164 c -0.89729,0.10979 -1.82386,0.16106 -2.77134,0.17465 l -10.20488,-37.43202 c -0.79271,-2.91045 2.79751,-3.30891 3.32355,-1.21418 l 0,-9e-5 z m -9.61817,15.82391 1.6147,15.34388 -3.48355,-2.03931 -1.59168,-12.56728 c -0.37962,-2.99308 3.23254,-2.88742 3.46053,-0.73729 l 0,0 z m -17.13741,-13.25021 -0.54276,22.21266 -3.13007,0.12132 0.14641,-22.05892 c 0.0199,-3.01713 3.57868,-2.43461 3.52643,-0.27506 l -1e-5,0 z m -16.87389,11.61561 -2.535,15.98393 c -1.11377,0.60134 -2.42624,1.46724 -3.71359,2.32584 l 2.718,-18.53774 c 0.43821,-2.98574 3.86842,-1.9044 3.53061,0.22797 l -2e-5,0 z m -8.03693,-16.69399 -8.81288,41.17592 c -1.10122,0.26768 -2.27251,0.47895 -3.32457,0.55007 l 8.62256,-42.13067 c 0.60551,-2.95539 3.96564,-1.7088 3.51493,0.40471 l -4e-5,-3e-5 z m -15.76324,21.22755 -7.97313,18.73957 c -0.9182,-0.41622 -1.83747,-0.87429 -2.7588,-1.37627 l 7.34672,-18.3924 c 1.11898,-2.80167 4.22917,-0.9569 3.38523,1.02906 l -2e-5,4e-5 z m -5.87212,-15.39515 -16.12612,26.75243 -2.56952,-1.20371 15.49869,-27.06305 c 1.49757,-2.61762 4.31178,-0.33466 3.19697,1.5143 l -2e-5,3e-5 z"
     class="fil4"
     id="_49918344"
     inkscape:connector-curvature="0" /><path
     style="fill:#1f1a17;fill-rule:nonzero"
     d="m 329.19739,389.50004 37.58678,0.0387 c -0.4131,-7.18669 -1.89916,-12.70744 -4.16853,-17.00463 -2.22859,-4.22185 -5.22479,-7.27348 -8.70728,-9.57945 -0.0544,0.0753 -0.11085,0.15162 -0.16627,0.22692 -0.0282,0.0387 -0.0554,0.0764 -0.0837,0.114 -3.58602,4.92361 -7.41468,9.67464 -11.53823,14.159 -4.01062,4.35469 -8.30988,8.43225 -12.92289,12.04545 l 9e-5,0 z m 24.54476,-26.31845 c -0.0282,0.0376 -0.0554,0.0764 -0.0836,0.114 m 13.64972,27.23559 -39.39925,-0.0408 c -7.30383,5.50823 -15.62939,9.80959 -24.27392,13.41546 -8.68219,3.62055 -17.62475,6.50171 -26.57257,9.37451 -11.00279,-9.19674 -24.34398,-13.95402 -38.3795,-8.87568 -5.30008,1.91696 -10.13165,4.98009 -14.45182,8.56926 l -0.001,-10e-4 -0.37753,0.31689 c -17.8747,-6.69416 -35.59767,-15.84795 -48.74854,-30.0425 -11.04252,-11.91893 -17.17087,-25.73594 -18.84099,-41.26372 -3.62055,-3.08616 -8.00347,-6.06352 -12.03814,-8.56611 -4.0859,-2.53397 -7.83719,-4.59936 -10.0825,-5.81354 -2.59566,-1.40136 -3.12692,-3.14472 -3.11751,-5.83448 -7.98778,-3.30473 -15.93372,-6.71925 -23.89221,-10.094 l -0.0104,-7.00683 59.58617,7.63743 c 2.95752,5.03026 7.09677,9.44143 11.33954,13.40605 0.84291,0.78748 1.68686,1.54776 2.51409,2.26728 l 0.002,0 c 3.54104,3.08089 7.77235,5.70686 11.87915,8.50437 6.06875,4.13195 12.66248,7.66773 19.48316,11.11993 14.49155,7.33523 30.32592,12.28598 44.95028,13.58799 25.14818,2.24216 51.41005,-5.27601 79.49175,-28.08897 l -7.82566,0 0,-8.6696 0.14118,-0.34514 7.04341,-7.21074 32.71455,0 8.58805,7.32999 0,8.89549 -13.55242,0 c 0.046,5.35554 -0.62749,10.40459 -2.10101,15.21943 -1.47353,4.81591 -3.74602,9.40172 -6.88864,13.8275 3.59334,2.38653 6.69202,5.54897 9.00217,9.92461 2.39173,4.52827 3.93639,10.34709 4.31391,17.93846 l 0.0262,0.51978 -0.52184,-0.001 -10e-5,-2e-4 z m -25.62302,-14.0722 c 4.1999,-4.56696 8.06201,-9.4456 11.6993,-14.46856 3.23149,-4.46343 5.5542,-9.08898 7.04237,-13.95509 1.44426,-4.72069 2.10937,-9.67566 2.06231,-14.9329 l -4.40173,0 c -7.66464,21.43564 -22.91542,37.98746 -41.75421,49.03719 -46.75445,27.42384 -116.47206,20.70774 -145.93739,-29.52693 -2.31014,-3.93848 -4.57428,-7.53497 -6.89387,-10.8794 -2.27042,-3.27546 -4.59313,-6.30614 -7.0612,-9.17894 l -24.42557,-10.33662 c 0,2.13238 0.61389,3.44381 2.59566,4.51366 2.24323,1.21312 5.99869,3.28064 10.13268,5.84493 4.10891,2.54859 9.0409,5.5124 12.4669,8.93841 6.51425,8.46254 9.73529,15.64719 12.58612,22.00347 3.09346,6.90016 5.74665,12.8162 11.7453,18.30035 14.00734,12.80471 32.71663,19.54586 50.72834,24.42868 l -1.31664,0.71007 c -17.86008,-4.89747 -36.19088,-11.70871 -50.08111,-24.40673 -6.14299,-5.61592 -8.83695,-11.62294 -11.97749,-18.62872 -2.67618,-5.9694 -5.6818,-12.67396 -11.46294,-20.47452 1.88137,14.67351 7.87795,27.77002 18.3997,39.12614 10.91705,11.784 26.71062,21.70752 47.82522,29.58758 2.37711,-1.97027 4.79184,-3.68643 7.23586,-5.13382 2.45867,-1.45782 4.94768,-2.64479 7.45336,-3.55152 12.79632,-4.62973 26.03713,-1.97761 38.93062,8.69476 8.53368,-2.7201 17.43026,-5.61384 25.9796,-9.17895 0.60344,-0.25203 1.20789,-0.50824 1.80818,-0.7676 -10.7654,3.1991 -22.43331,5.04281 -33.54692,5.75918 l -1.54256,-0.94434 c 13.9718,-0.53439 29.26759,-3.23989 42.21983,-8.12057 11.02792,-4.85249 21.41263,-13.67166 29.49036,-22.45947 l -8e-5,2.6e-4 z m 15.35016,-43.35655 -6.43895,0 c -15.76013,37.14337 -61.26144,52.71018 -98.8797,51.31927 l -0.16314,-0.006 c -20.6586,-0.79478 -41.22925,-8.71776 -60.67583,-24.53956 -8.10074,-6.58954 -15.4537,-14.08997 -22.1363,-22.10491 l -0.0147,-0.0178 -10.28015,-4.35051 c 2.02988,2.45656 3.96774,5.02818 5.86901,7.77027 2.32898,3.35801 4.6067,6.97541 6.93152,10.94004 29.18288,49.75897 98.2974,56.32546 144.58625,29.17554 18.55131,-10.88147 33.58238,-27.14461 41.20207,-48.18614 l -1.2e-4,7e-5 z m -7.52029,0 -3.86629,0 c -14.00002,13.9645 -25.67947,24.12858 -39.8907,30.70556 -14.25105,6.59479 -31.02033,9.57318 -55.18643,9.14649 -17.99393,-0.31791 -36.3059,-5.83343 -53.87207,-17.64146 -7.31533,-4.91731 -14.09103,-10.64621 -20.29363,-16.90109 -0.55742,0.62643 -1.11691,1.25494 -1.66909,1.88558 l -0.003,-10e-4 -0.001,10e-4 c -1.32711,-0.56787 -2.66049,-1.12845 -3.98969,-1.69107 6.30927,7.41466 13.20107,14.35562 20.75797,20.50172 19.27082,15.67854 39.64082,23.52828 60.08824,24.31576 l 0.16315,0.006 c 37.07441,1.37836 82.0174,-13.85781 97.76284,-50.3277 l -1.1e-4,-6e-5 z m -5.26662,0 -2.20872,0 c -16.80484,13.01594 -28.866,21.8205 -41.78667,27.45521 -12.95322,5.6494 -26.73782,8.10595 -46.96854,8.41343 -20.49235,0.31268 -39.77041,-6.78827 -56.20419,-18.28677 -6.4536,-4.51469 -12.47736,-9.69869 -17.92907,-15.38051 -0.6965,0.78329 -1.393,1.58019 -2.08844,2.36662 6.15239,6.22873 12.91765,11.93459 20.18694,16.82057 17.39783,11.69511 35.52675,17.15729 53.33651,17.47206 24.00933,0.42354 40.64698,-2.52452 54.75793,-9.0545 13.84422,-6.40756 25.29251,-16.27987 38.90442,-29.80618 l -1.7e-4,7e-5 z m -3.82237,0 -2.49631,0 c -28.66206,23.59627 -55.46779,31.3686 -81.13884,29.0804 -25.55815,-2.27879 -49.97011,-14.74466 -73.96689,-31.27133 -1.09286,1.24868 -2.09682,2.60297 -3.01607,3.64773 19.12341,19.88892 45.2913,33.85017 73.46381,33.42034 20.09389,-0.30539 33.76665,-2.73686 46.58578,-8.32767 12.56,-5.47785 24.34503,-14.00734 40.56842,-26.54954 l 10e-5,7e-5 z m -4.28463,-15.23408 -5.91605,6.05726 44.96587,0.0115 -7.11349,-6.06875 -31.93649,0 1.6e-4,0 z m -6.6073,7.04866 0,7.19398 8.21891,0 0.003,-0.001 c 12.76182,0 25.52258,0.001 38.28237,0.001 l 0,-7.18249 -46.50423,-0.0115 -1.9e-4,0 z m -154.08733,13.07347 6.68683,-7.62803 c -0.69338,-0.56892 -1.48921,-1.05311 -2.17943,-1.65339 l -4.4049,5.05429 -0.10248,4.2271 -2e-5,3e-5 z m -9.2584,-24.76753 -56.43714,-7.22438 65.16871,26.97939 4.29089,-4.87235 c -4.89849,-4.34843 -9.64851,-9.23439 -13.02222,-14.88269 l -2.4e-4,3e-5 z m -58.06567,-6.83113 0,4.63184 66.3578,28.05238 0.0722,-5.18089 -66.42971,-27.50333 -2.5e-4,0 z"
     class="fil3"
     id="_48826640"
     inkscape:connector-curvature="0" /><path
     style="fill:#e7b400"
     d="m 353.11167,363.20296 c 0.22484,-0.30747 0.45073,-0.61389 0.67348,-0.9224 m -0.69963,0.95797 c -9.71647,13.29621 -9.76562,13.31818 0,0 z"
     class="fil5"
     id="_48825680"
     inkscape:connector-curvature="0" /><path
     style="fill:#ffffff"
     d="m 279.28696,281.23826 36.47523,21.33209 c -4.67259,1.67641 -9.47278,4.0169 -13.25755,7.29234 -12.02454,10.4119 -10.21951,26.11241 4.56805,47.13491 -6.86774,-2.27773 -12.74094,-4.60987 -18.64444,-8.64246 -12.25357,-8.36949 -21.76608,-22.06518 -25.04674,-47.1369 3.31308,-7.53912 7.87902,-14.52397 15.90548,-19.97989 l -3e-5,-9e-5 z"
     class="fil2"
     id="_49907176"
     inkscape:connector-curvature="0" /><path
     style="fill:#1f1a17;fill-rule:nonzero"
     d="m 279.53683,280.8124 36.47523,21.33209 0.91403,0.53544 -0.99768,0.35662 c -2.31853,0.83141 -4.66634,1.82805 -6.89389,3.01712 -2.22545,1.18802 -4.34424,2.57267 -6.20677,4.18211 -5.87633,5.0909 -8.23144,11.5832 -7.3101,19.37226 0.93181,7.87486 4.93093,16.66368 12.27658,27.10594 l -1.19848,0.70069 c -3.44799,-1.14407 -5.89094,-1.93053 -9.12142,-3.41766 -3.23464,-1.48815 -6.35111,-3.20222 -9.32535,-5.23315 -6.18376,-4.22398 -11.67838,-9.7949 -16.03933,-17.47104 -4.34944,-7.6552 -7.56944,-17.40722 -9.21762,-30.01115 l 0.0366,-0.26144 c 1.67328,-3.80773 3.66237,-7.47534 6.24234,-10.87417 2.58939,-3.41136 5.77697,-6.56025 9.83673,-9.31908 l 0.25726,-0.1736 0.27192,0.15896 -4e-5,6e-5 z m 35.0747,21.65733 -35.29872,-20.64395 c -3.84436,2.65212 -6.87923,5.66297 -9.35149,8.92063 -2.50887,3.3047 -4.44463,6.8604 -6.07191,10.54683 1.63667,12.39997 4.80544,21.9899 9.07957,29.51228 4.27836,7.52972 9.66943,12.99503 15.73816,17.14056 2.92717,1.99852 5.99553,3.68538 9.18102,5.15159 2.74625,1.26542 5.58873,2.37188 8.5065,3.37793 -6.91479,-10.07312 -10.94631,-19.02299 -11.86034,-26.75037 -0.96214,-8.12998 1.50176,-14.91199 7.64684,-20.23608 1.92426,-1.66282 4.10264,-3.08823 6.38875,-4.30762 1.96399,-1.04893 4.01061,-1.94413 6.04153,-2.71175 l 9e-5,-5e-5 z"
     class="fil3"
     id="_49906416"
     inkscape:connector-curvature="0" /><path
     style="fill:none"
     d="m 261.96435,304.80919 36.18757,56.08487 m -95.97989,-58.55517 35.57382,65.05041 m -10.67546,-2.36035 -27.53468,-60.22216 m -2.00061,2.41056 21.14176,54.70224 m 42.08792,-53.58872 28.81058,55.74286 m -30.16384,-50.39161 22.22728,52.30847 m 21.15851,-89.68317 33.13701,41.06322 m -35.27788,-38.20915 28.38181,45.26945 m -25.50585,-15.35747 16.94185,39.50394 m -17.96987,-38.7152 13.24601,41.75023 m -14.01259,-41.0609 9.79384,43.5206"
     class="fil6"
     id="_49905280"
     inkscape:connector-curvature="0" /><path
     style="fill:#e7b400"
     d="m 197.84155,340.47183 -0.20078,9.79698 -2.51618,-1.78098 0.0429,-9.66313 c 0.82722,0.52813 1.8155,1.12109 2.67408,1.64713 l 0,0 z"
     class="fil5"
     id="_49015048"
     inkscape:connector-curvature="0" /><path
     style="fill:#1f1a17;fill-rule:nonzero"
     d="m 198.33734,340.48177 -0.20079,9.79698 -0.0188,0.936 -0.76342,-0.5407 -2.51619,-1.78097 -0.21021,-0.14851 0.001,-0.2583 0.0429,-9.66312 0.004,-0.92032 0.76654,0.51033 10e-4,10e-4 0.001,-10e-4 c 0.68605,0.43716 1.33024,0.82935 1.94727,1.20583 l 0,-10e-4 c 0.25622,0.15481 0.50303,0.30539 0.70905,0.43192 l 0.24262,0.14957 -0.006,0.28236 2e-5,0 z m -1.17338,8.84323 0.17569,-8.57654 c -0.15791,-0.0962 -0.3127,-0.19349 -0.46224,-0.28343 l 0,-0.001 c -0.41204,-0.25101 -0.83351,-0.50617 -1.21836,-0.74461 l -0.0377,8.51275 1.54256,1.09285 0,0 z"
     class="fil3"
     id="_49013976"
     inkscape:connector-curvature="0" /><path
     style="fill:#e7b400"
     d="m 197.53534,307.21786 0.21229,23.93609 c -1.06671,-1.87407 -2.12192,-3.94576 -2.74312,-5.78006 l 0.004,-13.53361 c 0.62224,-1.60738 1.46933,-3.152 2.52664,-4.62242 l 0,0 z"
     class="fil5"
     id="_48599016"
     inkscape:connector-curvature="0" /><path
     style="fill:#1f1a17;fill-rule:nonzero"
     d="m 198.03079,307.21355 0.2123,23.9361 -0.92554,0.24786 c -0.54068,-0.95065 -1.07822,-1.94937 -1.55405,-2.93342 -0.48212,-0.99667 -0.91088,-1.99434 -1.22776,-2.93139 l -0.0272,-0.15895 0.004,-13.5336 0.0366,-0.18406 0.006,-0.0157 0.002,10e-4 c 0.0931,-0.24156 0.18616,-0.47268 0.27713,-0.6829 0.10249,-0.23844 0.20708,-0.46748 0.30851,-0.68081 l 0.001,0 c 0.54592,-1.14828 1.21208,-2.26939 1.99015,-3.34864 l 0.89625,0.28446 0,0 z m -0.7969,21.96687 -0.17987,-20.34066 c -0.37335,0.60866 -0.71429,1.22882 -1.01547,1.86257 l 0,0.002 c -0.10668,0.2238 -0.20602,0.44134 -0.29387,0.64525 -0.0889,0.20392 -0.16837,0.40263 -0.24053,0.58669 l -0.004,13.35268 c 0.29907,0.87429 0.70068,1.80714 1.15454,2.74419 0.1851,0.38274 0.38171,0.7676 0.57937,1.14719 l 0,0 z"
     class="fil3"
     id="_48598720"
     inkscape:connector-curvature="0" /><polygon
     style="fill:#e7b400"
     points="5.01631,8.83748 5.01631,9.06314 4.94007,9.0035 4.94007,8.83748 4.94007,8.83748 "
     class="fil5"
     id="_48597960"
     transform="matrix(33.140621,0,0,33.140621,31.291702,-22.898527)" /><path
     style="fill:#1f1a17;fill-rule:nonzero"
     d="m 195.00869,269.4856 2.52664,0 0.49571,0 0,0.49571 0,7.47848 0,1.01546 -0.80003,-0.62642 -2.52663,-1.97656 -0.19138,-0.14954 0,-0.23949 0,-5.50191 0,-0.49571 0.4957,0 -1e-5,-2e-5 z m 2.03093,0.99142 -1.53522,0 0,4.76671 1.53522,1.20162 0,-5.96836 0,3e-5 z"
     class="fil3"
     id="_47871320"
     inkscape:connector-curvature="0" /><path
     style="fill:#e7b400"
     d="m 252.74463,350.10248 0.26666,18.31604 -5.58974,-0.10668 0.31269,-21.22231 c 0,-0.001 0.001,0.002 0.003,0.002 0.002,0.001 0.006,0.003 0.008,0.004 0.003,0.002 0.006,0.003 0.009,0.006 1.65027,1.03535 3.29424,2.03931 4.98948,3.00039 l 0,0 z"
     class="fil5"
     id="_48503392"
     inkscape:connector-curvature="0" /><path
     style="fill:#1f1a17;fill-rule:nonzero"
     d="m 253.5072,368.41268 0.008,0.51245 -0.5114,-0.0105 -5.58977,-0.10669 -0.49465,-0.009 0.006,-0.49257 0.32523,-22.01083 c 2.07068,1.03327 3.97506,2.37921 5.98614,3.51912 l 0.26982,18.59839 -1e-5,0 z m -0.99875,-0.49883 -0.15791,-17.94373 c -1.36058,-0.77808 -2.76926,-1.58963 -4.10054,-2.4158 l -0.32526,20.27167 4.58371,0.0879 0,0 z"
     class="fil3"
     id="_48502632"
     inkscape:connector-curvature="0" /><polygon
     style="fill:#e7b400"
     points="6.63956,8.3205 6.56644,8.27932 6.57096,7.97411 6.63536,7.97691 6.63536,7.97691 "
     class="fil5"
     id="_48834656"
     transform="matrix(33.140621,0,0,33.140621,31.291702,-22.898527)" /><path
     style="fill:#1f1a17;fill-rule:nonzero"
     d="m 251.9708,253.71166 -3.89351,-2.14493 0.16106,-10.8909 3.57661,0.28864 0.15581,12.74718 3e-5,1e-5 z m -1.01338,-1.72766 -0.12237,-10.02497 -1.61992,-0.29595 -0.13805,9.33892 1.88034,0.982 0,0 z"
     class="fil3"
     id="_48834296"
     inkscape:connector-curvature="0" /><path
     style="fill:#e7b400"
     d="m 290.86927,280.40344 c 2.18465,1.28528 4.74997,-0.25308 2.68141,-3.17084 l -67.98301,-39.23916 c -2.64901,-1.3062 -3.51804,1.90544 -2.61553,2.43566 l 67.91705,39.97454 8e-5,-2e-4 z"
     class="fil5"
     id="_49878792"
     inkscape:connector-curvature="0" /><path
     style="fill:#1f1a17;fill-rule:nonzero"
     d="m 291.11914,279.97792 c 0.66827,0.39217 1.7883,0.6327 2.40324,0.002 0.57938,-0.5961 0.25726,-2.04244 -0.31478,-2.3729 L 225.32202,238.4242 c -0.75089,-0.36185 -1.29679,-0.28028 -1.64817,-0.009 -0.14745,0.11295 -0.26772,0.26354 -0.35871,0.42564 -0.0931,0.16733 -0.15791,0.35139 -0.18824,0.52708 l -0.002,0.002 c -0.0544,0.30642 -0.0314,0.56996 0.0774,0.63376 l 67.91706,39.97454 -1.2e-4,-6e-5 z m 1.99746,1.30306 c -0.7425,0.17465 -1.65025,0.046 -2.49735,-0.45178 l -67.91707,-39.97455 c -0.48525,-0.28446 -0.67452,-0.96108 -0.55008,-1.65654 l -0.002,0 c 0.0491,-0.27923 0.15058,-0.57205 0.30117,-0.84082 0.1527,-0.27086 0.35872,-0.52499 0.61807,-0.72473 0.62958,-0.48525 1.54359,-0.66199 2.71698,-0.0826 l 0.0293,0.0136 67.98299,39.23917 c 0.78226,0.48943 1.0981,1.81236 0.99143,2.68663 -0.0586,0.47479 -0.25936,0.87429 -0.55846,1.18071 -0.29282,0.29909 -0.67872,0.50825 -1.11481,0.61074 l -8e-5,2e-4 z"
     class="fil3"
     id="_49878616"
     inkscape:connector-curvature="0" /><polygon
     style="fill:#e7b400"
     points="8.07461,9.39767 8.1464,9.43967 8.13343,9.11032 8.07461,9.10975 8.07461,9.10975 "
     class="fil5"
     id="_49877968"
     transform="matrix(33.140621,0,0,33.140621,31.291702,-22.898527)" /><path
     style="fill:#1f1a17;fill-rule:nonzero"
     d="m 299.38509,279.50533 0,8.75854 1.3522,0.79167 -0.37545,-9.54079 -0.97675,-0.009 0,0 z m -0.99142,9.0409 0,-9.54181 0,-0.49989 0.49989,0.004 1.94936,0.0188 0.47375,0.005 0.0178,0.4706 0.42981,10.91496 0.0356,0.90356 -0.78119,-0.45805 -2.37919,-1.39195 -0.24576,-0.14327 0,-0.28237 0,-2e-5 z"
     class="fil3"
     id="_48842088"
     inkscape:connector-curvature="0" /><path
     style="fill:#e7b400"
     d="m 298.88929,354.12245 0.15792,6.34273 4.15285,-1.79354 -0.17047,-2.87171 c -1.39822,-0.52711 -2.77866,-1.08347 -4.14028,-1.67748 l -2e-5,0 z"
     class="fil5"
     id="_48841008"
     inkscape:connector-curvature="0" /><path
     style="fill:#1f1a17;fill-rule:nonzero"
     d="m 299.40396,354.88137 0.12133,4.83573 3.1583,-1.36478 -0.13073,-2.20554 c -0.60551,-0.23006 -1.2058,-0.46642 -1.79353,-0.70381 -0.44133,-0.1778 -0.89207,-0.36395 -1.35537,-0.5616 l 0,0 z m -0.85232,5.59289 -0.15791,-6.34273 -0.0188,-0.77493 0.71218,0.31059 c 0.64526,0.28133 1.32921,0.56893 2.04454,0.85756 0.69232,0.28026 1.38568,0.55112 2.07276,0.80945 l 0.30223,0.11397 0.0188,0.32002 0.17047,2.87173 0.0209,0.29075 -0.32105,0.19347 -4.15287,1.79354 -0.67243,0.29071 -0.0188,-0.73413 0,0 z"
     class="fil3"
     id="_48749544"
     inkscape:connector-curvature="0" /><path
     style="fill:#e7b400"
     d="m 298.88929,313.73729 0,28.76875 c 1.10541,2.43143 2.43044,4.94763 3.97612,7.55269 l -1.12737,-39.50692 c -1.0803,1.01129 -2.02465,2.07381 -2.84873,3.18548 l -2e-5,0 z"
     class="fil5"
     id="_48748784"
     inkscape:connector-curvature="0" /><path
     style="fill:#1f1a17;fill-rule:nonzero"
     d="m 299.38509,313.903 0,28.49579 c 0.53649,1.17753 1.12525,2.37394 1.76425,3.58705 0.36811,0.69964 0.75924,1.41077 1.16501,2.12926 l -1.03951,-36.41258 c -0.23426,0.2405 -0.46538,0.48316 -0.68709,0.73205 -0.43191,0.48418 -0.8335,0.97782 -1.20266,1.46829 l 0,1.4e-4 z m -0.99142,28.60141 0,-28.76874 0.0983,-0.29386 c 0.42564,-0.57519 0.87951,-1.13156 1.35535,-1.66595 0.47686,-0.53443 0.99559,-1.06567 1.55405,-1.58754 l 0.80212,-0.74775 0.0303,1.09599 1.12736,39.50693 -0.92133,0.26566 c -0.7718,-1.30097 -1.49445,-2.59045 -2.1648,-3.86318 -0.66826,-1.26856 -1.28215,-2.51724 -1.83641,-3.7387 l -0.045,-0.20289 0,3e-5 z"
     class="fil3"
     id="_49680360"
     inkscape:connector-curvature="0" /><path
     id="_48836640"
     class="fil5"
     d="m 299.65088,273.5493 c 1.34279,0 2.43983,1.09495 2.43983,2.4388 0,1.34175 -1.09704,2.43879 -2.43983,2.43879 -1.34281,0 -2.43775,-1.09704 -2.43775,-2.43879 0,-1.34385 1.09494,-2.4388 2.43775,-2.4388 z"
     style="fill:#e7b400"
     inkscape:connector-curvature="0" /><path
     id="_48836504"
     class="fil4"
     d="m 299.65187,272.6207 c 1.85418,0 3.36745,1.51222 3.36745,3.36851 0,1.85315 -1.51327,3.36643 -3.36745,3.36643 -1.85524,0 -3.36746,-1.51327 -3.36746,-3.36643 0,-1.85628 1.51222,-3.36851 3.36746,-3.36851 z m -10e-4,0.92866 c 1.34281,0 2.43983,1.09495 2.43983,2.43775 0,1.3428 -1.09702,2.43983 -2.43983,2.43983 -1.34279,0 -2.43774,-1.09703 -2.43774,-2.43983 0,-1.3428 1.09495,-2.43775 2.43774,-2.43775 z"
     style="fill:#1f1a17"
     inkscape:connector-curvature="0" /><path
     id="_48811016"
     class="fil5"
     d="m 250.2213,236.20214 c 1.34279,0 2.43984,1.09495 2.43984,2.43879 0,1.34176 -1.09705,2.4388 -2.43984,2.4388 -1.3428,0 -2.43774,-1.09704 -2.43774,-2.4388 0,-1.34384 1.09494,-2.43879 2.43774,-2.43879 z"
     style="fill:#e7b400"
     inkscape:connector-curvature="0" /><path
     id="_49107880"
     class="fil4"
     d="m 250.2223,235.27355 c 1.85419,0 3.36745,1.51221 3.36745,3.3685 0,1.85315 -1.51326,3.36643 -3.36745,3.36643 -1.85524,0 -3.36747,-1.51327 -3.36747,-3.36643 0,-1.85627 1.51223,-3.3685 3.36747,-3.3685 z m -10e-4,0.92865 c 1.3428,0 2.43983,1.09495 2.43983,2.43775 0,1.3428 -1.09703,2.43984 -2.43983,2.43984 -1.34279,0 -2.43774,-1.09704 -2.43774,-2.43984 0,-1.3428 1.09495,-2.43775 2.43774,-2.43775 z"
     style="fill:#1f1a17"
     inkscape:connector-curvature="0" /><path
     id="_48759296"
     class="fil5"
     d="m 196.28329,264.81509 c 1.3428,0 2.43983,1.09495 2.43983,2.4388 0,1.34175 -1.09703,2.43878 -2.43983,2.43878 -1.3428,0 -2.43776,-1.09703 -2.43776,-2.43878 0,-1.34385 1.09496,-2.4388 2.43776,-2.4388 z"
     style="fill:#e7b400"
     inkscape:connector-curvature="0" /><path
     id="_49106864"
     class="fil4"
     d="m 196.2846,263.88649 c 1.85419,0 3.36745,1.51222 3.36745,3.36852 0,1.85314 -1.51326,3.36642 -3.36745,3.36642 -1.85524,0 -3.36745,-1.51326 -3.36745,-3.36642 0,-1.85629 1.51221,-3.36852 3.36745,-3.36852 z m -0.001,0.92867 c 1.34281,0 2.43985,1.09494 2.43985,2.43774 0,1.34279 -1.09704,2.43983 -2.43985,2.43983 -1.34278,0 -2.43774,-1.09704 -2.43774,-2.43983 0,-1.3428 1.09496,-2.43774 2.43774,-2.43774 z"
     style="fill:#1f1a17"
     inkscape:connector-curvature="0" /><path
     id="_48723304"
     class="fil5"
     d="m 292.43484,277.04563 c 0.98617,0 1.79144,0.80423 1.79144,1.79041 0,0.98618 -0.80526,1.79144 -1.79144,1.79144 -0.9862,0 -1.7904,-0.80526 -1.7904,-1.79144 0,-0.98618 0.8042,-1.79041 1.7904,-1.79041 z"
     style="fill:#e7b400"
     inkscape:connector-curvature="0" /><path
     id="_48747688"
     class="fil4"
     d="m 292.43583,276.36361 c 1.36057,0 2.47225,1.11062 2.47225,2.47329 0,1.36058 -1.11168,2.47226 -2.47225,2.47226 -1.36267,0 -2.4733,-1.11168 -2.4733,-2.47226 0,-1.36267 1.11063,-2.47329 2.4733,-2.47329 z m -0.001,0.68186 c 0.98616,0 1.79143,0.80421 1.79143,1.79039 0,0.98618 -0.80527,1.79145 -1.79143,1.79145 -0.9862,0 -1.79042,-0.80527 -1.79042,-1.79145 0,-0.98618 0.80422,-1.79039 1.79042,-1.79039 z"
     style="fill:#1f1a17"
     inkscape:connector-curvature="0" /><path
     style="fill:#ffffff"
     d="m 225.25812,241.81053 60.31096,35.4555 c -27.07349,13.67584 -47.6055,64.2368 8.26491,84.86716 -56.89415,-3.4072 -116.45215,-67.85542 -68.57589,-120.32266 l 2e-5,0 z"
     class="fil2"
     id="_48750936"
     inkscape:connector-curvature="0" /><path
     style="fill:#1f1a17;fill-rule:nonzero"
     d="m 225.50801,241.38401 60.31096,35.45549 0.7833,0.46015 -0.8105,0.4089 c -10.24459,5.17459 -19.54795,15.69528 -24.03861,27.85682 -1.86779,5.06163 -2.90312,10.41085 -2.82155,15.7737 0.0805,5.35239 1.27482,10.72357 3.86002,15.83854 4.8598,9.62234 14.98413,18.54192 31.54844,24.65877 l -0.53545,0.79375 c -21.73159,-1.30097 -43.85133,-11.46187 -60.27847,-26.45231 -8.29629,-7.56944 -15.14623,-16.37714 -19.76551,-25.89697 -4.62761,-9.53763 -7.0204,-19.79373 -6.39606,-30.24747 0.77179,-12.88418 6.12731,-26.06328 17.52644,-38.55646 l 0.27086,-0.29596 0.34617,0.20288 -4e-5,1.7e-4 z m 59.04233,35.85716 -59.19312,-34.79865 c -11.04673,12.22113 -16.24746,25.08231 -16.99938,37.64974 -0.61493,10.28015 1.74124,20.37101 6.29568,29.75806 4.56281,9.40377 11.33536,18.10791 19.53962,25.5937 15.41814,14.07011 35.89692,23.84513 56.30559,25.92209 -14.92243,-6.13355 -23.9445,-14.54177 -28.59201,-23.74263 -2.65737,-5.25929 -3.88512,-10.77688 -3.96878,-16.27151 -0.0826,-5.48416 0.97467,-10.95261 2.88429,-16.12719 4.45926,-12.07684 13.58903,-22.56823 23.72801,-27.98335 l 1e-4,-2.6e-4 z"
     class="fil3"
     id="_48747376"
     inkscape:connector-curvature="0" /><path
     style="fill:#e7b400"
     d="m 174.51222,264.66861 42.17574,33.31262 c 2.20036,0.73415 4.3066,0.63689 3.5076,-2.79017 l -42.21982,-33.00211 c -2.53188,-1.80084 -5.1474,0.96424 -3.46367,2.47958 l 1.5e-4,8e-5 z"
     class="fil5"
     id="_48742888"
     inkscape:connector-curvature="0" /><path
     style="fill:#1f1a17;fill-rule:nonzero"
     d="m 174.83003,264.28782 42.10251,33.25529 c 0.76866,0.40264 2.24845,0.74043 2.8477,-0.37544 l 0.002,-0.002 c 0.1255,-0.37648 0.20916,-1.0824 -0.0303,-1.69419 l -42.06606,-32.88185 c -0.82828,-0.58774 -1.65654,-0.59506 -2.26519,-0.31061 -0.23008,0.10772 -0.43611,0.2625 -0.5961,0.44238 l -0.001,-0.001 c -0.14954,0.16942 -0.25935,0.3608 -0.31268,0.55532 -0.092,0.33674 -0.007,0.708 0.31897,1.01233 l 1.4e-4,-9e-5 z m 41.5504,34.08249 -42.17577,-33.31263 -0.024,-0.0209 c -0.65468,-0.58983 -0.81363,-1.33234 -0.62539,-2.02048 0.0941,-0.34406 0.27817,-0.67349 0.52918,-0.95585 l 0,-0.002 c 0.24158,-0.26982 0.55636,-0.50512 0.9182,-0.67454 0.89834,-0.41832 2.09473,-0.42669 3.25973,0.40263 l 0.0178,0.0136 42.21984,33.0021 c 0.4455,0.69441 0.47793,1.89916 0.22066,2.67514 l 0.001,0 c -0.2217,0.67349 -0.75192,1.13469 -1.43692,1.29365 -0.84709,0.19556 -2.14388,10e-4 -2.90416,-0.40054 l -1.5e-4,-7e-5 z"
     class="fil3"
     id="_49103296"
     inkscape:connector-curvature="0" /><path
     style="fill:#ffffff"
     d="m 176.18118,265.98828 c -28.54705,26.56001 -18.66324,56.04509 42.48329,85.33875 -26.62173,-17.72308 -31.4585,-36.73869 -16.49216,-48.98814 3.10496,-2.54023 7.05074,-4.73221 11.80807,-6.47137 l -37.7992,-29.87938 0,1.4e-4 z"
     class="fil2"
     id="_48840088"
     inkscape:connector-curvature="0" /><path
     style="fill:#1f1a17;fill-rule:nonzero"
     d="m 176.21034,266.64313 c -5.31367,4.99574 -9.25737,10.09294 -11.73588,15.26649 -2.98157,6.22457 -3.84644,12.56729 -2.44089,18.9864 1.40973,6.44419 4.94553,13.21676 11.08122,19.81152 8.51487,9.15174 21.88322,18.17171 40.17108,27.42071 -5.0721,-3.82238 -9.16218,-7.68343 -12.2839,-11.49744 -4.2752,-5.2227 -6.7527,-10.37949 -7.47742,-15.26546 -0.73101,-4.92153 0.3127,-9.56271 3.07776,-13.71558 1.34804,-2.0257 3.10393,-3.93322 5.25618,-5.69435 l 0.0115,-0.009 c 0.42982,-0.35139 0.88891,-0.70487 1.37416,-1.06043 l 0,-0.002 c 0.46015,-0.3357 0.95272,-0.67559 1.47354,-1.01651 l 0.002,0 c 2.39174,-1.56138 5.15577,-2.95333 8.27016,-4.14971 l -36.77948,-29.07411 -1.1e-4,-3e-5 z m -12.63108,14.8398 c 2.57997,-5.38479 6.69934,-10.6786 12.26508,-15.85632 l 0.31268,-0.28969 0.33151,0.2625 37.79922,29.87938 0.69439,0.54904 -0.83348,0.30433 c -3.38105,1.23613 -6.35009,2.70338 -8.89032,4.362 l 0.001,0.001 c -0.47688,0.3127 -0.95587,0.64421 -1.4296,0.98933 l -10e-4,-0.001 c -0.4476,0.32733 -0.89205,0.6714 -1.33129,1.03011 l -0.0115,0.009 c -2.08008,1.70256 -3.77114,3.53583 -5.05955,5.47264 -2.62597,3.94476 -3.61738,8.35277 -2.92297,13.02537 0.69859,4.70608 3.106,9.69972 7.26617,14.78232 4.05244,4.95185 9.76143,9.98207 17.16774,14.91198 l -0.38381,0.66199 c -21.32898,-10.21843 -36.60382,-20.0144 -46.05056,-30.16801 -6.26222,-6.72968 -9.99046,-13.68633 -11.43784,-20.30411 -1.45471,-6.64185 -0.56265,-13.19793 2.51408,-19.62224 l 6e-5,-2e-5 z"
     class="fil3"
     id="_48815536"
     inkscape:connector-curvature="0" /><path
     id="_49113464"
     class="fil5"
     d="m 218.49181,294.66518 c 1.09809,0 1.99329,0.8952 1.99329,1.99329 0,1.09703 -0.8952,1.99224 -1.99329,1.99224 -1.09704,0 -1.99225,-0.89521 -1.99225,-1.99224 0,-1.09809 0.89521,-1.99329 1.99225,-1.99329 z"
     style="fill:#e7b400"
     inkscape:connector-curvature="0" /><path
     id="_48811296"
     class="fil4"
     d="m 218.49281,293.90693 c 1.51535,0 2.75148,1.23613 2.75148,2.75252 0,1.51431 -1.23613,2.75044 -2.75148,2.75044 -1.51641,0 -2.75149,-1.23613 -2.75149,-2.75044 0,-1.5164 1.23508,-2.75252 2.75149,-2.75252 l 0,0 z m -0.001,0.75924 c 1.09703,0 1.99329,0.89415 1.99329,1.99119 0,1.09704 -0.89626,1.99328 -1.99329,1.99328 -1.09705,0 -1.99119,-0.89624 -1.99119,-1.99328 0,-1.09704 0.89414,-1.99119 1.99119,-1.99119 z"
     style="fill:#1f1a17"
     inkscape:connector-curvature="0" /><path
     style="fill:#1f1a17;fill-rule:nonzero"
     d="m 262.13402,304.17124 36.43448,56.45504 -0.83245,0.53545 -36.43447,-56.45504 0.83244,-0.53545 0,0 z m -59.5275,-2.06858 35.5738,65.05041 -0.86801,0.47269 -35.5738,-65.05041 0.86801,-0.47269 0,0 z m 24.01455,63.13156 -27.5347,-60.22215 0.8994,-0.40994 27.53468,60.22215 -0.89938,0.40994 z m -28.62443,-58.19427 21.14178,54.70224 -0.92239,0.35557 -21.14178,-54.70224 0.92239,-0.35557 z m 62.83761,0.46851 29.18078,56.33906 -0.87846,0.45386 -29.09607,-56.08486 0.79375,-0.708 0,-6e-5 z m -1.26018,5.39004 22.5201,52.89938 -0.90982,0.38695 -22.3507,-52.61702 0.74042,-0.66931 0,0 z m 42.73848,-35.55692 34.00725,39.72036 -0.76971,0.6191 -33.63375,-39.15961 0.39636,-1.17966 -1.5e-4,-1.9e-4 z m -0.78644,1.31248 27.93314,45.514 -0.84081,0.52707 -27.93315,-45.514 0.84082,-0.52707 z m 2.4618,30.22656 16.94185,39.50395 -0.90984,0.38694 -16.94185,-39.50393 0.90984,-0.38696 z m -1.01023,0.83246 13.24601,41.75023 -0.9454,0.29909 -12.93229,-40.76097 9.66837,42.96217 -0.96423,0.21754 -9.79385,-43.5206 0.91612,-0.2071 -0.14013,-0.44129 0.9454,-0.2991 0,3e-5 z"
     class="fil3"
     id="_48839264"
     inkscape:connector-curvature="0" /><path
     style="fill:#e7b400"
     d="m 279.28696,281.23925 36.47523,21.33106 3.93114,2.52037 c 1.70673,0.16942 2.67513,-0.32629 2.02255,-2.28715 l -3.59439,-2.36455 c -16.11151,-10.0762 -33.52074,-20.63978 -34.99551,-21.45655 l -3.83911,2.25681 9e-5,1e-5 z"
     class="fil5"
     id="_48838968"
     inkscape:connector-curvature="0" /><path
     style="fill:#1f1a17;fill-rule:nonzero"
     d="m 280.26261,281.23826 35.74945,20.90646 0.0178,0.009 3.83285,2.45762 c 0.65571,0.0533 1.14933,-0.004 1.38986,-0.22799 0.20916,-0.19347 0.24681,-0.59087 0.0471,-1.26018 l -3.45115,-2.27041 10e-4,-10e-4 -0.11293,-0.0701 c -10e-4,0 -0.002,-0.002 -0.002,-0.002 -2.44402,-1.52896 -4.70607,-2.93555 -6.7872,-4.2271 -2.25578,-1.39927 -4.49168,-2.7818 -6.65543,-4.1152 -10.49557,-6.46822 -19.3472,-11.83107 -21.16374,-12.88418 l -2.86548,1.68478 -3e-5,-10e-6 z m 35.2318,21.74728 -36.45734,-21.3206 -0.72578,-0.42354 0.72578,-0.42773 3.8391,-2.25683 0.24367,-0.14222 0.24683,0.13595 c 1.05727,0.58565 10.33244,6.19842 21.44399,13.04627 2.16375,1.33339 4.39965,2.71593 6.65543,4.1152 2.42937,1.50699 4.73116,2.93973 6.79346,4.22918 l 0.002,0.002 0.12339,0.0774 0.009,0.004 3.5944,2.36454 0.19766,0.25936 c 0.39532,1.18907 0.25935,1.97445 -0.26041,2.45865 -0.49151,0.45702 -1.29155,0.57205 -2.28086,0.47479 l -0.21963,-0.0753 -3.93114,-2.52037 0,-10e-4 -7e-5,2e-5 z"
     class="fil3"
     id="_48733400"
     inkscape:connector-curvature="0" /><path
     id="_48672816"
     class="fil5"
     d="m 320.68489,302.4794 c 0.80631,0 1.46307,0.65676 1.46307,1.46307 0,0.80526 -0.65676,1.46202 -1.46307,1.46202 -0.80526,0 -1.46203,-0.65676 -1.46203,-1.46202 0,-0.80631 0.65677,-1.46307 1.46203,-1.46307 z"
     style="fill:#e7b400"
     inkscape:connector-curvature="0" /><path
     id="_49112720"
     class="fil4"
     d="m 320.68588,301.92298 c 1.11168,0 2.01942,0.9067 2.01942,2.02047 0,1.11064 -0.90774,2.01839 -2.01942,2.01839 -1.11271,0 -2.01942,-0.90775 -2.01942,-2.01839 0,-1.11377 0.90671,-2.02047 2.01942,-2.02047 z m -10e-4,0.55741 c 0.80526,0 1.46307,0.65571 1.46307,1.46097 0,0.80526 -0.65781,1.46307 -1.46307,1.46307 -0.80527,0 -1.46098,-0.65781 -1.46098,-1.46307 0,-0.80526 0.65571,-1.46097 1.46098,-1.46097 z"
     style="fill:#1f1a17"
     inkscape:connector-curvature="0" /><path
     sodipodi:nodetypes="ccccscsscc"
     style="fill:#c3010d;fill-opacity:1;stroke:none"
     d="m 174.6007,443.6076 c 25.23604,11.47967 53.80081,25.89279 75.36508,56.39241 15.62521,-22.0213 37.21658,-39.89603 74.87992,-56.25952 -17.55287,21.21151 28.95065,-42.66396 -28.46539,-30.14185 -6.73699,1.32818 -13.26273,3.38101 -19.06693,-1.54675 -7.39269,-6.27582 -16.24637,-10.82713 -26.18248,-10.85328 -1.00604,-10e-4 -2.1376,0.0419 -3.13004,0.12132 -10.00304,0.80735 -16.64902,4.78347 -24.26557,10.73196 -5.53747,4.32539 -13.30563,5.08776 -19.78433,2.40114 -46.98891,-31.56114 -41.34784,38.70308 -29.35026,29.15457 z"
     class="fil1"
     id="path3058"
     inkscape:connector-curvature="0" /></svg>